<?xml version="1.0" standalone="no"?>
<!DOCTYPE svg PUBLIC "-//W3C//DTD SVG 1.1//EN" "http://www.w3.org/Graphics/SVG/1.1/DTD/svg11.dtd" >
<svg>
<metadata>
Created by FontForge 20120731 at Wed Sep 18 22:15:46 2019
 By www
Copyright (C)2017 Commercial Type.
</metadata>
<defs>
<font id="YSText-Regular" horiz-adv-x="550" >
  <font-face 
    font-family="YS Text Regular"
    font-weight="400"
    font-stretch="normal"
    units-per-em="1000"
    panose-1="0 0 0 0 0 0 0 0 0 0"
    ascent="750"
    descent="-250"
    x-height="519"
    cap-height="717"
    bbox="-311 -228 1130 974"
    underline-thickness="59"
    underline-position="-84"
    unicode-range="U+000D-FEFF"
  />
<missing-glyph horiz-adv-x="200" 
 />
    <glyph glyph-name=".notdef" horiz-adv-x="200" 
 />
    <glyph glyph-name=".null" horiz-adv-x="0" 
 />
    <glyph glyph-name="nonmarkingreturn" unicode="&#xd;" horiz-adv-x="202" 
 />
    <glyph glyph-name="space" unicode=" " horiz-adv-x="220" 
 />
    <glyph glyph-name="exclam" unicode="!" horiz-adv-x="274" 
d="M182 717l-9 -526h-71l-8 526h88zM137 -6q-27 0 -44.5 17.5t-17.5 43.5t17.5 44t44.5 18t44.5 -18t17.5 -44t-17.5 -43.5t-44.5 -17.5z" />
    <glyph glyph-name="quotedbl" unicode="&#x22;" horiz-adv-x="397" 
d="M77 717h96l-10 -207h-76zM224 717h96l-10 -207h-76z" />
    <glyph glyph-name="numbersign" unicode="#" horiz-adv-x="678" 
d="M380 207h-150l-42 -207h-80l42 207h-110v70h125l37 182h-135v70h149l39 188h80l-39 -188h150l39 188h80l-39 -188h112v-70h-126l-37 -182h136v-70h-151l-42 -207h-80zM395 277l37 182h-150l-37 -182h150z" />
    <glyph glyph-name="dollar" unicode="$" 
d="M503 194q0 -50 -14.5 -86t-40 -60t-59.5 -37t-74 -18v-133h-85v131q-73 4 -119 23t-64 37v79q12 -9 33.5 -20t49 -20t60.5 -15t69 -6q76 0 115.5 31t39.5 94q0 31 -9.5 51t-28 33.5t-47 23.5t-66.5 21q-39 11 -76.5 24.5t-67.5 36.5t-48 57.5t-18 87.5q0 80 44 130
t133 63v124h85v-121q61 -2 96 -15t53 -24v-79q-28 17 -74 28.5t-102 11.5q-78 0 -112.5 -30.5t-34.5 -83.5q0 -31 11 -51.5t30.5 -34.5t45.5 -23t56 -16q39 -11 78 -23.5t70.5 -35t51 -59.5t19.5 -96z" />
    <glyph glyph-name="percent" unicode="%" horiz-adv-x="650" 
d="M55 -10l461 736h78l-461 -736h-78zM287 539q0 -48 -11 -83t-30 -57.5t-44 -33.5t-53 -11t-52.5 10.5t-43 32t-29.5 56t-11 82.5t11 83t29.5 58.5t43 34.5t52.5 11t53 -10.5t44 -33t30 -57t11 -82.5zM89 537q0 -66 15 -92.5t45 -26.5q31 0 46 26.5t15 92.5t-15 93t-46 27
q-30 0 -45 -27t-15 -93zM637 179q0 -48 -11 -82.5t-29.5 -57.5t-44 -34t-53.5 -11t-52.5 10.5t-43 32t-29.5 56t-11 82.5t11 83t29.5 58.5t43 34.5t52.5 11t53.5 -10.5t44 -33t29.5 -57t11 -82.5zM440 177q0 -66 14.5 -92.5t44.5 -26.5q32 0 46.5 26.5t14.5 92.5t-14.5 93
t-46.5 27q-30 0 -44.5 -27t-14.5 -93z" />
    <glyph glyph-name="ampersand" unicode="&#x26;" horiz-adv-x="770" 
d="M674 9q-41 0 -77.5 15t-74.5 41q-44 -34 -101 -54.5t-129 -20.5q-63 0 -110.5 15.5t-79 43t-47 64.5t-15.5 81q0 37 10.5 66t29 51.5t43.5 40t54 30.5q-38 43 -56.5 83.5t-18.5 84.5q0 36 13 68t38 56t62.5 38t85.5 14t86 -13.5t63.5 -37.5t39 -56t13.5 -68
q0 -42 -15 -72t-39 -52.5t-55.5 -39t-64.5 -29.5l128 -122l65 -60q32 39 50.5 85t26.5 91l79 -22q-11 -51 -33.5 -104.5t-60.5 -100.5q25 -17 51 -27t55 -10q25 0 43 5q10 2 18 5v-74q-11 -5 -29.5 -10t-47.5 -5zM129 197q0 -59 42 -93.5t125 -34.5q49 0 89.5 12.5
t72.5 34.5q-20 17 -41 36.5t-44 40.5l-141 135q-47 -20 -75 -51t-28 -80zM193 550q0 -40 23.5 -73t55.5 -64q31 12 57 25.5t45 30t29.5 36.5t10.5 46q0 45 -30 70.5t-82 25.5q-53 0 -81 -26.5t-28 -70.5z" />
    <glyph glyph-name="quotesingle" unicode="'" horiz-adv-x="251" 
d="M77 717h96l-10 -207h-76z" />
    <glyph glyph-name="parenleft" unicode="(" horiz-adv-x="354" 
d="M234 -139q-78 89 -116 203.5t-38 242.5q0 63 9.5 126t29 121.5t48 109.5t67.5 92h87q-41 -39 -70 -90t-48.5 -109t-28.5 -121t-9 -126q0 -128 37.5 -243t118.5 -206h-87z" />
    <glyph glyph-name="parenright" unicode=")" horiz-adv-x="354" 
d="M120.015 -139q77.9951 89 115.992 203.5q37.998 114.5 37.998 242.5q0 63 -9.49902 126q-9.5 63 -28.999 121.5q-19.498 58.5 -47.9971 109.5q-28.498 51 -67.4951 92h-86.9951q40.998 -39 69.9961 -90t48.4971 -109q19.498 -58 28.498 -121q8.99902 -63 8.99902 -126
q0 -128 -37.4971 -243q-37.498 -115 -118.493 -206h86.9951z" />
    <glyph glyph-name="asterisk" unicode="*" horiz-adv-x="444" 
d="M294 369l-72 125l-71 -125l-67 49l97 106l-141 30l25 78l131 -59l-15 144h82l-15 -144l130 59l26 -78l-141 -30l97 -106z" />
    <glyph glyph-name="plus" unicode="+" 
d="M316 302v-210h-82v210h-200v70h200v211h82v-211h200v-70h-200z" />
    <glyph glyph-name="comma" unicode="," horiz-adv-x="239" 
d="M54 -107q9 10 18 24t16.5 28.5t12 28t6.5 23.5q-21 5 -34 21t-13 38q0 26 16.5 43.5t44.5 17.5t45.5 -19t17.5 -51q0 -21 -6 -43.5t-15 -43.5t-20.5 -38.5t-22.5 -28.5h-66z" />
    <glyph glyph-name="hyphen" unicode="-" horiz-adv-x="360" 
d="M60 345h240v-80h-240v80z" />
    <glyph glyph-name="period" unicode="." horiz-adv-x="239" 
d="M120 -6q-29 0 -47 18.5t-18 44.5q0 28 18 46t47 18q28 0 46 -18t18 -46q0 -26 -18 -44.5t-46 -18.5z" />
    <glyph glyph-name="slash" unicode="/" horiz-adv-x="397" 
d="M0 -120l317 876h80l-317 -876h-80z" />
    <glyph glyph-name="zero" unicode="0" 
d="M277 -10q-51 0 -94.5 21.5t-75 67t-49.5 115t-18 165.5t18 165.5t49.5 114.5t75 66t94.5 21t94 -21t74 -65.5t48.5 -113.5t17.5 -165t-17.5 -165.5t-48.5 -115.5t-74 -68t-94 -22zM276 69q34 0 60 15t44 49t27.5 89.5t9.5 135.5t-9 135.5t-27 89.5t-44 49t-60 15
t-60.5 -15t-45 -49t-28 -89.5t-9.5 -135.5t9.5 -135.5t27.5 -89.5t44.5 -49t60.5 -15z" />
    <glyph glyph-name="one" unicode="1" 
d="M372 0h-91v604l-198 -152v101l213 164h76v-717z" />
    <glyph glyph-name="two" unicode="2" 
d="M506 0h-457v95q91 73 157.5 130t109.5 105t64 91.5t21 90.5q0 59 -35.5 95.5t-103.5 36.5q-57 0 -106 -28t-88 -71v101q38 37 86 59t111 22q56 0 99.5 -15t73 -42t45 -65t15.5 -84q0 -58 -22.5 -109t-66.5 -102t-108.5 -105.5t-147.5 -118.5h353v-86z" />
    <glyph glyph-name="three" unicode="3" 
d="M512 207q0 -50 -19 -90t-53 -68.5t-81 -43.5t-104 -15q-70 0 -121 17t-83 44v100q32 -32 84 -55.5t121 -23.5q74 0 116.5 35t42.5 98q0 60 -38 93.5t-119 33.5h-92v85h96q57 0 92 30t35 87q0 51 -33 80.5t-95 29.5q-64 0 -109.5 -24t-82.5 -56v98q35 29 83 47t110 18
q51 0 92 -13.5t69.5 -38.5t43.5 -59.5t15 -76.5q0 -34 -10 -61t-27.5 -47t-40.5 -33.5t-49 -19.5q31 -5 59.5 -19t50.5 -35.5t34.5 -51t12.5 -65.5z" />
    <glyph glyph-name="four" unicode="4" 
d="M425 170v-170h-88v170h-310v62l280 485h118v-471h97v-76h-97zM337 246v373l-219 -373h219z" />
    <glyph glyph-name="five" unicode="5" 
d="M494 237q0 -56 -17.5 -101.5t-50 -78t-79 -50t-103.5 -17.5q-64 0 -111 13.5t-80 37.5v98q34 -28 78.5 -47.5t112.5 -19.5q74 0 114.5 45t40.5 118q0 78 -40 114t-101 36q-45 0 -71.5 -14.5t-40.5 -30.5h-73v377h388v-86h-306v-205q20 15 49 26.5t69 11.5
q46 0 86.5 -14.5t70.5 -43t47 -71t17 -98.5z" />
    <glyph glyph-name="six" unicode="6" 
d="M522 235q0 -55 -18.5 -100t-50.5 -77.5t-75.5 -50t-93.5 -17.5q-68 0 -115.5 23t-77.5 64.5t-44 99.5t-14 127q0 94 17 172t52 133.5t89.5 86.5t129.5 31q54 0 89 -11t62 -26v-89q-65 44 -151 44q-47 0 -82 -20t-59.5 -54.5t-38.5 -82t-18 -101.5q33 45 76 67t94 22
q48 0 90 -15.5t73 -46.5t48.5 -76t17.5 -103zM281 70q29 0 55.5 10.5t46.5 30.5t32 50.5t12 71.5q0 40 -11.5 71t-31 52t-44 31.5t-49.5 10.5q-33 0 -61.5 -11t-49 -32t-32.5 -52t-12 -72q0 -72 39 -116.5t106 -44.5z" />
    <glyph glyph-name="seven" unicode="7" 
d="M202 0h-98l306 631h-365v86h461v-81z" />
    <glyph glyph-name="eight" unicode="8" 
d="M515 196q0 -48 -18 -86.5t-50 -65t-75 -40.5t-94 -14q-53 0 -97 13.5t-76 40t-50 64t-18 85.5q0 70 36.5 117.5t98.5 70.5q-50 20 -79.5 61t-29.5 101q0 44 16.5 78t45 57.5t68 35.5t85.5 12q45 0 83.5 -11.5t67.5 -34.5t45.5 -56.5t16.5 -78.5q0 -61 -30 -102.5
t-79 -61.5q60 -21 96.5 -68t36.5 -117zM278 417q54 0 88 30.5t34 84.5t-34 84.5t-88 30.5t-89 -30.5t-35 -84.5t35 -84.5t89 -30.5zM278 69q31 0 57.5 9.5t46 27t30.5 43.5t11 59t-11 59t-30.5 43.5t-46 27t-57.5 9.5q-32 0 -59.5 -9.5t-47.5 -27t-31 -43.5t-11 -59t11 -59
t31 -43.5t47.5 -27t59.5 -9.5z" />
    <glyph glyph-name="nine" unicode="9" 
d="M522 423q0 -101 -17.5 -181.5t-53 -136.5t-90.5 -85.5t-130 -29.5q-55 0 -90.5 10.5t-63.5 26.5v88q68 -44 154 -44q46 0 81.5 19.5t60 54t38.5 81.5t18 101q-31 -39 -74 -57.5t-93 -18.5q-48 0 -90 15.5t-73 45.5t-48.5 74t-17.5 101q0 54 18.5 98t50.5 75.5t75.5 49
t93.5 17.5q67 0 115 -22.5t78 -62.5t44 -96t14 -123zM274 646q-29 0 -55.5 -10t-46.5 -29.5t-32 -49t-12 -68.5t11.5 -69t31 -50.5t43.5 -30.5t50 -10q33 0 61.5 10.5t49 31t32.5 50.5t12 70q0 70 -39 112.5t-106 42.5z" />
    <glyph glyph-name="colon" unicode=":" horiz-adv-x="239" 
d="M120 -6q-29 0 -47 18.5t-18 44.5q0 28 18 46t47 18q28 0 46 -18t18 -46q0 -26 -18 -44.5t-46 -18.5zM120 377q-29 0 -47 18.5t-18 44.5q0 28 18 46t47 18q28 0 46 -18t18 -46q0 -26 -18 -44.5t-46 -18.5z" />
    <glyph glyph-name="semicolon" unicode=";" horiz-adv-x="239" 
d="M51 -103q9 10 18 24t16.5 28.5t12 28t6.5 23.5q-21 5 -34 21t-13 38q0 26 16.5 43.5t44.5 17.5t45.5 -19t17.5 -51q0 -21 -6 -43.5t-15 -43.5t-20.5 -38.5t-22.5 -28.5h-66zM120 377q-29 0 -47 18.5t-18 44.5q0 28 18 46t47 18q28 0 46 -18t18 -46q0 -26 -18 -44.5
t-46 -18.5z" />
    <glyph glyph-name="less" unicode="&#x3c;" 
d="M70 292v91l412 189v-80l-336 -155l336 -155v-80z" />
    <glyph glyph-name="equal" unicode="=" horiz-adv-x="549" 
d="M33 397v70h483v-70h-483zM33 207v70h483v-70h-483z" />
    <glyph glyph-name="greater" unicode="&#x3e;" 
d="M70 182l336 155l-336 155v80l412 -189v-91l-412 -190v80z" />
    <glyph glyph-name="question" unicode="?" horiz-adv-x="470" 
d="M440 520q0 -54 -18 -90t-44.5 -60.5t-57.5 -41.5t-57.5 -33.5t-44.5 -36.5t-18 -49v-18h-75v17q0 48 16.5 78t42 50.5t54.5 36t54.5 34.5t42 45.5t16.5 68.5q0 24 -5.5 46.5t-21.5 40t-45.5 28.5t-76.5 11q-59 0 -94 -13t-53 -25v79q24 13 60 25.5t96 12.5t103.5 -16
t71 -44t41 -65.5t13.5 -80.5zM166 -6q-27 0 -44.5 17.5t-17.5 43.5t17.5 44t44.5 18t44.5 -18t17.5 -44t-17.5 -43.5t-44.5 -17.5z" />
    <glyph glyph-name="at" unicode="@" horiz-adv-x="1063" 
d="M765 -160q-14 -7 -37.5 -14t-53.5 -12.5t-65 -9t-72 -3.5q-103 0 -193 28t-156.5 83t-104.5 136.5t-38 188.5q0 109 37.5 199t105.5 154.5t161.5 100t206.5 35.5q94 0 178 -25.5t147 -75t100 -122.5t37 -167q0 -61 -15.5 -117.5t-46 -100t-75.5 -69.5t-104 -26
q-34 0 -59 8t-43 22.5t-29 33.5t-17 41q-28 -52 -72 -78.5t-96 -26.5q-33 0 -65 11.5t-57 36.5t-40 65t-15 97t16.5 105.5t46 84t70.5 56t89 20.5q53 0 90.5 -26t55.5 -82l39 78h56l-45 -250q-3 -20 -1.5 -42t10.5 -40.5t26.5 -30.5t47.5 -12q32 0 60 16.5t48.5 47
t32.5 72.5t12 93q0 80 -30.5 142t-83.5 105t-123.5 65t-149.5 22q-92 0 -170 -29.5t-135 -84t-89 -131t-32 -170.5q0 -96 32 -166t87.5 -115.5t131.5 -68t164 -22.5q83 0 141 15t84 29v-74zM370 229q0 -40 10 -66.5t26.5 -42t36.5 -22t41 -6.5q34 0 61.5 17t46.5 44.5
t29.5 63.5t10.5 75q0 38 -10 64t-26 41.5t-36 22.5t-40 7q-35 0 -63 -16.5t-47.5 -43.5t-29.5 -63t-10 -75z" />
    <glyph glyph-name="A" unicode="A" horiz-adv-x="692" 
d="M275 717h140l257 -717h-100l-74 205h-317l-73 -205h-88zM468 290l-128 357l-128 -357h256z" />
    <glyph glyph-name="B" unicode="B" horiz-adv-x="645" 
d="M84 717h243q118 0 179.5 -40t61.5 -135q0 -39 -10.5 -67.5t-29 -49t-45 -33.5t-58.5 -20q84 -10 126.5 -48.5t42.5 -116.5q0 -56 -20.5 -95.5t-56.5 -64t-85 -36t-107 -11.5h-241v717zM178 631v-220h142q34 0 62 7.5t48 23t31.5 39t11.5 56.5q0 55 -38 74.5t-108 19.5
h-149zM178 326v-241h147q38 0 69 6t53.5 20t35 37t12.5 57q0 68 -43.5 94.5t-137.5 26.5h-136z" />
    <glyph glyph-name="C" unicode="C" horiz-adv-x="671" 
d="M395 -10q-80 0 -145 25t-111.5 72.5t-71.5 116t-25 154.5q0 87 23 155t68 115.5t110.5 72.5t149.5 25q73 0 128 -15.5t90 -36.5v-90q-45 29 -103.5 43t-115.5 14q-127 0 -187.5 -70.5t-60.5 -212.5q0 -143 65.5 -213t193.5 -70q55 0 107.5 15t100.5 51v-90
q-29 -23 -84.5 -42t-131.5 -19z" />
    <glyph glyph-name="D" unicode="D" horiz-adv-x="706" 
d="M84 717h241q72 0 134 -17t108 -56t72 -103t26 -158q0 -95 -26.5 -166.5t-73 -119.5t-111 -72.5t-140.5 -24.5h-230v717zM178 631v-546h136q55 0 101 17t79 52.5t51 90.5t18 131q0 75 -18 124.5t-49.5 78.5t-75.5 40.5t-95 11.5h-147z" />
    <glyph glyph-name="E" unicode="E" horiz-adv-x="598" 
d="M84 717h444v-86h-350v-217h297v-85h-297v-244h355v-85h-449v717z" />
    <glyph glyph-name="F" unicode="F" horiz-adv-x="568" 
d="M84 717h438v-86h-344v-238h292v-85h-292v-308h-94v717z" />
    <glyph glyph-name="G" unicode="G" horiz-adv-x="739" 
d="M690 281q0 -63 -18.5 -116t-56.5 -92t-95.5 -61t-135.5 -22q-76 0 -139 26.5t-108 74.5t-70 116t-25 151t24 151t70.5 116t115.5 74.5t159 26.5q46 0 82.5 -6t64.5 -15t48.5 -20t35.5 -21v-90q-24 14 -49 26.5t-53.5 21.5t-61 14t-70.5 5q-68 0 -117.5 -19t-82 -55.5
t-48.5 -89t-16 -119.5q0 -134 63.5 -208.5t176.5 -74.5q56 0 96 14.5t65 40t36.5 61t11.5 77.5v20h-231v85h328v-92v0z" />
    <glyph glyph-name="H" unicode="H" horiz-adv-x="724" 
d="M546 313h-368v-313h-94v717h94v-319h368v319h95v-717h-95v313z" />
    <glyph glyph-name="I" unicode="I" horiz-adv-x="261" 
d="M178 717v-717h-94v717h94z" />
    <glyph glyph-name="J" unicode="J" horiz-adv-x="373" 
d="M293 717v-584q0 -27 -10 -53t-30.5 -46t-52 -32t-74.5 -12q-26 0 -52.5 4.5t-48.5 12.5v81q38 -13 79 -13q49 0 71.5 20.5t22.5 65.5v556h95z" />
    <glyph glyph-name="K" unicode="K" horiz-adv-x="641" 
d="M254 307h-76v-307h-94v717h94v-325h70l256 325h106l-283 -358l294 -359h-117z" />
    <glyph glyph-name="L" unicode="L" horiz-adv-x="572" 
d="M527 0h-443v717h94v-632h349v-85z" />
    <glyph glyph-name="M" unicode="M" horiz-adv-x="876" 
d="M438 214l233 503h122v-717h-95v577l-220 -467l-47 -1h-42l1 1l-217 475v-585h-89v717h131z" />
    <glyph glyph-name="N" unicode="N" horiz-adv-x="744" 
d="M661 0h-128l-360 602v-602h-89v717h127l360 -602v602h90v-717z" />
    <glyph glyph-name="O" unicode="O" horiz-adv-x="770" 
d="M385 -10q-72 0 -135 24.5t-109 71.5t-72.5 116t-26.5 159t26.5 158.5t72.5 114t109 69t135 23.5q73 0 136 -23.5t109 -69.5t72 -114.5t26 -158.5q0 -89 -26 -158t-72 -116t-109 -71.5t-136 -24.5zM385 75q52 0 96 15.5t76.5 49t51 87.5t18.5 131t-18.5 131t-51 87.5
t-76.5 49t-96 15.5t-96 -15.5t-76.5 -49t-51 -87.5t-18.5 -131t18.5 -131t51 -87.5t76.5 -49t96 -15.5z" />
    <glyph glyph-name="P" unicode="P" horiz-adv-x="610" 
d="M84 717h229q122 0 189.5 -50.5t67.5 -157.5q0 -61 -19.5 -104.5t-54.5 -71.5t-83.5 -41t-107.5 -13h-127v-279h-94v717zM178 631v-267h127q38 0 69 8t53.5 25t35 44.5t12.5 66.5q0 65 -42 94t-120 29h-135z" />
    <glyph glyph-name="Q" unicode="Q" horiz-adv-x="770" 
d="M703 -135q-80 16 -144.5 34.5t-117.5 37.5t-97.5 37t-83.5 33q-48 19 -88 48.5t-69 71.5t-45 98.5t-16 129.5q0 90 26 159t72 116t108.5 71.5t135.5 24.5q72 0 135 -23.5t109.5 -69t73 -114t26.5 -158.5q0 -65 -13.5 -121.5t-44.5 -102t-80 -78.5t-121 -51
q60 -18 125 -32t143 -23zM385 75q52 0 96 15.5t76.5 49t51 87.5t18.5 131t-18.5 131t-51 87.5t-76.5 49t-96 15.5t-96 -15.5t-76.5 -49t-51 -87.5t-18.5 -131t18.5 -131t51 -87.5t76.5 -49t96 -15.5z" />
    <glyph glyph-name="R" unicode="R" horiz-adv-x="651" 
d="M84 717h240q127 0 193.5 -49.5t66.5 -155.5q0 -94 -45.5 -144t-119.5 -66l195 -302h-106l-187 291h-143v-291h-94v717zM178 631v-255h137q38 0 69.5 7t54 23t35 42.5t12.5 65.5q0 64 -42 90.5t-120 26.5h-146z" />
    <glyph glyph-name="S" unicode="S" horiz-adv-x="586" 
d="M284 -10q-49 0 -88 6.5t-68.5 17t-50 23t-32.5 24.5v90q15 -13 39 -26.5t55.5 -24.5t68 -18t76.5 -7q78 0 124 29.5t46 89.5q0 30 -11 49.5t-32 33t-52.5 23t-73.5 20.5t-84 25t-75.5 37t-54 58t-20.5 89q0 93 65 145t199 52q39 0 69.5 -4.5t54 -11t41 -14.5t31.5 -15
v-90q-42 27 -90.5 38.5t-105.5 11.5q-48 0 -80.5 -7.5t-52.5 -21.5t-29 -34t-9 -45q0 -30 13.5 -50t36 -33.5t51.5 -22.5t61 -16q42 -10 86 -23t79 -36t57.5 -59.5t22.5 -94.5q0 -57 -22.5 -96.5t-59.5 -64.5t-85 -36t-100 -11z" />
    <glyph glyph-name="T" unicode="T" horiz-adv-x="599" 
d="M346 630v-630h-95v630h-221v87h537v-87h-221z" />
    <glyph glyph-name="U" unicode="U" horiz-adv-x="692" 
d="M67 717h95v-472q0 -87 49.5 -129t135.5 -42q42 0 77.5 10.5t61.5 32t40.5 53.5t14.5 75v472h90v-469q0 -62 -22 -110t-60.5 -81t-90.5 -50t-113 -17q-59 0 -110 16t-88.5 48t-58.5 79.5t-21 110.5v473z" />
    <glyph glyph-name="V" unicode="V" horiz-adv-x="676" 
d="M412 0h-147l-250 717h98l229 -660l229 660h90z" />
    <glyph glyph-name="W" unicode="W" horiz-adv-x="951" 
d="M772 0h-138l-158 554l-159 -554h-139l-158 717h98l136 -636l184 636h86l180 -624l135 624h91z" />
    <glyph glyph-name="X" unicode="X" horiz-adv-x="640" 
d="M316 309l-211 -309h-100l262 377l-228 340h113l182 -274l180 274h100l-232 -339l253 -378h-112z" />
    <glyph glyph-name="Y" unicode="Y" horiz-adv-x="624" 
d="M361 311v-311h-96v308l-245 409h108l188 -326l192 326h96z" />
    <glyph glyph-name="Z" unicode="Z" horiz-adv-x="614" 
d="M561 0h-518v68l400 563h-389v86h506v-69l-403 -563h404v-85z" />
    <glyph glyph-name="bracketleft" unicode="[" horiz-adv-x="408" 
d="M100 756h278v-75h-193v-745h193v-75h-278v895z" />
    <glyph glyph-name="backslash" unicode="\" horiz-adv-x="397" 
d="M0 756h80l317 -876h-80z" />
    <glyph glyph-name="bracketright" unicode="]" horiz-adv-x="408" 
d="M308.006 756h-277.982v-75h192.988v-745h-192.988v-75h277.982v895z" />
    <glyph glyph-name="asciicircum" unicode="^" horiz-adv-x="451" 
d="M225 644l-120 -186h-75l145 259h100l145 -259h-75z" />
    <glyph glyph-name="underscore" unicode="_" horiz-adv-x="390" 
d="M-10 -40h410v-75h-410v75z" />
    <glyph glyph-name="grave" unicode="`" horiz-adv-x="451" 
d="M235 588l-131 158h115l91 -158h-75z" />
    <glyph glyph-name="a" unicode="a" horiz-adv-x="526" 
d="M376 99q-9 -18 -23 -37.5t-35 -35.5t-49.5 -26t-66.5 -10q-70 0 -113 39.5t-43 113.5q0 85 59.5 125t169.5 40h97v43q0 54 -28 77t-96 23q-48 0 -91 -15.5t-77 -35.5v79q28 17 75.5 33.5t104.5 16.5q98 0 149 -40.5t51 -125.5v-279q0 -9 0.5 -20.5t1 -23.5t1.5 -22.5
t2 -17.5h-80q-3 14 -5.5 39.5t-2.5 44.5zM221 69q41 0 70 17t47 39.5t26 44t8 30.5v38h-88q-79 0 -114.5 -22.5t-35.5 -67.5q0 -35 21 -57t66 -22z" />
    <glyph glyph-name="b" unicode="b" horiz-adv-x="600" 
d="M565 260q0 -69 -19 -119.5t-51 -84t-74 -50t-88 -16.5q-60 0 -104.5 28.5t-70.5 79.5l-3 -98h-83v717h88l-2 -299q26 51 70 81t109 30q45 0 86.5 -16.5t73 -50t50 -84t18.5 -118.5zM320 69q69 0 111.5 47.5t42.5 143.5q0 94 -42.5 142.5t-111.5 48.5q-34 0 -63.5 -12
t-51 -35.5t-34 -59.5t-12.5 -84t12.5 -84t34 -60t51 -35.5t63.5 -11.5z" />
    <glyph glyph-name="c" unicode="c" horiz-adv-x="489" 
d="M296 -10q-60 0 -108.5 18.5t-82.5 53t-52 84.5t-18 114q0 63 18.5 113t52.5 84.5t83 53t111 18.5q48 0 88 -10.5t66 -30.5v-79q-32 21 -71.5 31.5t-81.5 10.5q-91 0 -133.5 -47t-42.5 -144t41 -144t130 -47q47 0 86.5 11.5t71.5 29.5v-79q-28 -17 -67.5 -29t-90.5 -12z
" />
    <glyph glyph-name="d" unicode="d" horiz-adv-x="600" 
d="M444 102q-24 -51 -67 -81.5t-109 -30.5q-47 0 -89 16.5t-74 50t-51 84t-19 119.5q0 68 19 118.5t51 84t74.5 50t89.5 16.5q59 0 102 -24.5t69 -69.5v282h88v-717h-77zM281 69q34 0 63 11.5t50.5 35.5t34 60t12.5 84t-12.5 84t-34 60t-50.5 35.5t-63 11.5
q-69 0 -112.5 -48.5t-43.5 -142.5q0 -95 44 -143t112 -48z" />
    <glyph glyph-name="e" unicode="e" horiz-adv-x="530" 
d="M485 44q-11 -8 -27 -17t-39 -17.5t-52 -14t-65 -5.5q-131 0 -199 71t-68 199q0 63 18.5 113t51.5 84.5t78 53t98 18.5q56 0 100 -19t72.5 -56t39 -91.5t-0.5 -126.5h-366q5 -84 50 -125.5t134 -41.5q60 0 103 17t72 37v-79zM279 451q-57 0 -98 -35t-52 -106h279
q4 72 -33 106.5t-96 34.5z" />
    <glyph glyph-name="f" unicode="f" horiz-adv-x="372" 
d="M191 444v-444h-88v444h-63v75h63v13q0 92 49 143t134 51q37 0 66 -9v-80q-9 4 -26 7t-36 3q-46 0 -72.5 -28t-26.5 -87v-13h150v-75h-150z" />
    <glyph glyph-name="g" unicode="g" horiz-adv-x="589" 
d="M518 44q0 -50 -14.5 -91.5t-46 -70.5t-81 -45t-119.5 -16q-38 0 -67 4t-50.5 10.5t-36.5 14t-25 14.5v79q16 -9 33.5 -16.5t38.5 -13.5t47.5 -9.5t60.5 -3.5q96 0 134 36t38 107v80q-23 -46 -64.5 -74t-102.5 -28q-46 0 -87.5 16t-73 47.5t-50 79t-18.5 110.5
q0 64 18.5 111.5t50 79.5t73.5 48t89 16q62 0 104.5 -28t66.5 -76l1 11q0 18 2 43.5t4 39.5h80q-2 -14 -3.5 -40t-1.5 -43v-392zM279 100q33 0 60.5 10.5t48 32.5t32 54.5t11.5 76.5q0 89 -43.5 133t-109.5 44q-33 0 -61.5 -11t-49 -33t-32.5 -55.5t-12 -77.5t12 -76.5
t33 -54t49.5 -32.5t61.5 -11z" />
    <glyph glyph-name="h" unicode="h" horiz-adv-x="575" 
d="M318 451q-60 0 -97.5 -27.5t-60.5 -70.5v-353h-88v717h88v-198l-2 -93h2q21 44 66 73.5t114 29.5q77 0 122.5 -40.5t45.5 -124.5v-364h-88v355q0 54 -27 75t-75 21z" />
    <glyph glyph-name="i" unicode="i" horiz-adv-x="231" 
d="M117 595q-27 0 -43 16.5t-16 40.5t16 41t43 17q26 0 41 -17t15 -41t-15 -40.5t-41 -16.5zM160 519v-519h-88v519h88z" />
    <glyph glyph-name="j" unicode="j" horiz-adv-x="239" 
d="M124 595q-26 0 -42 16.5t-16 40.5t16 41t42 17t41.5 -17t15.5 -41t-15.5 -40.5t-41.5 -16.5zM168 -44q0 -29 -8 -55t-25.5 -45.5t-44.5 -31t-64 -11.5q-20 0 -44 4.5t-47 16.5v85q14 -11 33 -19t43 -8q38 0 53.5 18t15.5 44v565h88v-563z" />
    <glyph glyph-name="k" unicode="k" horiz-adv-x="496" 
d="M206 221h-46v-221h-88v717h88v-421h50l182 223h100l-213 -256l217 -263h-107z" />
    <glyph glyph-name="l" unicode="l" horiz-adv-x="231" 
d="M160 717v-717h-88v717h88z" />
    <glyph glyph-name="m" unicode="m" horiz-adv-x="883" 
d="M160 0h-88v519h77l9 -93h2q21 44 63 73.5t110 29.5q60 0 98.5 -28.5t51.5 -85.5q22 53 67.5 83.5t110.5 30.5q72 0 114 -40.5t42 -124.5v-364h-89v353q0 51 -25 74.5t-68 23.5q-29 0 -51 -8.5t-39 -23.5t-31 -35t-26 -42v-342h-88v363q0 50 -25 69t-68 19q-28 0 -50 -7
t-39.5 -20t-31.5 -31.5t-26 -40.5v-352z" />
    <glyph glyph-name="n" unicode="n" horiz-adv-x="575" 
d="M318 451q-60 0 -97.5 -27.5t-60.5 -70.5v-353h-88v519h83l3 -93h2q21 45 66 74t114 29q77 0 122.5 -40.5t45.5 -124.5v-364h-88v355q0 54 -27 75t-75 21z" />
    <glyph glyph-name="o" unicode="o" horiz-adv-x="572" 
d="M285 -10q-53 0 -99 18t-79.5 52.5t-52.5 84.5t-19 115q0 64 19 114.5t52.5 84.5t79.5 52t99 18q54 0 100 -18t79.5 -52t53 -84.5t19.5 -114.5q0 -65 -19.5 -115t-53 -84.5t-79.5 -52.5t-100 -18zM285 69q35 0 64.5 11.5t51.5 35t34 59.5t12 85t-12 85t-34 59.5t-51.5 35
t-64.5 11.5t-64 -11.5t-50.5 -35t-33.5 -59.5t-12 -85t12 -85t33.5 -59.5t50.5 -35t64 -11.5z" />
    <glyph glyph-name="p" unicode="p" horiz-adv-x="600" 
d="M333 -10q-60 0 -103.5 28t-69.5 77v-272h-88v696h77l9 -101q26 51 70 81t109 30q45 0 86.5 -16.5t73 -50t50 -84t18.5 -118.5q0 -69 -19 -119.5t-51 -84t-74 -50t-88 -16.5zM320 69q69 0 111.5 47.5t42.5 143.5q0 94 -42.5 142.5t-111.5 48.5q-34 0 -63.5 -12t-51 -35.5
t-34 -59.5t-12.5 -84t12.5 -84t34 -60t51 -35.5t63.5 -11.5z" />
    <glyph glyph-name="q" unicode="q" horiz-adv-x="600" 
d="M528 -177h-88v271q-24 -48 -66.5 -76t-105.5 -28q-47 0 -89 16.5t-74 50t-51 84t-19 119.5q0 68 19 118.5t51 84t74.5 50t89.5 16.5q61 0 105.5 -27t69.5 -75l1 9q0 18 2 43.5t5 39.5h81q-2 -14 -3.5 -40t-1.5 -43v-613zM281 69q34 0 63 11.5t50.5 35.5t34 60t12.5 84
t-12.5 84t-34 59.5t-50.5 35.5t-63 12q-69 0 -112.5 -48.5t-43.5 -142.5q0 -95 44 -143t112 -48z" />
    <glyph glyph-name="r" unicode="r" horiz-adv-x="364" 
d="M329 431q-56 -5 -101.5 -28.5t-67.5 -72.5v-330h-88v519h77l9 -113h2q22 46 63.5 80.5t105.5 42.5v-98v0z" />
    <glyph glyph-name="s" unicode="s" horiz-adv-x="483" 
d="M238 -10q-41 0 -72.5 6.5t-55 16t-39.5 20t-25 18.5v79q10 -10 27 -21.5t41 -21.5t54.5 -16.5t68.5 -6.5q56 0 89 18t33 61q0 23 -10.5 37t-28.5 22.5t-41.5 13.5t-49.5 10q-33 7 -65 15.5t-58 25t-42 43t-16 69.5q0 70 54.5 110t152.5 40q55 0 97.5 -11t65.5 -24v-79
q-26 17 -64.5 28.5t-95.5 11.5q-59 0 -90.5 -16t-31.5 -58q0 -21 9 -33.5t24.5 -20t35.5 -11.5t42 -9q34 -7 70 -15t64.5 -25t47 -45.5t18.5 -76.5q0 -45 -18 -75t-47.5 -47.5t-67 -25t-76.5 -7.5z" />
    <glyph glyph-name="t" unicode="t" horiz-adv-x="371" 
d="M326 11q-16 -9 -41 -15t-53 -6q-38 0 -64.5 11t-43.5 29.5t-24.5 42t-7.5 48.5v323h-62v75h62v109h88v-109h151v-75h-151v-312q0 -33 16.5 -48t58.5 -15q39 0 71 22v-80v0z" />
    <glyph glyph-name="u" unicode="u" horiz-adv-x="565" 
d="M405 93q-21 -44 -64.5 -73.5t-113.5 -29.5q-72 0 -116.5 40.5t-44.5 125.5v363h89v-363q0 -26 7.5 -42.5t20.5 -26.5t30.5 -14t38.5 -4q58 0 93 26t60 71v353h88v-519h-78l-8 93h-2v0z" />
    <glyph glyph-name="v" unicode="v" horiz-adv-x="518" 
d="M330 0h-142l-178 519h95l158 -472l157 472h88z" />
    <glyph glyph-name="w" unicode="w" horiz-adv-x="785" 
d="M637 0h-135l-110 401l-113 -401h-131l-118 519h93l99 -453l126 453h99l123 -448l98 448h87z" />
    <glyph glyph-name="x" unicode="x" horiz-adv-x="503" 
d="M247 206l-140 -206h-92l188 269l-166 250h102l124 -183l125 183h91l-172 -248l181 -271h-102z" />
    <glyph glyph-name="y" unicode="y" horiz-adv-x="531" 
d="M327 6q-18 -47 -38 -82.5t-45 -60.5t-56 -37.5t-71 -12.5q-20 0 -37 2.5t-31 8.5v85q11 -8 28 -12.5t37 -4.5q37 0 61 17.5t46 55.5l-211 554h97l165 -438l164 438h85l-194 -513v0z" />
    <glyph glyph-name="z" unicode="z" horiz-adv-x="459" 
d="M419 0h-384v57l273 387h-265v75h375v-57l-273 -387h274v-75z" />
    <glyph glyph-name="braceleft" unicode="{" horiz-adv-x="429" 
d="M369 -135q-16 -3 -30.5 -4t-27.5 -1q-40 0 -68 10.5t-46 29.5t-26.5 45t-8.5 58q0 21 2 38t4.5 32.5t4.5 32t2 35.5q0 27 -3.5 49t-14.5 39t-31.5 28t-55.5 14v75q35 3 55.5 14t31.5 28t14.5 39t3.5 49q0 19 -2 35.5t-4.5 32t-4.5 32.5t-2 38q0 31 8.5 57.5t26.5 45.5
t46 29.5t68 10.5q13 0 27.5 -1.5t30.5 -3.5v-71q-28 5 -44 5q-44 0 -59 -22t-15 -55q0 -22 1 -39.5t2.5 -34.5t2.5 -35t1 -39t-4 -42t-15.5 -41t-31.5 -38t-53 -32q33 -14 53 -31.5t31.5 -37.5t15.5 -41t4 -42t-1 -39t-2.5 -35t-2.5 -34.5t-1 -39.5q0 -32 14.5 -55t57.5 -23
q19 0 46 6v-71z" />
    <glyph glyph-name="bar" unicode="|" horiz-adv-x="285" 
d="M185 756v-876h-85v876h85z" />
    <glyph glyph-name="braceright" unicode="}" horiz-adv-x="429" 
d="M60.0225 -135q15.999 -3 30.498 -4t27.498 -1q39.998 0 67.9961 10.5t45.9971 29.5t26.499 45q8.49902 26 8.49902 58q0 21 -2 38t-4.49902 32.5q-2.5 15.5 -4.5 32t-2 35.5q0 27 3.5 49q3.49902 22 14.499 39q10.999 17 31.498 28t55.4961 14v75q-34.9971 3 -55.4961 14
t-31.498 28q-11 17 -14.499 39q-3.5 22 -3.5 49q0 19 2 35.5t4.5 32q2.49902 15.5 4.49902 32.5t2 38q0 31 -8.49902 57.5q-8.5 26.5 -26.499 45.5t-45.9971 29.5t-67.9961 10.5q-12.999 0 -27.498 -1.5t-30.498 -3.5v-71q27.998 5 43.9971 5q43.998 0 58.9971 -22
t14.999 -55q0 -22 -1 -39.5t-2.5 -34.5t-2.5 -35t-1 -39t4 -42t15.499 -41t31.498 -38t52.9971 -32q-32.998 -14 -52.9971 -31.5t-31.498 -37.5t-15.499 -41t-4 -42t1 -39t2.5 -35t2.5 -34.5t1 -39.5q0 -32 -14.499 -55t-57.4971 -23q-18.999 0 -45.9971 6v-71z" />
    <glyph glyph-name="asciitilde" unicode="~" horiz-adv-x="609" 
d="M52 247q-5 33 0.5 64t22 55t45.5 39t71 15q40 0 72 -13.5t58.5 -30t49.5 -30t46 -13.5q33 0 47.5 22t12.5 71h79q5 -32 -0.5 -63t-22.5 -55.5t-46 -39.5t-70 -15t-72.5 13.5t-58 30t-49.5 30t-45 13.5q-33 0 -48 -22t-13 -71h-79v0z" />
    <glyph glyph-name="uni00A0" unicode="&#xa0;" horiz-adv-x="200" 
 />
    <glyph glyph-name="exclamdown" unicode="&#xa1;" horiz-adv-x="274" 
d="M92.0107 -193.956l9 525.968h70.9951l8 -525.968h-87.9951zM137.009 529q26.998 0 44.4971 -17.499t17.499 -43.498q0 -25.998 -17.499 -43.9971t-44.4971 -17.999q-26.999 0 -44.498 17.999t-17.499 43.9971q0 25.999 17.499 43.498t44.498 17.499z" />
    <glyph glyph-name="cent" unicode="&#xa2;" 
d="M482 31q-25 -15 -58.5 -26.5t-76.5 -13.5v-131h-84v135q-94 17 -147 85.5t-53 179.5q0 109 53 177.5t147 85.5v127h84v-121q42 -2 77 -13t58 -28v-79q-32 21 -71.5 31.5t-81.5 10.5q-176 0 -176 -191q0 -97 41.5 -144t129.5 -47q47 0 86.5 11.5t71.5 29.5v-79v0z" />
    <glyph glyph-name="sterling" unicode="&#xa3;" 
d="M514 0h-469v51q57 43 78 87.5t21 92.5q0 23 -5 48h-102v74h79q-14 35 -27 73t-13 87q0 98 63 155.5t184 57.5q62 0 98.5 -11t59.5 -25v-81q-26 15 -68 25.5t-92 10.5q-84 0 -119 -38.5t-34 -101.5q1 -50 15 -84l28 -68h175v-74h-158q1 -5 1 -10v-10q0 -44 -12.5 -88
t-55.5 -91h353v-80z" />
    <glyph glyph-name="currency" unicode="&#xa4;" horiz-adv-x="567" 
d="M404 174q-26 -17 -56.5 -27.5t-63.5 -10.5q-35 0 -65.5 10.5t-56.5 27.5l-73 -73l-49 48l73 74q-17 26 -27.5 56t-10.5 65t10.5 65.5t27.5 56.5l-73 73l49 49l73 -74q26 18 56.5 28.5t65.5 10.5q33 0 64 -10.5t57 -28.5l73 74l49 -49l-73 -73q17 -26 27.5 -56.5
t10.5 -65.5t-10.5 -65t-27.5 -56l73 -74l-50 -48zM285 483q-26 0 -48.5 -9.5t-40 -27t-27.5 -43.5t-10 -59t10 -58.5t27.5 -43t40 -27t48.5 -9.5q25 0 48 9.5t39.5 27t26.5 43t10 58.5t-10 59t-26.5 43.5t-39.5 27t-48 9.5z" />
    <glyph glyph-name="yen" unicode="&#xa5;" 
d="M321 149v-149h-89v149h-160v70h160v80h-160v70h138l-203 348h103l169 -307l174 307h91l-202 -348h139v-70h-160v-80h160v-70h-160z" />
    <glyph glyph-name="brokenbar" unicode="&#xa6;" horiz-adv-x="285" 
d="M185 756v-400h-85v400h85zM185 280v-400h-85v400h85z" />
    <glyph glyph-name="section" unicode="&#xa7;" horiz-adv-x="586" 
d="M502 -10q0 -47 -20.5 -80.5t-54 -55t-77.5 -31.5t-91 -10q-45 0 -80.5 5.5t-62.5 14.5t-45.5 19.5t-29.5 20.5v76q13 -11 35 -22t50.5 -20t62.5 -15t70 -6q71 0 113 25t42 76q0 26 -10 43t-29.5 29t-48 20t-66.5 17q-44 10 -83 22.5t-68 31.5t-46 47t-17 70
q0 57 34.5 94.5t96.5 54.5q-49 25 -73 59.5t-24 83.5q0 76 59.5 121.5t181.5 45.5q36 0 63.5 -3.5t49 -9.5t37.5 -12.5t29 -12.5v-77q-37 23 -82 33t-97 10q-87 0 -121.5 -25t-34.5 -67q0 -26 12.5 -44t33 -30t47 -19.5t55.5 -12.5q40 -8 80 -19.5t71.5 -32t51.5 -51.5
t20 -77q0 -108 -123 -146q89 -46 89 -140zM307 172q66 0 103.5 26t37.5 74q0 96 -161 96q-77 0 -116.5 -23.5t-39.5 -71.5q0 -29 15.5 -48.5t41 -31t56.5 -16.5t63 -5z" />
    <glyph glyph-name="dieresis" unicode="&#xa8;" horiz-adv-x="451" 
d="M122 595q-25 0 -41 16.5t-16 39.5q0 25 16 41t41 16q26 0 41.5 -16t15.5 -41q0 -23 -15.5 -39.5t-41.5 -16.5zM328 595q-26 0 -41.5 16.5t-15.5 39.5q0 25 15.5 41t41.5 16t41.5 -16t15.5 -41q0 -23 -15.5 -39.5t-41.5 -16.5z" />
    <glyph glyph-name="copyright" unicode="&#xa9;" horiz-adv-x="902" 
d="M451 -96q-87 0 -162 30.5t-130.5 85.5t-87 131t-31.5 166q0 89 31.5 164t87 129.5t130.5 85t162 30.5t162.5 -30.5t130.5 -85t86.5 -129.5t31.5 -164q0 -90 -31.5 -166t-86.5 -131t-130.5 -85.5t-162.5 -30.5zM451 -34q76 0 139.5 26t109 73t70.5 111t25 141
q0 75 -25 139t-70.5 110.5t-109 72.5t-139.5 26t-139.5 -26t-109 -72.5t-70.5 -110.5t-25 -139q0 -77 25 -141t70.5 -111t109 -73t139.5 -26zM473 100q-98 0 -156 57t-58 158q0 102 55 158t158 56q38 0 68 -8t47 -20v-71q-23 16 -53.5 23t-62.5 7q-132 0 -132 -145
q0 -74 35 -110t103 -36q30 0 57.5 8t52.5 28v-72q-15 -12 -44 -22.5t-70 -10.5z" />
    <glyph glyph-name="ordfeminine" unicode="&#xaa;" horiz-adv-x="459" 
d="M325 408q-8 -16 -20 -33t-30 -30.5t-42.5 -22t-57.5 -8.5q-60 0 -98 34.5t-38 98.5q0 74 52 108.5t149 34.5h82v36q0 47 -24 66t-81 19q-43 0 -81 -13t-67 -30v71q24 15 65.5 29.5t92.5 14.5q85 0 130 -36t45 -110v-242q0 -7 0.5 -17l1 -20t1 -19.5t1.5 -15.5h-73
q-2 12 -4.5 34t-2.5 38zM194 384q35 0 59.5 14.5t39.5 34t22 38t7 26.5v32h-75q-67 0 -97.5 -19.5t-30.5 -57.5q0 -31 18.5 -49.5t56.5 -18.5z" />
    <glyph glyph-name="guillemotleft" unicode="&#xab;" horiz-adv-x="510" 
d="M348 264l127 -195h-92l-128 195l128 195h92zM138 264l127 -195h-93l-127 195l127 195h93z" />
    <glyph glyph-name="logicalnot" unicode="&#xac;" horiz-adv-x="588" 
d="M533 372v-270h-82v200h-400v70h482z" />
    <glyph glyph-name="registered" unicode="&#xae;" horiz-adv-x="902" 
d="M451 -96q-87 0 -162 30.5t-130.5 85.5t-87 131t-31.5 166q0 89 31.5 164t87 129.5t130.5 85t162 30.5t162.5 -30.5t130.5 -85t86.5 -129.5t31.5 -164q0 -90 -31.5 -166t-86.5 -131t-130.5 -85.5t-162.5 -30.5zM451 -34q76 0 139.5 26t109 73t70.5 111t25 141
q0 75 -25 139t-70.5 110.5t-109 72.5t-139.5 26t-139.5 -26t-109 -72.5t-70.5 -110.5t-25 -139q0 -77 25 -141t70.5 -111t109 -73t139.5 -26zM305 524h146q79 0 120.5 -30t41.5 -96q0 -51 -22 -81t-60 -44l98 -166h-88l-88 151h-69v-151h-79v417zM384 454v-126h64
q40 0 62.5 14.5t22.5 51.5q0 34 -21.5 47t-60.5 13h-67z" />
    <glyph glyph-name="macron" unicode="&#xaf;" horiz-adv-x="451" 
d="M80 687h290v-70h-290v70z" />
    <glyph glyph-name="degree" unicode="&#xb0;" horiz-adv-x="504" 
d="M252 362q-39 0 -72.5 13.5t-58 38t-38 58t-13.5 72.5q0 40 13.5 73.5t38 57.5t58 37.5t72.5 13.5t72.5 -13.5t58 -37.5t38 -57.5t13.5 -73.5q0 -39 -13.5 -72.5t-38 -58t-58 -38t-72.5 -13.5zM252 423q53 0 84 33t31 88t-31 88t-84 33t-84 -33t-31 -88t31 -88t84 -33z
" />
    <glyph glyph-name="plusminus" unicode="&#xb1;" 
d="M316 302v-172h-83v172h-200v70h200v211h83v-211h200v-70h-200zM33 0v70h483v-70h-483z" />
    <glyph glyph-name="twosuperior" unicode="&#xb2;" horiz-adv-x="395" 
d="M340 325h-305v76q59 43 100 77.5t67 63t38 53.5t12 49q0 35 -21 54t-55 19q-42 0 -73 -14.5t-56 -32.5v65q23 18 56.5 32.5t88.5 14.5q63 0 103 -35.5t40 -103.5q0 -60 -53.5 -119t-160.5 -131h219v-68z" />
    <glyph glyph-name="threesuperior" unicode="&#xb3;" horiz-adv-x="386" 
d="M330 453q0 -60 -45 -97t-127 -37q-45 0 -77 11t-52 25v70q18 -14 49 -27.5t80 -13.5q87 0 87 74q0 33 -20.5 51t-64.5 18h-60v67h63q30 0 49 16t19 48q0 28 -18 44t-53 16q-38 0 -70 -11.5t-55 -28.5v70q22 14 55.5 24t75.5 10q69 0 107 -32.5t38 -86.5q0 -43 -21.5 -68
t-52.5 -31q38 -8 65.5 -35t27.5 -76z" />
    <glyph glyph-name="acute" unicode="&#xb4;" horiz-adv-x="451" 
d="M231 746h115l-131 -158h-75z" />
    <glyph glyph-name="paragraph" unicode="&#xb6;" horiz-adv-x="635" 
d="M40 497q0 109 64.5 164.5t182.5 55.5h120v-904h-85v466h-27q-57 0 -103.5 14t-80.5 41t-52.5 68t-18.5 95zM552 -187h-85v904h85v-904z" />
    <glyph glyph-name="periodcentered" unicode="&#xb7;" horiz-adv-x="234" 
d="M118 240q-29 0 -47 18.5t-18 44.5q0 28 18 46t47 18q28 0 46 -18t18 -46q0 -26 -18 -44.5t-46 -18.5z" />
    <glyph glyph-name="cedilla" unicode="&#xb8;" horiz-adv-x="451" 
d="M286 20l-59 -207h-110l94 207h75z" />
    <glyph glyph-name="onesuperior" unicode="&#xb9;" horiz-adv-x="313" 
d="M233 325h-82v361l-100 -93v80l111 103h71v-451z" />
    <glyph glyph-name="ordmasculine" unicode="&#xba;" horiz-adv-x="498" 
d="M248 314q-47 0 -86.5 15.5t-69 45.5t-46 74t-16.5 101q0 55 16.5 98.5t46 73.5t69 45.5t86.5 15.5t87 -15.5t69.5 -45.5t46.5 -73.5t17 -98.5q0 -57 -17 -101t-46.5 -74t-69.5 -45.5t-87 -15.5zM248 385q30 0 55 10t43.5 30t29 51.5t10.5 73.5t-10.5 72t-29 50
t-43.5 29.5t-55 9.5q-59 0 -97.5 -39t-38.5 -122q0 -85 38.5 -125t97.5 -40z" />
    <glyph glyph-name="guillemotright" unicode="&#xbb;" horiz-adv-x="510" 
d="M338 69h-93l127 195l-127 195h93l127 -195zM128 69h-93l127 195l-127 195h93l127 -195z" />
    <glyph glyph-name="onequarter" unicode="&#xbc;" horiz-adv-x="937" 
d="M243 265h-82v361l-100 -93v80l111 103h71v-451zM134 0l560 717h80l-559 -717h-81zM827 101v-100h-80v100h-217v59l209 292h88v-286h65v-65h-65zM747 166v195l-138 -195h138z" />
    <glyph glyph-name="onehalf" unicode="&#xbd;" horiz-adv-x="989" 
d="M134 0l560 717h80l-559 -717h-81zM934 1h-305v76q59 43 100 77.5t67 63t38 53.5t12 49q0 35 -21 54t-55 19q-42 0 -73 -14.5t-56 -32.5v65q23 18 56.5 32.5t88.5 14.5q63 0 103 -35.5t40 -103.5q0 -60 -53.5 -119t-160.5 -131h219v-68zM243 265h-82v361l-100 -93v80
l111 103h71v-451z" />
    <glyph glyph-name="threequarters" unicode="&#xbe;" horiz-adv-x="991" 
d="M340 393q0 -60 -45 -97t-127 -37q-45 0 -77 11t-52 25v70q18 -14 49 -27.5t80 -13.5q87 0 87 74q0 33 -20.5 51t-64.5 18h-60v67h63q30 0 49 16t19 48q0 28 -18 44t-53 16q-38 0 -70 -11.5t-55 -28.5v70q22 14 55.5 24t75.5 10q69 0 107 -32.5t38 -86.5q0 -43 -21.5 -68
t-52.5 -31q38 -8 65.5 -35t27.5 -76zM187 0l560 717h80l-559 -717h-81zM881 101v-100h-80v100h-217v59l209 292h88v-286h65v-65h-65zM801 166v195l-138 -195h138z" />
    <glyph glyph-name="questiondown" unicode="&#xbf;" horiz-adv-x="470" 
d="M40.0273 3.03125q0 53.9971 17.998 89.9951q17.999 35.998 44.498 60.4961q26.498 24.499 57.4961 41.4971q30.998 16.999 57.4961 33.498q26.499 16.499 44.498 36.498q17.998 19.999 17.998 48.9971v17.999h74.9961v-16.999q0 -47.9971 -16.499 -77.9951
t-41.998 -50.4971q-25.498 -20.499 -54.4961 -35.998t-54.4971 -34.498q-25.498 -18.998 -41.9971 -45.4971q-16.499 -26.498 -16.499 -68.4951q0 -23.999 5.5 -46.4971q5.49902 -22.499 21.498 -39.998t45.4971 -28.498q29.499 -11 76.4961 -11q58.9961 0 93.9941 13
q34.998 12.999 52.9961 24.998v-78.9951q-23.998 -12.999 -59.9961 -25.498q-35.998 -12.5 -95.9941 -12.5t-103.493 15.999q-43.498 15.999 -70.9961 43.998q-27.498 27.998 -40.9971 65.4961q-13.499 37.4971 -13.499 80.4941zM314.01 529q26.999 0 44.498 -17.499
q17.498 -17.499 17.498 -43.498q0 -25.998 -17.498 -43.9971q-17.499 -17.999 -44.498 -17.999q-26.998 0 -44.4971 17.999t-17.499 43.9971q0 25.999 17.499 43.498t44.4971 17.499z" />
    <glyph glyph-name="Agrave" unicode="&#xc0;" horiz-adv-x="692" 
d="M275 717h140l257 -717h-100l-74 205h-317l-73 -205h-88zM468 290l-128 357l-128 -357h256zM309 773l-136 136h125l96 -136h-85z" />
    <glyph glyph-name="Aacute" unicode="&#xc1;" horiz-adv-x="692" 
d="M275 717h140l257 -717h-100l-74 205h-317l-73 -205h-88zM468 290l-128 357l-128 -357h256zM388 909h125l-136 -136h-85z" />
    <glyph glyph-name="Acircumflex" unicode="&#xc2;" horiz-adv-x="692" 
d="M275 717h140l257 -717h-100l-74 205h-317l-73 -205h-88zM468 290l-128 357l-128 -357h256zM339 848l-80 -85h-75l105 148h100l105 -148h-75z" />
    <glyph glyph-name="Atilde" unicode="&#xc3;" horiz-adv-x="692" 
d="M275 717h140l257 -717h-100l-74 205h-317l-73 -205h-88zM468 290l-128 357l-128 -357h256zM167 784q-4 25 0 49t16 43t32 30.5t50 11.5q26 0 46.5 -8.5t37.5 -19t31.5 -19t29.5 -8.5q41 0 38 59h63q4 -25 0 -49t-16 -43t-32.5 -30.5t-49.5 -11.5q-26 0 -46 8.5t-37 19
t-32 19t-30 8.5q-41 0 -37 -59h-64v0z" />
    <glyph glyph-name="Adieresis" unicode="&#xc4;" horiz-adv-x="692" 
d="M275 717h140l257 -717h-100l-74 205h-317l-73 -205h-88zM468 290l-128 357l-128 -357h256zM233 786q-26 0 -41.5 16.5t-15.5 39.5q0 24 15.5 40.5t41.5 16.5t41 -16.5t15 -40.5q0 -23 -15 -39.5t-41 -16.5zM448 786q-26 0 -42 16.5t-16 39.5q0 24 16 40.5t42 16.5
t41.5 -16.5t15.5 -40.5q0 -23 -15.5 -39.5t-41.5 -16.5z" />
    <glyph glyph-name="Aring" unicode="&#xc5;" horiz-adv-x="692" 
d="M275 717h140l257 -717h-100l-74 205h-317l-73 -205h-88zM468 290l-128 357l-128 -357h256zM346 756q-48 0 -79.5 30.5t-31.5 78.5t31.5 78.5t79.5 30.5t79.5 -30.5t31.5 -78.5t-31.5 -78.5t-79.5 -30.5zM346 811q23 0 38.5 15t15.5 39t-15.5 39.5t-38.5 15.5t-38 -15.5
t-15 -39.5t15 -39t38 -15z" />
    <glyph glyph-name="AE" unicode="&#xc6;" horiz-adv-x="994" 
d="M929 0h-450v245h-233l-132 -245h-94l385 717h519v-86h-350v-217h297v-85h-297v-244h355v-85zM479 330v346l-187 -346h187z" />
    <glyph glyph-name="Ccedilla" unicode="&#xc7;" horiz-adv-x="671" 
d="M404 -10q-80 0 -145 25t-111.5 72.5t-71.5 116t-25 154.5q0 87 23 155t68 115.5t110.5 72.5t149.5 25q73 0 128 -15.5t90 -36.5v-90q-45 29 -103.5 43t-115.5 14q-127 0 -187.5 -70.5t-60.5 -212.5q0 -143 65.5 -213t193.5 -70q55 0 107.5 15t100.5 51v-90
q-29 -23 -84.5 -42t-131.5 -19zM421 20l-59 -207h-110l94 207h75z" />
    <glyph glyph-name="Egrave" unicode="&#xc8;" horiz-adv-x="598" 
d="M84 717h444v-86h-350v-217h297v-85h-297v-244h355v-85h-449v717zM293 773l-136 136h125l96 -136h-85z" />
    <glyph glyph-name="Eacute" unicode="&#xc9;" horiz-adv-x="598" 
d="M84 717h444v-86h-350v-217h297v-85h-297v-244h355v-85h-449v717zM336 909h125l-136 -136h-85z" />
    <glyph glyph-name="Ecircumflex" unicode="&#xca;" horiz-adv-x="598" 
d="M84 717h444v-86h-350v-217h297v-85h-297v-244h355v-85h-449v717zM306 848l-80 -85h-75l105 148h100l105 -148h-75z" />
    <glyph glyph-name="Edieresis" unicode="&#xcb;" horiz-adv-x="598" 
d="M84 717h444v-86h-350v-217h297v-85h-297v-244h355v-85h-449v717zM199 786q-26 0 -41.5 16.5t-15.5 39.5q0 24 15.5 40.5t41.5 16.5t41 -16.5t15 -40.5q0 -23 -15 -39.5t-41 -16.5zM414 786q-26 0 -42 16.5t-16 39.5q0 24 16 40.5t42 16.5t41.5 -16.5t15.5 -40.5
q0 -23 -15.5 -39.5t-41.5 -16.5z" />
    <glyph glyph-name="Igrave" unicode="&#xcc;" horiz-adv-x="261" 
d="M178 717v-717h-94v717h94zM86 773l-136 136h125l96 -136h-85z" />
    <glyph glyph-name="Iacute" unicode="&#xcd;" horiz-adv-x="261" 
d="M178 717v-717h-94v717h94zM184 909h125l-136 -136h-85z" />
    <glyph glyph-name="Icircumflex" unicode="&#xce;" horiz-adv-x="261" 
d="M178 717v-717h-94v717h94zM129 848l-80 -85h-75l105 148h100l105 -148h-75z" />
    <glyph glyph-name="Idieresis" unicode="&#xcf;" horiz-adv-x="261" 
d="M178 717v-717h-94v717h94zM22 786q-26 0 -41.5 16.5t-15.5 39.5q0 24 15.5 40.5t41.5 16.5t41 -16.5t15 -40.5q0 -23 -15 -39.5t-41 -16.5zM237 786q-26 0 -42 16.5t-16 39.5q0 24 16 40.5t42 16.5t41.5 -16.5t15.5 -40.5q0 -23 -15.5 -39.5t-41.5 -16.5z" />
    <glyph glyph-name="Eth" unicode="&#xd0;" horiz-adv-x="723" 
d="M100 404v313h242q72 0 134.5 -17t108 -56t72 -103t26.5 -158q0 -95 -26.5 -166.5t-73.5 -119.5t-111.5 -72.5t-140.5 -24.5h-231v329h-90v75h90zM195 329v-244h136q55 0 101 17t79 52.5t51 90.5t18 131q0 75 -18 124.5t-49.5 78.5t-75.5 40.5t-95 11.5h-147v-227h212v-75
h-212z" />
    <glyph glyph-name="Ntilde" unicode="&#xd1;" horiz-adv-x="743" 
d="M661 0h-128l-360 602v-602h-89v717h127l360 -602v602h90v-717zM207 784q-4 25 0 49t16 43t32 30.5t50 11.5q26 0 46.5 -8.5t37.5 -19t31.5 -19t29.5 -8.5q41 0 38 59h63q4 -25 0 -49t-16 -43t-32.5 -30.5t-49.5 -11.5q-26 0 -46 8.5t-37 19t-32 19t-30 8.5q-41 0 -37 -59
h-64v0z" />
    <glyph glyph-name="Ograve" unicode="&#xd2;" horiz-adv-x="770" 
d="M385 -10q-72 0 -135 24.5t-109 71.5t-72.5 116t-26.5 159t26.5 158.5t72.5 114t109 69t135 23.5q73 0 136 -23.5t109 -69.5t72 -114.5t26 -158.5q0 -89 -26 -158t-72 -116t-109 -71.5t-136 -24.5zM385 75q52 0 96 15.5t76.5 49t51 87.5t18.5 131t-18.5 131t-51 87.5
t-76.5 49t-96 15.5t-96 -15.5t-76.5 -49t-51 -87.5t-18.5 -131t18.5 -131t51 -87.5t76.5 -49t96 -15.5zM370 773l-136 136h125l96 -136h-85z" />
    <glyph glyph-name="Oacute" unicode="&#xd3;" horiz-adv-x="770" 
d="M385 -10q-72 0 -135 24.5t-109 71.5t-72.5 116t-26.5 159t26.5 158.5t72.5 114t109 69t135 23.5q73 0 136 -23.5t109 -69.5t72 -114.5t26 -158.5q0 -89 -26 -158t-72 -116t-109 -71.5t-136 -24.5zM385 75q52 0 96 15.5t76.5 49t51 87.5t18.5 131t-18.5 131t-51 87.5
t-76.5 49t-96 15.5t-96 -15.5t-76.5 -49t-51 -87.5t-18.5 -131t18.5 -131t51 -87.5t76.5 -49t96 -15.5zM422 909h125l-136 -136h-85z" />
    <glyph glyph-name="Ocircumflex" unicode="&#xd4;" horiz-adv-x="770" 
d="M385 -10q-72 0 -135 24.5t-109 71.5t-72.5 116t-26.5 159t26.5 158.5t72.5 114t109 69t135 23.5q73 0 136 -23.5t109 -69.5t72 -114.5t26 -158.5q0 -89 -26 -158t-72 -116t-109 -71.5t-136 -24.5zM385 75q52 0 96 15.5t76.5 49t51 87.5t18.5 131t-18.5 131t-51 87.5
t-76.5 49t-96 15.5t-96 -15.5t-76.5 -49t-51 -87.5t-18.5 -131t18.5 -131t51 -87.5t76.5 -49t96 -15.5zM385 848l-80 -85h-75l105 148h100l105 -148h-75z" />
    <glyph glyph-name="Otilde" unicode="&#xd5;" horiz-adv-x="770" 
d="M385 -10q-72 0 -135 24.5t-109 71.5t-72.5 116t-26.5 159t26.5 158.5t72.5 114t109 69t135 23.5q73 0 136 -23.5t109 -69.5t72 -114.5t26 -158.5q0 -89 -26 -158t-72 -116t-109 -71.5t-136 -24.5zM385 75q52 0 96 15.5t76.5 49t51 87.5t18.5 131t-18.5 131t-51 87.5
t-76.5 49t-96 15.5t-96 -15.5t-76.5 -49t-51 -87.5t-18.5 -131t18.5 -131t51 -87.5t76.5 -49t96 -15.5zM213 784q-4 25 0 49t16 43t32 30.5t50 11.5q26 0 46.5 -8.5t37.5 -19t31.5 -19t29.5 -8.5q41 0 38 59h63q4 -25 0 -49t-16 -43t-32.5 -30.5t-49.5 -11.5q-26 0 -46 8.5
t-37 19t-32 19t-30 8.5q-41 0 -37 -59h-64v0z" />
    <glyph glyph-name="Odieresis" unicode="&#xd6;" horiz-adv-x="770" 
d="M385 -10q-72 0 -135 24.5t-109 71.5t-72.5 116t-26.5 159t26.5 158.5t72.5 114t109 69t135 23.5q73 0 136 -23.5t109 -69.5t72 -114.5t26 -158.5q0 -89 -26 -158t-72 -116t-109 -71.5t-136 -24.5zM385 75q52 0 96 15.5t76.5 49t51 87.5t18.5 131t-18.5 131t-51 87.5
t-76.5 49t-96 15.5t-96 -15.5t-76.5 -49t-51 -87.5t-18.5 -131t18.5 -131t51 -87.5t76.5 -49t96 -15.5zM278 786q-26 0 -41.5 16.5t-15.5 39.5q0 24 15.5 40.5t41.5 16.5t41 -16.5t15 -40.5q0 -23 -15 -39.5t-41 -16.5zM493 786q-26 0 -42 16.5t-16 39.5q0 24 16 40.5
t42 16.5t41.5 -16.5t15.5 -40.5q0 -23 -15.5 -39.5t-41.5 -16.5z" />
    <glyph glyph-name="multiply" unicode="&#xd7;" 
d="M451 111l-177 177l-177 -177l-53 53l177 177l-173 173l53 53l173 -173l173 173l53 -53l-173 -173l177 -177z" />
    <glyph glyph-name="Oslash" unicode="&#xd8;" horiz-adv-x="770" 
d="M385 -10q-72 0 -135 24l-11 4l-50 -88h-90l72 128q-16 13 -30 28q-46 47 -72.5 116t-26.5 159t26.5 158.5t72.5 114t109 69t135 23.5q73 0 136 -24l12 -4l50 88h89l-72 -127q16 -12 30 -26q46 -46 72 -114.5t26 -158.5q0 -89 -26 -158t-72 -116t-109 -71.5t-136 -24.5z
M481 625q-44 16 -96 16t-96 -15.5t-76.5 -49t-51 -87.5t-18.5 -131t18.5 -131t50.5 -88l3 -3l275 486q-5 2 -9 3zM385 75q52 0 96 15.5t76.5 49t51 87.5t18.5 131t-18.5 131t-51.5 87q-1 2 -2 3l-274 -486q4 -1 8 -3q44 -15 96 -15z" />
    <glyph glyph-name="Ugrave" unicode="&#xd9;" horiz-adv-x="692" 
d="M67 717h95v-472q0 -87 49.5 -129t135.5 -42q42 0 77.5 10.5t61.5 32t40.5 53.5t14.5 75v472h90v-469q0 -62 -22 -110t-60.5 -81t-90.5 -50t-113 -17q-59 0 -110 16t-88.5 48t-58.5 79.5t-21 110.5v473zM322 773l-136 136h125l96 -136h-85z" />
    <glyph glyph-name="Uacute" unicode="&#xda;" horiz-adv-x="692" 
d="M67 717h95v-472q0 -87 49.5 -129t135.5 -42q42 0 77.5 10.5t61.5 32t40.5 53.5t14.5 75v472h90v-469q0 -62 -22 -110t-60.5 -81t-90.5 -50t-113 -17q-59 0 -110 16t-88.5 48t-58.5 79.5t-21 110.5v473zM402 909h125l-136 -136h-85z" />
    <glyph glyph-name="Ucircumflex" unicode="&#xdb;" horiz-adv-x="692" 
d="M67 717h95v-472q0 -87 49.5 -129t135.5 -42q42 0 77.5 10.5t61.5 32t40.5 53.5t14.5 75v472h90v-469q0 -62 -22 -110t-60.5 -81t-90.5 -50t-113 -17q-59 0 -110 16t-88.5 48t-58.5 79.5t-21 110.5v473zM352 848l-80 -85h-75l105 148h100l105 -148h-75z" />
    <glyph glyph-name="Udieresis" unicode="&#xdc;" horiz-adv-x="692" 
d="M67 717h95v-472q0 -87 49.5 -129t135.5 -42q42 0 77.5 10.5t61.5 32t40.5 53.5t14.5 75v472h90v-469q0 -62 -22 -110t-60.5 -81t-90.5 -50t-113 -17q-59 0 -110 16t-88.5 48t-58.5 79.5t-21 110.5v473zM247 786q-26 0 -41.5 16.5t-15.5 39.5q0 24 15.5 40.5t41.5 16.5
t41 -16.5t15 -40.5q0 -23 -15 -39.5t-41 -16.5zM462 786q-26 0 -42 16.5t-16 39.5q0 24 16 40.5t42 16.5t41.5 -16.5t15.5 -40.5q0 -23 -15.5 -39.5t-41.5 -16.5z" />
    <glyph glyph-name="Yacute" unicode="&#xdd;" horiz-adv-x="624" 
d="M361 311v-311h-96v308l-245 409h108l188 -326l192 326h96zM366 909h125l-136 -136h-85z" />
    <glyph glyph-name="Thorn" unicode="&#xde;" horiz-adv-x="610" 
d="M178 145v-145h-94v717h94v-147h135q120 0 188.5 -46.5t68.5 -149.5q0 -60 -19.5 -103t-54.5 -71t-83.5 -41.5t-107.5 -13.5h-127zM178 485v-255h127q38 0 69 7.5t53.5 24t35 42.5t12.5 64q0 62 -42 89.5t-120 27.5h-135z" />
    <glyph glyph-name="germandbls" unicode="&#xdf;" horiz-adv-x="608" 
d="M584 142q0 -44 -16 -73.5t-42.5 -47t-60.5 -24.5t-69 -7q-45 0 -77 9t-52 20v78q23 -14 54.5 -23.5t69.5 -9.5q51 0 77.5 20.5t26.5 56.5q0 27 -16.5 43t-41 27t-53 20t-53 23t-41 37t-16.5 61q0 29 10.5 48t26 32.5t33.5 24t33.5 23t26 29.5t10.5 44q0 25 -9.5 42.5
t-26 29t-38 17t-45.5 5.5q-68 0 -101.5 -41.5t-33.5 -120.5v-485h-88v485q0 111 57.5 176t165.5 65q48 0 86 -12.5t64.5 -35t41 -54t14.5 -69.5q0 -33 -10.5 -56t-26 -39t-33.5 -27.5t-33.5 -22.5t-26 -23t-10.5 -29q0 -22 16.5 -34t41.5 -21.5t53.5 -19.5t53.5 -26.5
t41.5 -43.5t16.5 -71z" />
    <glyph glyph-name="agrave" unicode="&#xe0;" horiz-adv-x="526" 
d="M376 99q-9 -18 -23 -37.5t-35 -35.5t-49.5 -26t-66.5 -10q-70 0 -113 39.5t-43 113.5q0 85 59.5 125t169.5 40h97v43q0 54 -28 77t-96 23q-48 0 -91 -15.5t-77 -35.5v79q28 17 75.5 33.5t104.5 16.5q98 0 149 -40.5t51 -125.5v-279q0 -9 0.5 -20.5t1 -23.5t1.5 -22.5
t2 -17.5h-80q-3 14 -5.5 39.5t-2.5 44.5zM221 69q41 0 70 17t47 39.5t26 44t8 30.5v38h-88q-79 0 -114.5 -22.5t-35.5 -67.5q0 -35 21 -57t66 -22zM234 588l-131 158h115l91 -158h-75z" />
    <glyph glyph-name="aacute" unicode="&#xe1;" horiz-adv-x="526" 
d="M376 99q-9 -18 -23 -37.5t-35 -35.5t-49.5 -26t-66.5 -10q-70 0 -113 39.5t-43 113.5q0 85 59.5 125t169.5 40h97v43q0 54 -28 77t-96 23q-48 0 -91 -15.5t-77 -35.5v79q28 17 75.5 33.5t104.5 16.5q98 0 149 -40.5t51 -125.5v-279q0 -9 0.5 -20.5t1 -23.5t1.5 -22.5
t2 -17.5h-80q-3 14 -5.5 39.5t-2.5 44.5zM221 69q41 0 70 17t47 39.5t26 44t8 30.5v38h-88q-79 0 -114.5 -22.5t-35.5 -67.5q0 -35 21 -57t66 -22zM310 746h115l-131 -158h-75z" />
    <glyph glyph-name="acircumflex" unicode="&#xe2;" horiz-adv-x="526" 
d="M376 99q-9 -18 -23 -37.5t-35 -35.5t-49.5 -26t-66.5 -10q-70 0 -113 39.5t-43 113.5q0 85 59.5 125t169.5 40h97v43q0 54 -28 77t-96 23q-48 0 -91 -15.5t-77 -35.5v79q28 17 75.5 33.5t104.5 16.5q98 0 149 -40.5t51 -125.5v-279q0 -9 0.5 -20.5t1 -23.5t1.5 -22.5
t2 -17.5h-80q-3 14 -5.5 39.5t-2.5 44.5zM221 69q41 0 70 17t47 39.5t26 44t8 30.5v38h-88q-79 0 -114.5 -22.5t-35.5 -67.5q0 -35 21 -57t66 -22zM264 673l-80 -85h-75l105 148h100l105 -148h-75z" />
    <glyph glyph-name="atilde" unicode="&#xe3;" horiz-adv-x="526" 
d="M376 99q-9 -18 -23 -37.5t-35 -35.5t-49.5 -26t-66.5 -10q-70 0 -113 39.5t-43 113.5q0 85 59.5 125t169.5 40h97v43q0 54 -28 77t-96 23q-48 0 -91 -15.5t-77 -35.5v79q28 17 75.5 33.5t104.5 16.5q98 0 149 -40.5t51 -125.5v-279q0 -9 0.5 -20.5t1 -23.5t1.5 -22.5
t2 -17.5h-80q-3 14 -5.5 39.5t-2.5 44.5zM221 69q41 0 70 17t47 39.5t26 44t8 30.5v38h-88q-79 0 -114.5 -22.5t-35.5 -67.5q0 -35 21 -57t66 -22zM101 598q-3 22 0.5 44t14.5 38.5t30 27t47 10.5q24 0 43 -6.5t35 -14t29.5 -14t27.5 -6.5q37 0 34 45h63q3 -23 -0.5 -44.5
t-15 -38t-30.5 -27t-46 -10.5q-24 0 -43 6.5t-35 14t-30 14t-27 6.5q-37 0 -34 -45h-63v0z" />
    <glyph glyph-name="adieresis" unicode="&#xe4;" horiz-adv-x="526" 
d="M376 99q-9 -18 -23 -37.5t-35 -35.5t-49.5 -26t-66.5 -10q-70 0 -113 39.5t-43 113.5q0 85 59.5 125t169.5 40h97v43q0 54 -28 77t-96 23q-48 0 -91 -15.5t-77 -35.5v79q28 17 75.5 33.5t104.5 16.5q98 0 149 -40.5t51 -125.5v-279q0 -9 0.5 -20.5t1 -23.5t1.5 -22.5
t2 -17.5h-80q-3 14 -5.5 39.5t-2.5 44.5zM221 69q41 0 70 17t47 39.5t26 44t8 30.5v38h-88q-79 0 -114.5 -22.5t-35.5 -67.5q0 -35 21 -57t66 -22zM157 595q-25 0 -41 16.5t-16 39.5q0 25 16 41t41 16q26 0 41.5 -16t15.5 -41q0 -23 -15.5 -39.5t-41.5 -16.5zM363 595
q-26 0 -41.5 16.5t-15.5 39.5q0 25 15.5 41t41.5 16t41.5 -16t15.5 -41q0 -23 -15.5 -39.5t-41.5 -16.5z" />
    <glyph glyph-name="aring" unicode="&#xe5;" horiz-adv-x="526" 
d="M383 99q-9 -18 -23 -37.5t-35 -35.5t-49.5 -26t-66.5 -10q-70 0 -113 39.5t-43 113.5q0 85 59.5 125t169.5 40h97v43q0 54 -28 77t-96 23q-48 0 -91 -15.5t-77 -35.5v79q28 17 75.5 33.5t104.5 16.5q98 0 149 -40.5t51 -125.5v-279q0 -9 0.5 -20.5t1 -23.5t1.5 -22.5
t2 -17.5h-80q-3 14 -5.5 39.5t-2.5 44.5zM228 69q41 0 70 17t47 39.5t26 44t8 30.5v38h-88q-79 0 -114.5 -22.5t-35.5 -67.5q0 -35 21 -57t66 -22zM263 571q-48 0 -79.5 30.5t-31.5 78.5t31.5 78.5t79.5 30.5t79.5 -30.5t31.5 -78.5t-31.5 -78.5t-79.5 -30.5zM263 626
q23 0 38.5 15t15.5 39t-15.5 39.5t-38.5 15.5t-38 -15.5t-15 -39.5t15 -39t38 -15z" />
    <glyph glyph-name="ae" unicode="&#xe6;" horiz-adv-x="864" 
d="M812 44q-10 -8 -25 -17t-36.5 -17.5t-50 -14t-65.5 -5.5q-86 0 -141.5 33t-82.5 95q-7 -19 -21.5 -41t-38.5 -41.5t-58.5 -32.5t-81.5 -13q-77 0 -121 39.5t-44 113.5q0 85 59.5 125t169.5 40h102v43q0 52 -29 76t-90 24q-54 0 -98.5 -15.5t-79.5 -35.5v79
q28 17 76.5 33.5t113.5 16.5q62 0 105.5 -21t63.5 -65q58 86 175 86q54 0 97 -19t70.5 -56t37.5 -91.5t0 -126.5h-352q11 -167 176 -167q60 0 100.5 17t68.5 37v-79zM614 451q-56 0 -94.5 -35t-49.5 -106h265q2 36 -6.5 62.5t-24.5 44t-39 26t-51 8.5zM223 69q42 0 71.5 17
t47.5 39.5t26.5 44t8.5 30.5v38h-93q-79 0 -114.5 -22.5t-35.5 -67.5q0 -35 21.5 -57t67.5 -22z" />
    <glyph glyph-name="ccedilla" unicode="&#xe7;" horiz-adv-x="489" 
d="M296 -10q-60 0 -108.5 18.5t-82.5 53t-52 84.5t-18 114q0 63 18.5 113t52.5 84.5t83 53t111 18.5q48 0 88 -10.5t66 -30.5v-79q-32 21 -71.5 31.5t-81.5 10.5q-91 0 -133.5 -47t-42.5 -144t41 -144t130 -47q47 0 86.5 11.5t71.5 29.5v-79q-28 -17 -67.5 -29t-90.5 -12z
M329 20l-59 -207h-110l94 207h75z" />
    <glyph glyph-name="egrave" unicode="&#xe8;" horiz-adv-x="530" 
d="M485 44q-11 -8 -27 -17t-39 -17.5t-52 -14t-65 -5.5q-131 0 -199 71t-68 199q0 63 18.5 113t51.5 84.5t78 53t98 18.5q56 0 100 -19t72.5 -56t39 -91.5t-0.5 -126.5h-366q5 -84 50 -125.5t134 -41.5q60 0 103 17t72 37v-79zM279 451q-57 0 -98 -35t-52 -106h279
q4 72 -33 106.5t-96 34.5zM251 588l-131 158h115l91 -158h-75z" />
    <glyph glyph-name="eacute" unicode="&#xe9;" horiz-adv-x="530" 
d="M484 44q-11 -8 -27 -17t-39 -17.5t-52 -14t-65 -5.5q-131 0 -199 71t-68 199q0 63 18.5 113t51.5 84.5t78 53t98 18.5q56 0 100 -19t72.5 -56t39 -91.5t-0.5 -126.5h-366q5 -84 50 -125.5t134 -41.5q60 0 103 17t72 37v-79zM278 451q-57 0 -98 -35t-52 -106h279
q4 72 -33 106.5t-96 34.5zM294 746h115l-131 -158h-75z" />
    <glyph glyph-name="ecircumflex" unicode="&#xea;" horiz-adv-x="530" 
d="M485 44q-11 -8 -27 -17t-39 -17.5t-52 -14t-65 -5.5q-131 0 -199 71t-68 199q0 63 18.5 113t51.5 84.5t78 53t98 18.5q56 0 100 -19t72.5 -56t39 -91.5t-0.5 -126.5h-366q5 -84 50 -125.5t134 -41.5q60 0 103 17t72 37v-79zM279 451q-57 0 -98 -35t-52 -106h279
q4 72 -33 106.5t-96 34.5zM271 673l-80 -85h-75l105 148h100l105 -148h-75z" />
    <glyph glyph-name="edieresis" unicode="&#xeb;" horiz-adv-x="530" 
d="M485 44q-11 -8 -27 -17t-39 -17.5t-52 -14t-65 -5.5q-131 0 -199 71t-68 199q0 63 18.5 113t51.5 84.5t78 53t98 18.5q56 0 100 -19t72.5 -56t39 -91.5t-0.5 -126.5h-366q5 -84 50 -125.5t134 -41.5q60 0 103 17t72 37v-79zM279 451q-57 0 -98 -35t-52 -106h279
q4 72 -33 106.5t-96 34.5zM173 595q-25 0 -41 16.5t-16 39.5q0 25 16 41t41 16q26 0 41.5 -16t15.5 -41q0 -23 -15.5 -39.5t-41.5 -16.5zM379 595q-26 0 -41.5 16.5t-15.5 39.5q0 25 15.5 41t41.5 16t41.5 -16t15.5 -41q0 -23 -15.5 -39.5t-41.5 -16.5z" />
    <glyph glyph-name="igrave" unicode="&#xec;" horiz-adv-x="231" 
d="M160 519v-519h-88v519h88zM81 588l-131 158h115l91 -158h-75z" />
    <glyph glyph-name="iacute" unicode="&#xed;" horiz-adv-x="231" 
d="M160 519v-519h-88v519h88zM168 746h115l-131 -158h-75z" />
    <glyph glyph-name="icircumflex" unicode="&#xee;" horiz-adv-x="231" 
d="M160 519v-519h-88v519h88zM115 673l-80 -85h-75l105 148h100l105 -148h-75z" />
    <glyph glyph-name="idieresis" unicode="&#xef;" horiz-adv-x="231" 
d="M160 519v-519h-88v519h88zM17 595q-25 0 -41 16.5t-16 39.5q0 25 16 41t41 16q26 0 41.5 -16t15.5 -41q0 -23 -15.5 -39.5t-41.5 -16.5zM223 595q-26 0 -41.5 16.5t-15.5 39.5q0 25 15.5 41t41.5 16t41.5 -16t15.5 -41q0 -23 -15.5 -39.5t-41.5 -16.5z" />
    <glyph glyph-name="eth" unicode="&#xf0;" horiz-adv-x="572" 
d="M542 298q0 -75 -19 -132.5t-53.5 -96.5t-81.5 -59t-103 -20q-53 0 -99 18t-79.5 52.5t-52.5 84.5t-19 115q0 64 19 113.5t51.5 83.5t75 51t90.5 17q42 0 77 -12.5t64 -47.5q-17 40 -42.5 74.5t-57.5 63.5l-168 -53l-18 56l130 42q-26 18 -54.5 33t-58.5 28v8h128
q37 -15 73 -41l104 33l18 -57l-68 -22q30 -29 56 -65t45.5 -78t31 -89.5t11.5 -99.5zM285 69q35 0 64.5 12t51.5 39t34 71t12 107q0 51 -10 94q-27 33 -63 46t-89 13q-35 0 -64 -11.5t-50.5 -35t-33.5 -59.5t-12 -85t12 -85t33.5 -59.5t50.5 -35t64 -11.5z" />
    <glyph glyph-name="ntilde" unicode="&#xf1;" horiz-adv-x="575" 
d="M318 451q-60 0 -97.5 -27.5t-60.5 -70.5v-353h-88v519h83l3 -93h2q21 45 66 74t114 29q77 0 122.5 -40.5t45.5 -124.5v-364h-88v355q0 54 -27 75t-75 21zM129 598q-3 22 0.5 44t14.5 38.5t30 27t47 10.5q24 0 43 -6.5t35 -14t29.5 -14t27.5 -6.5q37 0 34 45h63
q3 -23 -0.5 -44.5t-15 -38t-30.5 -27t-46 -10.5q-24 0 -43 6.5t-35 14t-30 14t-27 6.5q-37 0 -34 -45h-63v0z" />
    <glyph glyph-name="ograve" unicode="&#xf2;" horiz-adv-x="572" 
d="M285 -10q-53 0 -99 18t-79.5 52.5t-52.5 84.5t-19 115q0 64 19 114.5t52.5 84.5t79.5 52t99 18q54 0 100 -18t79.5 -52t53 -84.5t19.5 -114.5q0 -65 -19.5 -115t-53 -84.5t-79.5 -52.5t-100 -18zM285 69q35 0 64.5 11.5t51.5 35t34 59.5t12 85t-12 85t-34 59.5t-51.5 35
t-64.5 11.5t-64 -11.5t-50.5 -35t-33.5 -59.5t-12 -85t12 -85t33.5 -59.5t50.5 -35t64 -11.5zM273 588l-131 158h115l91 -158h-75z" />
    <glyph glyph-name="oacute" unicode="&#xf3;" horiz-adv-x="572" 
d="M285 -10q-53 0 -99 18t-79.5 52.5t-52.5 84.5t-19 115q0 64 19 114.5t52.5 84.5t79.5 52t99 18q54 0 100 -18t79.5 -52t53 -84.5t19.5 -114.5q0 -65 -19.5 -115t-53 -84.5t-79.5 -52.5t-100 -18zM285 69q35 0 64.5 11.5t51.5 35t34 59.5t12 85t-12 85t-34 59.5t-51.5 35
t-64.5 11.5t-64 -11.5t-50.5 -35t-33.5 -59.5t-12 -85t12 -85t33.5 -59.5t50.5 -35t64 -11.5zM316 746h115l-131 -158h-75z" />
    <glyph glyph-name="ocircumflex" unicode="&#xf4;" horiz-adv-x="572" 
d="M285 -10q-53 0 -99 18t-79.5 52.5t-52.5 84.5t-19 115q0 64 19 114.5t52.5 84.5t79.5 52t99 18q54 0 100 -18t79.5 -52t53 -84.5t19.5 -114.5q0 -65 -19.5 -115t-53 -84.5t-79.5 -52.5t-100 -18zM285 69q35 0 64.5 11.5t51.5 35t34 59.5t12 85t-12 85t-34 59.5t-51.5 35
t-64.5 11.5t-64 -11.5t-50.5 -35t-33.5 -59.5t-12 -85t12 -85t33.5 -59.5t50.5 -35t64 -11.5zM286 673l-80 -85h-75l105 148h100l105 -148h-75z" />
    <glyph glyph-name="otilde" unicode="&#xf5;" horiz-adv-x="572" 
d="M285 -10q-53 0 -99 18t-79.5 52.5t-52.5 84.5t-19 115q0 64 19 114.5t52.5 84.5t79.5 52t99 18q54 0 100 -18t79.5 -52t53 -84.5t19.5 -114.5q0 -65 -19.5 -115t-53 -84.5t-79.5 -52.5t-100 -18zM285 69q35 0 64.5 11.5t51.5 35t34 59.5t12 85t-12 85t-34 59.5t-51.5 35
t-64.5 11.5t-64 -11.5t-50.5 -35t-33.5 -59.5t-12 -85t12 -85t33.5 -59.5t50.5 -35t64 -11.5zM124 598q-3 22 0.5 44t14.5 38.5t30 27t47 10.5q24 0 43 -6.5t35 -14t29.5 -14t27.5 -6.5q37 0 34 45h63q3 -23 -0.5 -44.5t-15 -38t-30.5 -27t-46 -10.5q-24 0 -43 6.5t-35 14
t-30 14t-27 6.5q-37 0 -34 -45h-63v0z" />
    <glyph glyph-name="odieresis" unicode="&#xf6;" horiz-adv-x="572" 
d="M285 -10q-53 0 -99 18t-79.5 52.5t-52.5 84.5t-19 115q0 64 19 114.5t52.5 84.5t79.5 52t99 18q54 0 100 -18t79.5 -52t53 -84.5t19.5 -114.5q0 -65 -19.5 -115t-53 -84.5t-79.5 -52.5t-100 -18zM285 69q35 0 64.5 11.5t51.5 35t34 59.5t12 85t-12 85t-34 59.5t-51.5 35
t-64.5 11.5t-64 -11.5t-50.5 -35t-33.5 -59.5t-12 -85t12 -85t33.5 -59.5t50.5 -35t64 -11.5zM183 595q-25 0 -41 16.5t-16 39.5q0 25 16 41t41 16q26 0 41.5 -16t15.5 -41q0 -23 -15.5 -39.5t-41.5 -16.5zM389 595q-26 0 -41.5 16.5t-15.5 39.5q0 25 15.5 41t41.5 16
t41.5 -16t15.5 -41q0 -23 -15.5 -39.5t-41.5 -16.5z" />
    <glyph glyph-name="divide" unicode="&#xf7;" 
d="M275 481q-28 0 -46.5 18.5t-18.5 44.5q0 28 18.5 46t46.5 18t46 -18t18 -46q0 -26 -18 -44.5t-46 -18.5zM34 302v70h482v-70h-482zM275 65q-28 0 -46.5 18.5t-18.5 44.5q0 28 18.5 46t46.5 18t46 -18t18 -46q0 -26 -18 -44.5t-46 -18.5z" />
    <glyph glyph-name="oslash" unicode="&#xf8;" horiz-adv-x="572" 
d="M285 -10q-44 0 -81 12l-39 -82h-81l54 114q-48 33 -75.5 90t-27.5 136q0 64 19 114.5t52.5 84.5t79.5 52t99 18q44 0 83 -12l39 82h82l-55 -114q48 -34 75.5 -90.5t27.5 -134.5q0 -65 -19.5 -115t-53 -84.5t-79.5 -52.5t-100 -18zM125 260q0 -52 13.5 -89t36.5 -60
l159 334q-24 6 -49 6q-35 0 -64 -11.5t-50.5 -35t-33.5 -59.5t-12 -85zM447 260q0 51 -13 88t-36 60l-159 -333q21 -6 46 -6q35 0 64.5 11.5t51.5 35t34 59.5t12 85z" />
    <glyph glyph-name="ugrave" unicode="&#xf9;" horiz-adv-x="565" 
d="M405 93q-21 -44 -64.5 -73.5t-113.5 -29.5q-72 0 -116.5 40.5t-44.5 125.5v363h89v-363q0 -26 7.5 -42.5t20.5 -26.5t30.5 -14t38.5 -4q58 0 93 26t60 71v353h88v-519h-78l-8 93h-2v0zM248 588l-131 158h115l91 -158h-75z" />
    <glyph glyph-name="uacute" unicode="&#xfa;" horiz-adv-x="565" 
d="M405 93q-21 -44 -64.5 -73.5t-113.5 -29.5q-72 0 -116.5 40.5t-44.5 125.5v363h89v-363q0 -26 7.5 -42.5t20.5 -26.5t30.5 -14t38.5 -4q58 0 93 26t60 71v353h88v-519h-78l-8 93h-2v0zM327 746h115l-131 -158h-75z" />
    <glyph glyph-name="ucircumflex" unicode="&#xfb;" horiz-adv-x="565" 
d="M405 93q-21 -44 -64.5 -73.5t-113.5 -29.5q-72 0 -116.5 40.5t-44.5 125.5v363h89v-363q0 -26 7.5 -42.5t20.5 -26.5t30.5 -14t38.5 -4q58 0 93 26t60 71v353h88v-519h-78l-8 93h-2v0zM277 673l-80 -85h-75l105 148h100l105 -148h-75z" />
    <glyph glyph-name="udieresis" unicode="&#xfc;" horiz-adv-x="565" 
d="M405 93q-21 -44 -64.5 -73.5t-113.5 -29.5q-72 0 -116.5 40.5t-44.5 125.5v363h89v-363q0 -26 7.5 -42.5t20.5 -26.5t30.5 -14t38.5 -4q58 0 93 26t60 71v353h88v-519h-78l-8 93h-2v0zM174 595q-25 0 -41 16.5t-16 39.5q0 25 16 41t41 16q26 0 41.5 -16t15.5 -41
q0 -23 -15.5 -39.5t-41.5 -16.5zM380 595q-26 0 -41.5 16.5t-15.5 39.5q0 25 15.5 41t41.5 16t41.5 -16t15.5 -41q0 -23 -15.5 -39.5t-41.5 -16.5z" />
    <glyph glyph-name="yacute" unicode="&#xfd;" horiz-adv-x="531" 
d="M327 6q-18 -47 -38 -82.5t-45 -60.5t-56 -37.5t-71 -12.5q-20 0 -37 2.5t-31 8.5v85q11 -8 28 -12.5t37 -4.5q37 0 61 17.5t46 55.5l-211 554h97l165 -438l164 438h85l-194 -513v0zM322 746h115l-131 -158h-75z" />
    <glyph glyph-name="thorn" unicode="&#xfe;" horiz-adv-x="600" 
d="M333 -10q-60 0 -103.5 28t-69.5 77v-272h-88v894h88v-288q26 47 68.5 73.5t103.5 26.5q47 0 89.5 -16.5t74.5 -50t50.5 -84t18.5 -118.5q0 -69 -19 -119.5t-51 -84t-74 -50t-88 -16.5zM320 69q69 0 111.5 47.5t42.5 143.5q0 94 -42.5 142.5t-111.5 48.5q-34 0 -63.5 -12
t-51 -35.5t-34 -59.5t-12.5 -84t12.5 -84t34 -60t51 -35.5t63.5 -11.5z" />
    <glyph glyph-name="ydieresis" unicode="&#xff;" horiz-adv-x="531" 
d="M327 6q-18 -47 -38 -82.5t-45 -60.5t-56 -37.5t-71 -12.5q-20 0 -37 2.5t-31 8.5v85q11 -8 28 -12.5t37 -4.5q37 0 61 17.5t46 55.5l-211 554h97l165 -438l164 438h85l-194 -513v0zM165 595q-25 0 -41 16.5t-16 39.5q0 25 16 41t41 16q26 0 41.5 -16t15.5 -41
q0 -23 -15.5 -39.5t-41.5 -16.5zM371 595q-26 0 -41.5 16.5t-15.5 39.5q0 25 15.5 41t41.5 16t41.5 -16t15.5 -41q0 -23 -15.5 -39.5t-41.5 -16.5z" />
    <glyph glyph-name="Amacron" unicode="&#x100;" horiz-adv-x="692" 
d="M275 717h140l257 -717h-100l-74 205h-317l-73 -205h-88zM468 290l-128 357l-128 -357h256zM185 878h310v-70h-310v70z" />
    <glyph glyph-name="amacron" unicode="&#x101;" horiz-adv-x="526" 
d="M376 99q-9 -18 -23 -37.5t-35 -35.5t-49.5 -26t-66.5 -10q-70 0 -113 39.5t-43 113.5q0 85 59.5 125t169.5 40h97v43q0 54 -28 77t-96 23q-48 0 -91 -15.5t-77 -35.5v79q28 17 75.5 33.5t104.5 16.5q98 0 149 -40.5t51 -125.5v-279q0 -9 0.5 -20.5t1 -23.5t1.5 -22.5
t2 -17.5h-80q-3 14 -5.5 39.5t-2.5 44.5zM221 69q41 0 70 17t47 39.5t26 44t8 30.5v38h-88q-79 0 -114.5 -22.5t-35.5 -67.5q0 -35 21 -57t66 -22zM115 687h290v-70h-290v70z" />
    <glyph glyph-name="Abreve" unicode="&#x102;" horiz-adv-x="692" 
d="M275 717h140l257 -717h-100l-74 205h-317l-73 -205h-88zM468 290l-128 357l-128 -357h256zM342 763q-41 0 -71.5 12t-50.5 33t-30 49.5t-10 61.5h88q0 -49 19.5 -70t54.5 -21t54 21t19 70h88q0 -33 -10 -61.5t-30 -49.5t-50 -33t-71 -12z" />
    <glyph glyph-name="abreve" unicode="&#x103;" horiz-adv-x="526" 
d="M376 99q-9 -18 -23 -37.5t-35 -35.5t-49.5 -26t-66.5 -10q-70 0 -113 39.5t-43 113.5q0 85 59.5 125t169.5 40h97v43q0 54 -28 77t-96 23q-48 0 -91 -15.5t-77 -35.5v79q28 17 75.5 33.5t104.5 16.5q98 0 149 -40.5t51 -125.5v-279q0 -9 0.5 -20.5t1 -23.5t1.5 -22.5
t2 -17.5h-80q-3 14 -5.5 39.5t-2.5 44.5zM221 69q41 0 70 17t47 39.5t26 44t8 30.5v38h-88q-79 0 -114.5 -22.5t-35.5 -67.5q0 -35 21 -57t66 -22zM260 588q-38 0 -66.5 11t-47.5 30t-28.5 45t-9.5 55h88q0 -42 17.5 -59.5t46.5 -17.5q30 0 46.5 17.5t16.5 59.5h88
q0 -29 -9.5 -55t-28 -45t-47 -30t-66.5 -11z" />
    <glyph glyph-name="Aogonek" unicode="&#x104;" horiz-adv-x="692" 
d="M275 717h140l257 -717q-27 -10 -48.5 -30t-21.5 -50q0 -20 13 -34.5t43 -14.5q20 0 42 8v-60q-7 -5 -22.5 -8t-36.5 -3q-55 0 -85 26t-30 74q0 29 12.5 53t32.5 41l-73 203h-317l-73 -205h-88zM468 290l-128 357l-128 -357h256z" />
    <glyph glyph-name="aogonek" unicode="&#x105;" horiz-adv-x="526" 
d="M326 -101q0 21 7 37.5t18.5 28.5t25 20.5t27.5 14.5h-12q-2 14 -4.5 39.5t-2.5 44.5l-2 16q-8 -18 -22 -37.5t-35 -35.5t-50 -26.5t-67 -10.5q-69 0 -112 39.5t-43 113.5q0 85 59 125t169 40h97v43q0 54 -27.5 77t-95.5 23q-48 0 -91.5 -15.5t-76.5 -35.5v79
q27 17 74.5 33.5t104.5 16.5q98 0 149 -40.5t51 -125.5v-279q0 -9 0.5 -20.5t1 -23.5t1.5 -22.5t2 -17.5q-27 -10 -48.5 -30t-21.5 -50q0 -20 13 -34.5t43 -14.5q20 0 42 8v-60q-7 -5 -22.5 -8t-36.5 -3q-55 0 -85 24.5t-30 66.5zM228 69q41 0 70 17t47 39.5t26 44t8 30.5
v38h-88q-78 0 -114 -22.5t-36 -67.5q0 -35 21 -57t66 -22z" />
    <glyph glyph-name="Cacute" unicode="&#x106;" horiz-adv-x="671" 
d="M395 -10q-80 0 -145 25t-111.5 72.5t-71.5 116t-25 154.5q0 87 23 155t68 115.5t110.5 72.5t149.5 25q73 0 128 -15.5t90 -36.5v-90q-45 29 -103.5 43t-115.5 14q-127 0 -187.5 -70.5t-60.5 -212.5q0 -143 65.5 -213t193.5 -70q55 0 107.5 15t100.5 51v-90
q-29 -23 -84.5 -42t-131.5 -19zM412 909h125l-136 -136h-85z" />
    <glyph glyph-name="cacute" unicode="&#x107;" horiz-adv-x="489" 
d="M296 -10q-60 0 -108.5 18.5t-82.5 53t-52 84.5t-18 114q0 63 18.5 113t52.5 84.5t83 53t111 18.5q48 0 88 -10.5t66 -30.5v-79q-32 21 -71.5 31.5t-81.5 10.5q-91 0 -133.5 -47t-42.5 -144t41 -144t130 -47q47 0 86.5 11.5t71.5 29.5v-79q-28 -17 -67.5 -29t-90.5 -12z
M324 746h115l-131 -158h-75z" />
    <glyph glyph-name="Ccircumflex" unicode="&#x108;" horiz-adv-x="671" 
d="M395 -10q-80 0 -145 25t-111.5 72.5t-71.5 116t-25 154.5q0 87 23 155t68 115.5t110.5 72.5t149.5 25q73 0 128 -15.5t90 -36.5v-90q-45 29 -103.5 43t-115.5 14q-127 0 -187.5 -70.5t-60.5 -212.5q0 -143 65.5 -213t193.5 -70q55 0 107.5 15t100.5 51v-90
q-29 -23 -84.5 -42t-131.5 -19zM387 848l-80 -85h-75l105 148h100l105 -148h-75z" />
    <glyph glyph-name="ccircumflex" unicode="&#x109;" horiz-adv-x="489" 
d="M296 -10q-60 0 -108.5 18.5t-82.5 53t-52 84.5t-18 114q0 63 18.5 113t52.5 84.5t83 53t111 18.5q48 0 88 -10.5t66 -30.5v-79q-32 21 -71.5 31.5t-81.5 10.5q-91 0 -133.5 -47t-42.5 -144t41 -144t130 -47q47 0 86.5 11.5t71.5 29.5v-79q-28 -17 -67.5 -29t-90.5 -12z
M278 673l-80 -85h-75l105 148h100l105 -148h-75z" />
    <glyph glyph-name="Cdotaccent" unicode="&#x10a;" horiz-adv-x="671" 
d="M404 -10q-80 0 -145 25t-111.5 72.5t-71.5 116t-25 154.5q0 87 23 155t68 115.5t110.5 72.5t149.5 25q73 0 128 -15.5t90 -36.5v-90q-45 29 -103.5 43t-115.5 14q-127 0 -187.5 -70.5t-60.5 -212.5q0 -143 65.5 -213t193.5 -70q55 0 107.5 15t100.5 51v-90
q-29 -23 -84.5 -42t-131.5 -19zM377 786q-26 0 -41.5 16.5t-15.5 39.5q0 24 15.5 40.5t41.5 16.5t41.5 -16.5t15.5 -40.5q0 -23 -15.5 -39.5t-41.5 -16.5z" />
    <glyph glyph-name="cdotaccent" unicode="&#x10b;" horiz-adv-x="489" 
d="M296 -10q-60 0 -108.5 18.5t-82.5 53t-52 84.5t-18 114q0 63 18.5 113t52.5 84.5t83 53t111 18.5q48 0 88 -10.5t66 -30.5v-79q-32 21 -71.5 31.5t-81.5 10.5q-91 0 -133.5 -47t-42.5 -144t41 -144t130 -47q47 0 86.5 11.5t71.5 29.5v-79q-28 -17 -67.5 -29t-90.5 -12z
M269 595q-26 0 -41.5 16.5t-15.5 39.5q0 25 15.5 41t41.5 16t41.5 -16t15.5 -41q0 -23 -15.5 -39.5t-41.5 -16.5z" />
    <glyph glyph-name="Ccaron" unicode="&#x10c;" horiz-adv-x="671" 
d="M395 -10q-80 0 -145 25t-111.5 72.5t-71.5 116t-25 154.5q0 87 23 155t68 115.5t110.5 72.5t149.5 25q73 0 128 -15.5t90 -36.5v-90q-45 29 -103.5 43t-115.5 14q-127 0 -187.5 -70.5t-60.5 -212.5q0 -143 65.5 -213t193.5 -70q55 0 107.5 15t100.5 51v-90
q-29 -23 -84.5 -42t-131.5 -19zM436 763h-100l-105 148h75l80 -85l80 85h75z" />
    <glyph glyph-name="ccaron" unicode="&#x10d;" horiz-adv-x="489" 
d="M296 -10q-60 0 -108.5 18.5t-82.5 53t-52 84.5t-18 114q0 63 18.5 113t52.5 84.5t83 53t111 18.5q48 0 88 -10.5t66 -30.5v-79q-32 21 -71.5 31.5t-81.5 10.5q-91 0 -133.5 -47t-42.5 -144t41 -144t130 -47q47 0 86.5 11.5t71.5 29.5v-79q-28 -17 -67.5 -29t-90.5 -12z
M328 588h-100l-105 148h75l80 -85l80 85h75z" />
    <glyph glyph-name="Dcaron" unicode="&#x10e;" horiz-adv-x="706" 
d="M84 717h241q72 0 134 -17t108 -56t72 -103t26 -158q0 -95 -26.5 -166.5t-73 -119.5t-111 -72.5t-140.5 -24.5h-230v717zM178 631v-546h136q55 0 101 17t79 52.5t51 90.5t18 131q0 75 -18 124.5t-49.5 78.5t-75.5 40.5t-95 11.5h-147zM374 763h-100l-105 148h75l80 -85
l80 85h75z" />
    <glyph glyph-name="dcaron" unicode="&#x10f;" horiz-adv-x="581" 
d="M444 102q-24 -51 -67 -81.5t-109 -30.5q-47 0 -89 16.5t-74 50t-51 84t-19 119.5q0 68 19 118.5t51 84t74.5 50t89.5 16.5q59 0 102 -24.5t69 -69.5v282h88v-717h-77zM281 69q34 0 63 11.5t50.5 35.5t34 60t12.5 84t-12.5 84t-34 60t-50.5 35.5t-63 11.5
q-69 0 -112.5 -48.5t-43.5 -142.5q0 -95 44 -143t112 -48zM583 528l20 189h101l-60 -189h-61z" />
    <glyph glyph-name="Dcroat" unicode="&#x110;" horiz-adv-x="723" 
d="M100 404v313h242q72 0 134.5 -17t108 -56t72 -103t26.5 -158q0 -95 -26.5 -166.5t-73.5 -119.5t-111.5 -72.5t-140.5 -24.5h-231v329h-90v75h90zM195 329v-244h136q55 0 101 17t79 52.5t51 90.5t18 131q0 75 -18 124.5t-49.5 78.5t-75.5 40.5t-95 11.5h-147v-227h212v-75
h-212z" />
    <glyph glyph-name="dcroat" unicode="&#x111;" horiz-adv-x="600" 
d="M444 102q-24 -51 -67 -81.5t-109 -30.5q-47 0 -89 16.5t-74 50t-51 84t-19 119.5q0 68 19 118.5t51 84t74.5 50t89.5 16.5q59 0 102 -24.5t69 -69.5v141h-150v65h150v76h88v-76h80v-65h-80v-576h-77zM281 69q34 0 63 11.5t50.5 35.5t34 60t12.5 84t-12.5 84t-34 60
t-50.5 35.5t-63 11.5q-69 0 -112.5 -48.5t-43.5 -142.5q0 -95 44 -143t112 -48z" />
    <glyph glyph-name="Emacron" unicode="&#x112;" horiz-adv-x="598" 
d="M84 717h444v-86h-350v-217h297v-85h-297v-244h355v-85h-449v717zM150 878h310v-70h-310v70z" />
    <glyph glyph-name="emacron" unicode="&#x113;" horiz-adv-x="530" 
d="M485 44q-11 -8 -27 -17t-39 -17.5t-52 -14t-65 -5.5q-131 0 -199 71t-68 199q0 63 18.5 113t51.5 84.5t78 53t98 18.5q56 0 100 -19t72.5 -56t39 -91.5t-0.5 -126.5h-366q5 -84 50 -125.5t134 -41.5q60 0 103 17t72 37v-79zM279 451q-57 0 -98 -35t-52 -106h279
q4 72 -33 106.5t-96 34.5zM133 687h290v-70h-290v70z" />
    <glyph glyph-name="Ebreve" unicode="&#x114;" horiz-adv-x="598" 
d="M84 717h444v-86h-350v-217h297v-85h-297v-244h355v-85h-449v717zM307 763q-41 0 -71.5 12t-50.5 33t-30 49.5t-10 61.5h88q0 -49 19.5 -70t54.5 -21t54 21t19 70h88q0 -33 -10 -61.5t-30 -49.5t-50 -33t-71 -12z" />
    <glyph glyph-name="ebreve" unicode="&#x115;" horiz-adv-x="530" 
d="M485 44q-11 -8 -27 -17t-39 -17.5t-52 -14t-65 -5.5q-131 0 -199 71t-68 199q0 63 18.5 113t51.5 84.5t78 53t98 18.5q56 0 100 -19t72.5 -56t39 -91.5t-0.5 -126.5h-366q5 -84 50 -125.5t134 -41.5q60 0 103 17t72 37v-79zM279 451q-57 0 -98 -35t-52 -106h279
q4 72 -33 106.5t-96 34.5zM278 588q-38 0 -66.5 11t-47.5 30t-28.5 45t-9.5 55h88q0 -42 17.5 -59.5t46.5 -17.5q30 0 46.5 17.5t16.5 59.5h88q0 -29 -9.5 -55t-28 -45t-47 -30t-66.5 -11z" />
    <glyph glyph-name="Edotaccent" unicode="&#x116;" horiz-adv-x="598" 
d="M84 717h444v-86h-350v-217h297v-85h-297v-244h355v-85h-449v717zM312 786q-26 0 -41.5 16.5t-15.5 39.5q0 24 15.5 40.5t41.5 16.5t41.5 -16.5t15.5 -40.5q0 -23 -15.5 -39.5t-41.5 -16.5z" />
    <glyph glyph-name="edotaccent" unicode="&#x117;" horiz-adv-x="530" 
d="M484 44q-11 -8 -27 -17t-39 -17.5t-52 -14t-65 -5.5q-131 0 -199 71t-68 199q0 63 18.5 113t51.5 84.5t78 53t98 18.5q56 0 100 -19t72.5 -56t39 -91.5t-0.5 -126.5h-366q5 -84 50 -125.5t134 -41.5q60 0 103 17t72 37v-79zM278 451q-57 0 -98 -35t-52 -106h279
q4 72 -33 106.5t-96 34.5zM265 595q-26 0 -41.5 16.5t-15.5 39.5q0 25 15.5 41t41.5 16t41.5 -16t15.5 -41q0 -23 -15.5 -39.5t-41.5 -16.5z" />
    <glyph glyph-name="Eogonek" unicode="&#x118;" horiz-adv-x="598" 
d="M84 717h444v-86h-350v-217h297v-85h-297v-244h355v-85h-449v717zM502 -192q-55 0 -85 24.5t-30 66.5q0 21 7 37.5t18.5 28.5t25 20.5t27.5 14.5h68q-27 -10 -48.5 -30t-21.5 -50q0 -20 13 -34.5t43 -14.5q20 0 42 8v-60q-7 -5 -22.5 -8t-36.5 -3z" />
    <glyph glyph-name="eogonek" unicode="&#x119;" horiz-adv-x="530" 
d="M485 44q-11 -8 -27 -17t-39 -17.5t-52 -14t-65 -5.5q-131 0 -199 71t-68 199q0 63 18.5 113t51.5 84.5t78 53t98 18.5q56 0 100 -19t72.5 -56t39 -91.5t-0.5 -126.5h-366q5 -84 50 -125.5t134 -41.5q60 0 103 17t72 37v-79zM279 451q-57 0 -98 -35t-52 -106h279
q4 72 -33 106.5t-96 34.5zM357 -192q-55 0 -85 24.5t-30 66.5q0 21 7 37.5t18.5 28.5t25 20.5t27.5 14.5h68q-27 -10 -48.5 -30t-21.5 -50q0 -20 13 -34.5t43 -14.5q20 0 42 8v-60q-7 -5 -22.5 -8t-36.5 -3z" />
    <glyph glyph-name="Ecaron" unicode="&#x11a;" horiz-adv-x="598" 
d="M84 717h444v-86h-350v-217h297v-85h-297v-244h355v-85h-449v717zM362 763h-100l-105 148h75l80 -85l80 85h75z" />
    <glyph glyph-name="ecaron" unicode="&#x11b;" horiz-adv-x="530" 
d="M485 44q-11 -8 -27 -17t-39 -17.5t-52 -14t-65 -5.5q-131 0 -199 71t-68 199q0 63 18.5 113t51.5 84.5t78 53t98 18.5q56 0 100 -19t72.5 -56t39 -91.5t-0.5 -126.5h-366q5 -84 50 -125.5t134 -41.5q60 0 103 17t72 37v-79zM279 451q-57 0 -98 -35t-52 -106h279
q4 72 -33 106.5t-96 34.5zM332 588h-100l-105 148h75l80 -85l80 85h75z" />
    <glyph glyph-name="Gcircumflex" unicode="&#x11c;" horiz-adv-x="739" 
d="M690 281q0 -63 -18.5 -116t-56.5 -92t-95.5 -61t-135.5 -22q-76 0 -139 26.5t-108 74.5t-70 116t-25 151t24 151t70.5 116t115.5 74.5t159 26.5q46 0 82.5 -6t64.5 -15t48.5 -20t35.5 -21v-90q-24 14 -49 26.5t-53.5 21.5t-61 14t-70.5 5q-68 0 -117.5 -19t-82 -55.5
t-48.5 -89t-16 -119.5q0 -134 63.5 -208.5t176.5 -74.5q56 0 96 14.5t65 40t36.5 61t11.5 77.5v20h-231v85h328v-92v0zM396 848l-80 -85h-75l105 148h100l105 -148h-75z" />
    <glyph glyph-name="gcircumflex" unicode="&#x11d;" horiz-adv-x="589" 
d="M518 44q0 -50 -14.5 -91.5t-46 -70.5t-81 -45t-119.5 -16q-38 0 -67 4t-50.5 10.5t-36.5 14t-25 14.5v79q16 -9 33.5 -16.5t38.5 -13.5t47.5 -9.5t60.5 -3.5q96 0 134 36t38 107v80q-23 -46 -64.5 -74t-102.5 -28q-46 0 -87.5 16t-73 47.5t-50 79t-18.5 110.5
q0 64 18.5 111.5t50 79.5t73.5 48t89 16q62 0 104.5 -28t66.5 -76l1 11q0 18 2 43.5t4 39.5h80q-2 -14 -3.5 -40t-1.5 -43v-392zM279 100q33 0 60.5 10.5t48 32.5t32 54.5t11.5 76.5q0 89 -43.5 133t-109.5 44q-33 0 -61.5 -11t-49 -33t-32.5 -55.5t-12 -77.5t12 -76.5
t33 -54t49.5 -32.5t61.5 -11zM284 673l-80 -85h-75l105 148h100l105 -148h-75z" />
    <glyph glyph-name="Gbreve" unicode="&#x11e;" horiz-adv-x="739" 
d="M690 281q0 -63 -18.5 -116t-56.5 -92t-95.5 -61t-135.5 -22q-76 0 -139 26.5t-108 74.5t-70 116t-25 151t24 151t70.5 116t115.5 74.5t159 26.5q46 0 82.5 -6t64.5 -15t48.5 -20t35.5 -21v-90q-24 14 -49 26.5t-53.5 21.5t-61 14t-70.5 5q-68 0 -117.5 -19t-82 -55.5
t-48.5 -89t-16 -119.5q0 -134 63.5 -208.5t176.5 -74.5q56 0 96 14.5t65 40t36.5 61t11.5 77.5v20h-231v85h328v-92v0zM396 763q-41 0 -71.5 12t-50.5 33t-30 49.5t-10 61.5h88q0 -49 19.5 -70t54.5 -21t54 21t19 70h88q0 -33 -10 -61.5t-30 -49.5t-50 -33t-71 -12z" />
    <glyph glyph-name="gbreve" unicode="&#x11f;" horiz-adv-x="589" 
d="M518 44q0 -50 -14.5 -91.5t-46 -70.5t-81 -45t-119.5 -16q-38 0 -67 4t-50.5 10.5t-36.5 14t-25 14.5v79q16 -9 33.5 -16.5t38.5 -13.5t47.5 -9.5t60.5 -3.5q96 0 134 36t38 107v80q-23 -46 -64.5 -74t-102.5 -28q-46 0 -87.5 16t-73 47.5t-50 79t-18.5 110.5
q0 64 18.5 111.5t50 79.5t73.5 48t89 16q62 0 104.5 -28t66.5 -76l1 11q0 18 2 43.5t4 39.5h80q-2 -14 -3.5 -40t-1.5 -43v-392zM279 100q33 0 60.5 10.5t48 32.5t32 54.5t11.5 76.5q0 89 -43.5 133t-109.5 44q-33 0 -61.5 -11t-49 -33t-32.5 -55.5t-12 -77.5t12 -76.5
t33 -54t49.5 -32.5t61.5 -11zM269 588q-38 0 -66.5 11t-47.5 30t-28.5 45t-9.5 55h88q0 -42 17.5 -59.5t46.5 -17.5q30 0 46.5 17.5t16.5 59.5h88q0 -29 -9.5 -55t-28 -45t-47 -30t-66.5 -11z" />
    <glyph glyph-name="Gdotaccent" unicode="&#x120;" horiz-adv-x="739" 
d="M690 281q0 -63 -18.5 -116t-56.5 -92t-95.5 -61t-135.5 -22q-76 0 -139 26.5t-108 74.5t-70 116t-25 151t24 151t70.5 116t115.5 74.5t159 26.5q46 0 82.5 -6t64.5 -15t48.5 -20t35.5 -21v-90q-24 14 -49 26.5t-53.5 21.5t-61 14t-70.5 5q-68 0 -117.5 -19t-82 -55.5
t-48.5 -89t-16 -119.5q0 -134 63.5 -208.5t176.5 -74.5q56 0 96 14.5t65 40t36.5 61t11.5 77.5v20h-231v85h328v-92v0zM391 786q-26 0 -41.5 16.5t-15.5 39.5q0 24 15.5 40.5t41.5 16.5t41.5 -16.5t15.5 -40.5q0 -23 -15.5 -39.5t-41.5 -16.5z" />
    <glyph glyph-name="gdotaccent" unicode="&#x121;" horiz-adv-x="589" 
d="M518 44q0 -50 -14.5 -91.5t-46 -70.5t-81 -45t-119.5 -16q-38 0 -67 4t-50.5 10.5t-36.5 14t-25 14.5v79q16 -9 33.5 -16.5t38.5 -13.5t47.5 -9.5t60.5 -3.5q96 0 134 36t38 107v80q-23 -46 -64.5 -74t-102.5 -28q-46 0 -87.5 16t-73 47.5t-50 79t-18.5 110.5
q0 64 18.5 111.5t50 79.5t73.5 48t89 16q62 0 104.5 -28t66.5 -76l1 11q0 18 2 43.5t4 39.5h80q-2 -14 -3.5 -40t-1.5 -43v-392zM279 100q33 0 60.5 10.5t48 32.5t32 54.5t11.5 76.5q0 89 -43.5 133t-109.5 44q-33 0 -61.5 -11t-49 -33t-32.5 -55.5t-12 -77.5t12 -76.5
t33 -54t49.5 -32.5t61.5 -11zM269 595q-26 0 -41.5 16.5t-15.5 39.5q0 25 15.5 41t41.5 16t41.5 -16t15.5 -41q0 -23 -15.5 -39.5t-41.5 -16.5z" />
    <glyph glyph-name="uni0122" unicode="&#x122;" horiz-adv-x="739" 
d="M690 281q0 -63 -18.5 -116t-56.5 -92t-95.5 -61t-135.5 -22q-76 0 -139 26.5t-108 74.5t-70 116t-25 151t24 151t70.5 116t115.5 74.5t159 26.5q46 0 82.5 -6t64.5 -15t48.5 -20t35.5 -21v-90q-24 14 -49 26.5t-53.5 21.5t-61 14t-70.5 5q-68 0 -117.5 -19t-82 -55.5
t-48.5 -89t-16 -119.5q0 -134 63.5 -208.5t176.5 -74.5q56 0 96 14.5t65 40t36.5 61t11.5 77.5v20h-231v85h328v-92v0zM444 -114q0 -19 -5.5 -35.5t-14.5 -30.5t-19.5 -26t-20.5 -22h-62q16 15 27.5 32t25.5 42q-18 4 -29.5 17.5t-11.5 33.5q0 22 15 37t38 15t40 -15.5
t17 -47.5z" />
    <glyph glyph-name="uni0123" unicode="&#x123;" horiz-adv-x="589" 
d="M518 44q0 -50 -14.5 -91.5t-46 -70.5t-81 -45t-119.5 -16q-38 0 -67 4t-50.5 10.5t-36.5 14t-25 14.5v79q16 -9 33.5 -16.5t38.5 -13.5t47.5 -9.5t60.5 -3.5q96 0 134 36t38 107v80q-23 -46 -64.5 -74t-102.5 -28q-46 0 -87.5 16t-73 47.5t-50 79t-18.5 110.5
q0 64 18.5 111.5t50 79.5t73.5 48t89 16q62 0 104.5 -28t66.5 -76l1 11q0 18 2 43.5t4 39.5h80q-2 -14 -3.5 -40t-1.5 -43v-392zM279 100q33 0 60.5 10.5t48 32.5t32 54.5t11.5 76.5q0 89 -43.5 133t-109.5 44q-33 0 -61.5 -11t-49 -33t-32.5 -55.5t-12 -77.5t12 -76.5
t33 -54t49.5 -32.5t61.5 -11zM328 648q0 -22 -15 -37.5t-38 -15.5t-40 16t-17 48q0 19 5.5 35.5t14.5 30.5t19.5 26t20.5 22h62q-16 -14 -27.5 -31.5t-25.5 -42.5q18 -4 29.5 -17.5t11.5 -33.5z" />
    <glyph glyph-name="Hcircumflex" unicode="&#x124;" horiz-adv-x="724" 
d="M546 313h-368v-313h-94v717h94v-319h368v319h95v-717h-95v313zM363 848l-80 -85h-75l105 148h100l105 -148h-75z" />
    <glyph glyph-name="hcircumflex" unicode="&#x125;" horiz-adv-x="575" 
d="M318 451q-60 0 -97.5 -27.5t-60.5 -70.5v-353h-88v717h88v-198l-2 -93h2q21 44 66 73.5t114 29.5q77 0 122.5 -40.5t45.5 -124.5v-364h-88v355q0 54 -27 75t-75 21zM288 879l-80 -85h-75l105 148h100l105 -148h-75z" />
    <glyph glyph-name="Hbar" unicode="&#x126;" horiz-adv-x="724" 
d="M546 313h-368v-313h-94v511h-100v75h100v131h94v-131h368v131h95v-131h100v-75h-100v-511h-95v313zM546 398v113h-368v-113h368z" />
    <glyph glyph-name="hbar" unicode="&#x127;" horiz-adv-x="575" 
d="M318 451q-60 0 -97.5 -27.5t-60.5 -70.5v-353h-88v576h-80v65h80v76h88v-76h150v-65h-150v-57l-2 -93h2q21 44 66 73.5t114 29.5q77 0 122.5 -40.5t45.5 -124.5v-364h-88v355q0 54 -27 75t-75 21z" />
    <glyph glyph-name="Itilde" unicode="&#x128;" horiz-adv-x="261" 
d="M178 717v-717h-94v717h94zM-42 784q-4 25 0 49t16 43t32 30.5t50 11.5q26 0 46.5 -8.5t37.5 -19t31.5 -19t29.5 -8.5q41 0 38 59h63q4 -25 0 -49t-16 -43t-32.5 -30.5t-49.5 -11.5q-26 0 -46 8.5t-37 19t-32 19t-30 8.5q-41 0 -37 -59h-64v0z" />
    <glyph glyph-name="itilde" unicode="&#x129;" horiz-adv-x="231" 
d="M160 519v-519h-88v519h88zM-46 598q-3 22 0.5 44t14.5 38.5t30 27t47 10.5q24 0 43 -6.5t35 -14t29.5 -14t27.5 -6.5q37 0 34 45h63q3 -23 -0.5 -44.5t-15 -38t-30.5 -27t-46 -10.5q-24 0 -43 6.5t-35 14t-30 14t-27 6.5q-37 0 -34 -45h-63v0z" />
    <glyph glyph-name="Imacron" unicode="&#x12a;" horiz-adv-x="261" 
d="M178 717v-717h-94v717h94zM-25 878h310v-70h-310v70z" />
    <glyph glyph-name="imacron" unicode="&#x12b;" horiz-adv-x="231" 
d="M160 519v-519h-88v519h88zM-35 686h290v-70h-290v70z" />
    <glyph glyph-name="Ibreve" unicode="&#x12c;" horiz-adv-x="261" 
d="M178 717v-717h-94v717h94zM131 763q-41 0 -71.5 12t-50.5 33t-30 49.5t-10 61.5h88q0 -49 19.5 -70t54.5 -21t54 21t19 70h88q0 -33 -10 -61.5t-30 -49.5t-50 -33t-71 -12z" />
    <glyph glyph-name="ibreve" unicode="&#x12d;" horiz-adv-x="231" 
d="M160 519v-519h-88v519h88zM116 588q-38 0 -66.5 11t-47.5 30t-28.5 45t-9.5 55h88q0 -42 17.5 -59.5t46.5 -17.5q30 0 46.5 17.5t16.5 59.5h88q0 -29 -9.5 -55t-28 -45t-47 -30t-66.5 -11z" />
    <glyph glyph-name="Iogonek" unicode="&#x12e;" horiz-adv-x="261" 
d="M206 -181q-7 -5 -22.5 -8t-36.5 -3q-55 0 -85 27t-30 73q0 33 14.5 56.5t37.5 37.5v715h94v-717q-27 -10 -48.5 -30t-21.5 -50q0 -20 13 -34.5t43 -14.5q20 0 42 8v-60v0z" />
    <glyph glyph-name="iogonek" unicode="&#x12f;" horiz-adv-x="231" 
d="M160 519v-519q-27 -10 -48.5 -30t-21.5 -50q0 -20 12.5 -34.5t42.5 -14.5q12 0 22 2t21 6v-60q-8 -5 -23 -8t-36 -3q-57 0 -86.5 28t-29.5 73q0 22 7 39.5t18.5 30t25.5 21.5l8 5v514h88zM117 595q-27 0 -43 16.5t-16 40.5t16 41t43 17q26 0 41 -17t15 -41t-15 -40.5
t-41 -16.5z" />
    <glyph glyph-name="Idotaccent" unicode="&#x130;" horiz-adv-x="261" 
d="M178 717v-717h-94v717h94zM129 786q-26 0 -41.5 16.5t-15.5 39.5q0 24 15.5 40.5t41.5 16.5t41.5 -16.5t15.5 -40.5q0 -23 -15.5 -39.5t-41.5 -16.5z" />
    <glyph glyph-name="dotlessi" unicode="&#x131;" horiz-adv-x="231" 
d="M160 519v-519h-88v519h88z" />
    <glyph glyph-name="IJ" unicode="&#x132;" horiz-adv-x="593" 
d="M512 717v-584q0 -27 -10 -53t-30 -46t-52 -32t-75 -12q-26 0 -52.5 4.5t-48.5 12.5v81q20 -7 40 -10t40 -3q49 0 71.5 20.5t22.5 65.5v556h94zM178 717v-717h-94v717h94z" />
    <glyph glyph-name="ij" unicode="&#x133;" horiz-adv-x="461" 
d="M117 595q-27 0 -43 16.5t-16 40.5t16 41t43 17q26 0 41 -17t15 -41t-15 -40.5t-41 -16.5zM160 519v-519h-88v519h88zM346 595q-26 0 -42 16.5t-16 40.5t16 41t42 17t41.5 -17t15.5 -41t-15.5 -40.5t-41.5 -16.5zM390 -44q0 -29 -8 -55t-25.5 -45.5t-44.5 -31t-64 -11.5
q-20 0 -44 4.5t-47 16.5v85q14 -11 33 -19t43 -8q38 0 53.5 18t15.5 44v565h88v-563z" />
    <glyph glyph-name="Jcircumflex" unicode="&#x134;" horiz-adv-x="373" 
d="M293 717v-584q0 -27 -10 -53t-30.5 -46t-52 -32t-74.5 -12q-26 0 -52.5 4.5t-48.5 12.5v81q38 -13 79 -13q49 0 71.5 20.5t22.5 65.5v556h95zM243 848l-80 -85h-75l105 148h100l105 -148h-75z" />
    <glyph glyph-name="jcircumflex" unicode="&#x135;" horiz-adv-x="239" 
d="M168 -44q0 -29 -8 -55t-25.5 -45.5t-44.5 -31t-64 -11.5q-20 0 -44 4.5t-47 16.5v85q14 -11 33 -19t43 -8q38 0 53.5 18t15.5 44v565h88v-563zM117 673l-80 -85h-75l105 148h100l105 -148h-75z" />
    <glyph glyph-name="uni0136" unicode="&#x136;" horiz-adv-x="641" 
d="M254 307h-76v-307h-94v717h94v-325h70l256 325h106l-283 -358l294 -359h-117zM380 -114q0 -19 -5.5 -35.5t-14.5 -30.5t-19.5 -26t-20.5 -22h-62q16 15 27.5 32t25.5 42q-18 4 -29.5 17.5t-11.5 33.5q0 22 15 37t38 15t40 -15.5t17 -47.5z" />
    <glyph glyph-name="uni0137" unicode="&#x137;" horiz-adv-x="496" 
d="M206 221h-46v-221h-88v717h88v-421h50l182 223h100l-213 -256l217 -263h-107zM333 -114q0 -19 -5.5 -35.5t-14.5 -30.5t-19.5 -26t-20.5 -22h-62q16 15 27.5 32t25.5 42q-18 4 -29.5 17.5t-11.5 33.5q0 22 15 37t38 15t40 -15.5t17 -47.5z" />
    <glyph glyph-name="Lacute" unicode="&#x139;" horiz-adv-x="572" 
d="M527 0h-443v717h94v-632h349v-85zM184 909h125l-136 -136h-85z" />
    <glyph glyph-name="lacute" unicode="&#x13a;" horiz-adv-x="231" 
d="M160 717v-717h-88v717h88zM174 940h125l-136 -136h-85z" />
    <glyph glyph-name="uni013B" unicode="&#x13b;" horiz-adv-x="572" 
d="M527 0h-443v717h94v-632h349v-85zM362 -114q0 -19 -5.5 -35.5t-14.5 -30.5t-19.5 -26t-20.5 -22h-62q16 15 27.5 32t25.5 42q-18 4 -29.5 17.5t-11.5 33.5q0 22 15 37t38 15t40 -15.5t17 -47.5z" />
    <glyph glyph-name="uni013C" unicode="&#x13c;" horiz-adv-x="231" 
d="M160 717v-717h-88v717h88zM171 -114q0 -19 -5.5 -35.5t-14.5 -30.5t-19.5 -26t-20.5 -22h-62q16 15 27.5 32t25.5 42q-18 4 -29.5 17.5t-11.5 33.5q0 22 15 37t38 15t40 -15.5t17 -47.5z" />
    <glyph glyph-name="Lcaron" unicode="&#x13d;" horiz-adv-x="572" 
d="M527 0h-443v717h94v-632h349v-85zM274 528l20 189h101l-60 -189h-61z" />
    <glyph glyph-name="lcaron" unicode="&#x13e;" horiz-adv-x="231" 
d="M160 717v-717h-88v717h88zM211 528l20 189h101l-60 -189h-61z" />
    <glyph glyph-name="Ldot" unicode="&#x13f;" horiz-adv-x="572" 
d="M527 0h-443v717h94v-632h349v-85zM475 298q-29 0 -47 18.5t-18 44.5q0 28 18 46t47 18q28 0 46 -18t18 -46q0 -26 -18 -44.5t-46 -18.5z" />
    <glyph glyph-name="ldot" unicode="&#x140;" horiz-adv-x="383" 
d="M160 717v-717h-88v717h88zM307 278q-29 0 -47 18.5t-18 44.5q0 28 18 46t47 18q28 0 46 -18t18 -46q0 -26 -18 -44.5t-46 -18.5z" />
    <glyph glyph-name="Lslash" unicode="&#x141;" horiz-adv-x="572" 
d="M527 0h-443v243l-87 -45v90l87 45v384h94v-334l219 115v-90l-219 -115v-208h349v-85z" />
    <glyph glyph-name="lslash" unicode="&#x142;" horiz-adv-x="252" 
d="M0 301l82 68v348h88v-275l82 69v-79l-82 -69v-363h-88v290l-82 -68v79z" />
    <glyph glyph-name="Nacute" unicode="&#x143;" horiz-adv-x="743" 
d="M661 0h-128l-360 602v-602h-89v717h127l360 -602v602h90v-717zM420 909h125l-136 -136h-85z" />
    <glyph glyph-name="nacute" unicode="&#x144;" horiz-adv-x="575" 
d="M318 451q-60 0 -97.5 -27.5t-60.5 -70.5v-353h-88v519h83l3 -93h2q21 45 66 74t114 29q77 0 122.5 -40.5t45.5 -124.5v-364h-88v355q0 54 -27 75t-75 21zM328 746h115l-131 -158h-75z" />
    <glyph glyph-name="uni0145" unicode="&#x145;" horiz-adv-x="743" 
d="M661 0h-128l-360 602v-602h-89v717h127l360 -602v602h90v-717zM415 -114q0 -19 -5.5 -35.5t-14.5 -30.5t-19.5 -26t-20.5 -22h-62q16 15 27.5 32t25.5 42q-18 4 -29.5 17.5t-11.5 33.5q0 22 15 37t38 15t40 -15.5t17 -47.5z" />
    <glyph glyph-name="uni0146" unicode="&#x146;" horiz-adv-x="575" 
d="M318 451q-60 0 -97.5 -27.5t-60.5 -70.5v-353h-88v519h83l3 -93h2q21 45 66 74t114 29q77 0 122.5 -40.5t45.5 -124.5v-364h-88v355q0 54 -27 75t-75 21zM364 -114q0 -19 -5.5 -35.5t-14.5 -30.5t-19.5 -26t-20.5 -22h-62q16 15 27.5 32t25.5 42q-18 4 -29.5 17.5
t-11.5 33.5q0 22 15 37t38 15t40 -15.5t17 -47.5z" />
    <glyph glyph-name="Ncaron" unicode="&#x147;" horiz-adv-x="743" 
d="M661 0h-128l-360 602v-602h-89v717h127l360 -602v602h90v-717zM437 763h-100l-105 148h75l80 -85l80 85h75z" />
    <glyph glyph-name="ncaron" unicode="&#x148;" horiz-adv-x="575" 
d="M318 451q-60 0 -97.5 -27.5t-60.5 -70.5v-353h-88v519h83l3 -93h2q21 45 66 74t114 29q77 0 122.5 -40.5t45.5 -124.5v-364h-88v355q0 54 -27 75t-75 21zM342 588h-100l-105 148h75l80 -85l80 85h75z" />
    <glyph glyph-name="Eng" unicode="&#x14a;" horiz-adv-x="744" 
d="M84 717h127l360 -602v602h90v-754q0 -34 -10 -64t-30.5 -52t-52 -34.5t-74.5 -12.5q-55 0 -101 16v78q19 -7 39 -10t40 -3q99 0 99 90v29h-38l-360 602v-602h-89v717z" />
    <glyph glyph-name="eng" unicode="&#x14b;" horiz-adv-x="566" 
d="M340 529q77 0 122.5 -40.5t45.5 -124.5v-420q0 -25 -8 -48.5t-24.5 -42t-43.5 -29.5t-64 -11q-20 0 -45 4.5t-48 16.5v85q14 -11 33 -19t43 -8q38 0 53.5 18t15.5 44v401q0 54 -27 75t-75 21q-60 0 -97.5 -27.5t-60.5 -70.5v-353h-88v519h83l3 -93h2q21 44 66 73.5
t114 29.5z" />
    <glyph glyph-name="Omacron" unicode="&#x14c;" horiz-adv-x="770" 
d="M385 -10q-72 0 -135 24.5t-109 71.5t-72.5 116t-26.5 159t26.5 158.5t72.5 114t109 69t135 23.5q73 0 136 -23.5t109 -69.5t72 -114.5t26 -158.5q0 -89 -26 -158t-72 -116t-109 -71.5t-136 -24.5zM385 75q52 0 96 15.5t76.5 49t51 87.5t18.5 131t-18.5 131t-51 87.5
t-76.5 49t-96 15.5t-96 -15.5t-76.5 -49t-51 -87.5t-18.5 -131t18.5 -131t51 -87.5t76.5 -49t96 -15.5zM230 878h310v-70h-310v70z" />
    <glyph glyph-name="omacron" unicode="&#x14d;" horiz-adv-x="572" 
d="M285 -10q-53 0 -99 18t-79.5 52.5t-52.5 84.5t-19 115q0 64 19 114.5t52.5 84.5t79.5 52t99 18q54 0 100 -18t79.5 -52t53 -84.5t19.5 -114.5q0 -65 -19.5 -115t-53 -84.5t-79.5 -52.5t-100 -18zM285 69q35 0 64.5 11.5t51.5 35t34 59.5t12 85t-12 85t-34 59.5t-51.5 35
t-64.5 11.5t-64 -11.5t-50.5 -35t-33.5 -59.5t-12 -85t12 -85t33.5 -59.5t50.5 -35t64 -11.5zM141 687h290v-70h-290v70z" />
    <glyph glyph-name="Obreve" unicode="&#x14e;" horiz-adv-x="770" 
d="M385 -10q-72 0 -135 24.5t-109 71.5t-72.5 116t-26.5 159t26.5 158.5t72.5 114t109 69t135 23.5q73 0 136 -23.5t109 -69.5t72 -114.5t26 -158.5q0 -89 -26 -158t-72 -116t-109 -71.5t-136 -24.5zM385 75q52 0 96 15.5t76.5 49t51 87.5t18.5 131t-18.5 131t-51 87.5
t-76.5 49t-96 15.5t-96 -15.5t-76.5 -49t-51 -87.5t-18.5 -131t18.5 -131t51 -87.5t76.5 -49t96 -15.5zM386 763q-41 0 -71.5 12t-50.5 33t-30 49.5t-10 61.5h88q0 -49 19.5 -70t54.5 -21t54 21t19 70h88q0 -33 -10 -61.5t-30 -49.5t-50 -33t-71 -12z" />
    <glyph glyph-name="obreve" unicode="&#x14f;" horiz-adv-x="572" 
d="M285 -10q-53 0 -99 18t-79.5 52.5t-52.5 84.5t-19 115q0 64 19 114.5t52.5 84.5t79.5 52t99 18q54 0 100 -18t79.5 -52t53 -84.5t19.5 -114.5q0 -65 -19.5 -115t-53 -84.5t-79.5 -52.5t-100 -18zM285 69q35 0 64.5 11.5t51.5 35t34 59.5t12 85t-12 85t-34 59.5t-51.5 35
t-64.5 11.5t-64 -11.5t-50.5 -35t-33.5 -59.5t-12 -85t12 -85t33.5 -59.5t50.5 -35t64 -11.5zM286 588q-38 0 -66.5 11t-47.5 30t-28.5 45t-9.5 55h88q0 -42 17.5 -59.5t46.5 -17.5q30 0 46.5 17.5t16.5 59.5h88q0 -29 -9.5 -55t-28 -45t-47 -30t-66.5 -11z" />
    <glyph glyph-name="Ohungarumlaut" unicode="&#x150;" horiz-adv-x="770" 
d="M385 -10q-72 0 -135 24.5t-109 71.5t-72.5 116t-26.5 159t26.5 158.5t72.5 114t109 69t135 23.5q73 0 136 -23.5t109 -69.5t72 -114.5t26 -158.5q0 -89 -26 -158t-72 -116t-109 -71.5t-136 -24.5zM385 75q52 0 96 15.5t76.5 49t51 87.5t18.5 131t-18.5 131t-51 87.5
t-76.5 49t-96 15.5t-96 -15.5t-76.5 -49t-51 -87.5t-18.5 -131t18.5 -131t51 -87.5t76.5 -49t96 -15.5zM230 773l64 136h111l-95 -136h-80zM428 773l64 136h111l-95 -136h-80z" />
    <glyph glyph-name="ohungarumlaut" unicode="&#x151;" horiz-adv-x="572" 
d="M285 -10q-53 0 -99 18t-79.5 52.5t-52.5 84.5t-19 115q0 64 19 114.5t52.5 84.5t79.5 52t99 18q54 0 100 -18t79.5 -52t53 -84.5t19.5 -114.5q0 -65 -19.5 -115t-53 -84.5t-79.5 -52.5t-100 -18zM285 69q35 0 64.5 11.5t51.5 35t34 59.5t12 85t-12 85t-34 59.5t-51.5 35
t-64.5 11.5t-64 -11.5t-50.5 -35t-33.5 -59.5t-12 -85t12 -85t33.5 -59.5t50.5 -35t64 -11.5zM153 588l58 158h99l-86 -158h-71zM324 588l58 158h99l-87 -158h-70z" />
    <glyph glyph-name="OE" unicode="&#x152;" horiz-adv-x="1032" 
d="M42 367q0 99 28.5 166.5t78 108t117.5 58t146 17.5h550v-86h-352v-217h299v-85h-299v-244h357v-85h-564q-78 0 -144.5 23.5t-114.5 69.5t-75 114.5t-27 159.5zM516 85v546h-104q-58 0 -107 -12t-85 -42t-56 -81.5t-20 -129.5q0 -74 20 -127t57 -87t88.5 -50.5
t113.5 -16.5h93z" />
    <glyph glyph-name="oe" unicode="&#x153;" horiz-adv-x="950" 
d="M897 44q-11 -8 -27 -17t-39 -17.5t-52 -14t-65 -5.5q-84 0 -139 29.5t-84 86.5q-31 -57 -84 -86.5t-122 -29.5q-53 0 -99 18t-79.5 52.5t-52.5 84.5t-19 115q0 64 19 114.5t52.5 84.5t79.5 52t99 18q70 0 123.5 -30t83.5 -87q29 57 80.5 87t120.5 30q56 0 100 -19
t72.5 -56t39 -91.5t-0.5 -126.5h-366q5 -84 49.5 -125.5t134.5 -41.5q60 0 103 17t72 37v-79zM691 451q-57 0 -98 -35t-52 -106h279q4 72 -33 106.5t-96 34.5zM285 69q35 0 64.5 11.5t51.5 35t34 59.5t12 85t-12 85t-34 59.5t-51.5 35t-64.5 11.5t-64 -11.5t-50.5 -35
t-33.5 -59.5t-12 -85t12 -85t33.5 -59.5t50.5 -35t64 -11.5z" />
    <glyph glyph-name="Racute" unicode="&#x154;" horiz-adv-x="651" 
d="M84 717h240q127 0 193.5 -49.5t66.5 -155.5q0 -94 -45.5 -144t-119.5 -66l195 -302h-106l-187 291h-143v-291h-94v717zM178 631v-255h137q38 0 69.5 7t54 23t35 42.5t12.5 65.5q0 64 -42 90.5t-120 26.5h-146zM333 909h125l-136 -136h-85z" />
    <glyph glyph-name="racute" unicode="&#x155;" horiz-adv-x="364" 
d="M329 431q-56 -5 -101.5 -28.5t-67.5 -72.5v-330h-88v519h77l9 -113h2q22 46 63.5 80.5t105.5 42.5v-98v0zM225 746h115l-131 -158h-75z" />
    <glyph glyph-name="uni0156" unicode="&#x156;" horiz-adv-x="651" 
d="M84 717h240q127 0 193.5 -49.5t66.5 -155.5q0 -94 -45.5 -144t-119.5 -66l195 -302h-106l-187 291h-143v-291h-94v717zM178 631v-255h137q38 0 69.5 7t54 23t35 42.5t12.5 65.5q0 64 -42 90.5t-120 26.5h-146zM384 -114q0 -19 -5.5 -35.5t-14.5 -30.5t-19.5 -26
t-20.5 -22h-62q16 15 27.5 32t25.5 42q-18 4 -29.5 17.5t-11.5 33.5q0 22 15 37t38 15t40 -15.5t17 -47.5z" />
    <glyph glyph-name="uni0157" unicode="&#x157;" horiz-adv-x="364" 
d="M329 431q-56 -5 -101.5 -28.5t-67.5 -72.5v-330h-88v519h77l9 -113h2q22 46 63.5 80.5t105.5 42.5v-98v0zM179 -114q0 -19 -5.5 -35.5t-14.5 -30.5t-19.5 -26t-20.5 -22h-62q16 15 27.5 32t25.5 42q-18 4 -29.5 17.5t-11.5 33.5q0 22 15 37t38 15t40 -15.5t17 -47.5z" />
    <glyph glyph-name="Rcaron" unicode="&#x158;" horiz-adv-x="651" 
d="M84 717h240q127 0 193.5 -49.5t66.5 -155.5q0 -94 -45.5 -144t-119.5 -66l195 -302h-106l-187 291h-143v-291h-94v717zM178 631v-255h137q38 0 69.5 7t54 23t35 42.5t12.5 65.5q0 64 -42 90.5t-120 26.5h-146zM356 763h-100l-105 148h75l80 -85l80 85h75z" />
    <glyph glyph-name="rcaron" unicode="&#x159;" horiz-adv-x="364" 
d="M329 431q-56 -5 -101.5 -28.5t-67.5 -72.5v-330h-88v519h77l9 -113h2q22 46 63.5 80.5t105.5 42.5v-98v0zM249 588h-100l-105 148h75l80 -85l80 85h75z" />
    <glyph glyph-name="Sacute" unicode="&#x15a;" horiz-adv-x="586" 
d="M284 -10q-49 0 -88 6.5t-68.5 17t-50 23t-32.5 24.5v90q15 -13 39 -26.5t55.5 -24.5t68 -18t76.5 -7q78 0 124 29.5t46 89.5q0 30 -11 49.5t-32 33t-52.5 23t-73.5 20.5t-84 25t-75.5 37t-54 58t-20.5 89q0 93 65 145t199 52q39 0 69.5 -4.5t54 -11t41 -14.5t31.5 -15
v-90q-42 27 -90.5 38.5t-105.5 11.5q-48 0 -80.5 -7.5t-52.5 -21.5t-29 -34t-9 -45q0 -30 13.5 -50t36 -33.5t51.5 -22.5t61 -16q42 -10 86 -23t79 -36t57.5 -59.5t22.5 -94.5q0 -57 -22.5 -96.5t-59.5 -64.5t-85 -36t-100 -11zM341 909h125l-136 -136h-85z" />
    <glyph glyph-name="sacute" unicode="&#x15b;" horiz-adv-x="483" 
d="M238 -10q-41 0 -72.5 6.5t-55 16t-39.5 20t-25 18.5v79q10 -10 27 -21.5t41 -21.5t54.5 -16.5t68.5 -6.5q56 0 89 18t33 61q0 23 -10.5 37t-28.5 22.5t-41.5 13.5t-49.5 10q-33 7 -65 15.5t-58 25t-42 43t-16 69.5q0 70 54.5 110t152.5 40q55 0 97.5 -11t65.5 -24v-79
q-26 17 -64.5 28.5t-95.5 11.5q-59 0 -90.5 -16t-31.5 -58q0 -21 9 -33.5t24.5 -20t35.5 -11.5t42 -9q34 -7 70 -15t64.5 -25t47 -45.5t18.5 -76.5q0 -45 -18 -75t-47.5 -47.5t-67 -25t-76.5 -7.5zM271 746h115l-131 -158h-75z" />
    <glyph glyph-name="Scircumflex" unicode="&#x15c;" horiz-adv-x="586" 
d="M284 -10q-49 0 -88 6.5t-68.5 17t-50 23t-32.5 24.5v90q15 -13 39 -26.5t55.5 -24.5t68 -18t76.5 -7q78 0 124 29.5t46 89.5q0 30 -11 49.5t-32 33t-52.5 23t-73.5 20.5t-84 25t-75.5 37t-54 58t-20.5 89q0 93 65 145t199 52q39 0 69.5 -4.5t54 -11t41 -14.5t31.5 -15
v-90q-42 27 -90.5 38.5t-105.5 11.5q-48 0 -80.5 -7.5t-52.5 -21.5t-29 -34t-9 -45q0 -30 13.5 -50t36 -33.5t51.5 -22.5t61 -16q42 -10 86 -23t79 -36t57.5 -59.5t22.5 -94.5q0 -57 -22.5 -96.5t-59.5 -64.5t-85 -36t-100 -11zM304 848l-80 -85h-75l105 148h100l105 -148
h-75z" />
    <glyph glyph-name="scircumflex" unicode="&#x15d;" horiz-adv-x="483" 
d="M238 -10q-41 0 -72.5 6.5t-55 16t-39.5 20t-25 18.5v79q10 -10 27 -21.5t41 -21.5t54.5 -16.5t68.5 -6.5q56 0 89 18t33 61q0 23 -10.5 37t-28.5 22.5t-41.5 13.5t-49.5 10q-33 7 -65 15.5t-58 25t-42 43t-16 69.5q0 70 54.5 110t152.5 40q55 0 97.5 -11t65.5 -24v-79
q-26 17 -64.5 28.5t-95.5 11.5q-59 0 -90.5 -16t-31.5 -58q0 -21 9 -33.5t24.5 -20t35.5 -11.5t42 -9q34 -7 70 -15t64.5 -25t47 -45.5t18.5 -76.5q0 -45 -18 -75t-47.5 -47.5t-67 -25t-76.5 -7.5zM236 673l-80 -85h-75l105 148h100l105 -148h-75z" />
    <glyph glyph-name="uni015E" unicode="&#x15e;" horiz-adv-x="586" 
d="M284 -10q-49 0 -88 6.5t-68.5 17t-50 23t-32.5 24.5v90q15 -13 39 -26.5t55.5 -24.5t68 -18t76.5 -7q78 0 124 29.5t46 89.5q0 30 -11 49.5t-32 33t-52.5 23t-73.5 20.5t-84 25t-75.5 37t-54 58t-20.5 89q0 93 65 145t199 52q39 0 69.5 -4.5t54 -11t41 -14.5t31.5 -15
v-90q-42 27 -90.5 38.5t-105.5 11.5q-48 0 -80.5 -7.5t-52.5 -21.5t-29 -34t-9 -45q0 -30 13.5 -50t36 -33.5t51.5 -22.5t61 -16q42 -10 86 -23t79 -36t57.5 -59.5t22.5 -94.5q0 -57 -22.5 -96.5t-59.5 -64.5t-85 -36t-100 -11zM349 20l-59 -207h-110l94 207h75z" />
    <glyph glyph-name="uni015F" unicode="&#x15f;" horiz-adv-x="483" 
d="M238 -10q-41 0 -72.5 6.5t-55 16t-39.5 20t-25 18.5v79q10 -10 27 -21.5t41 -21.5t54.5 -16.5t68.5 -6.5q56 0 89 18t33 61q0 23 -10.5 37t-28.5 22.5t-41.5 13.5t-49.5 10q-33 7 -65 15.5t-58 25t-42 43t-16 69.5q0 70 54.5 110t152.5 40q55 0 97.5 -11t65.5 -24v-79
q-26 17 -64.5 28.5t-95.5 11.5q-59 0 -90.5 -16t-31.5 -58q0 -21 9 -33.5t24.5 -20t35.5 -11.5t42 -9q34 -7 70 -15t64.5 -25t47 -45.5t18.5 -76.5q0 -45 -18 -75t-47.5 -47.5t-67 -25t-76.5 -7.5zM301 20l-59 -207h-110l94 207h75z" />
    <glyph glyph-name="Scaron" unicode="&#x160;" horiz-adv-x="586" 
d="M279 -10q-49 0 -88 6.5t-68.5 17t-50 23t-32.5 24.5v90q15 -13 39 -26.5t55.5 -24.5t68 -18t76.5 -7q78 0 124 29.5t46 89.5q0 30 -11 49.5t-32 33t-52.5 23t-73.5 20.5t-84 25t-75.5 37t-54 58t-20.5 89q0 93 65 145t199 52q39 0 69.5 -4.5t54 -11t41 -14.5t31.5 -15
v-90q-42 27 -90.5 38.5t-105.5 11.5q-48 0 -80.5 -7.5t-52.5 -21.5t-29 -34t-9 -45q0 -30 13.5 -50t36 -33.5t51.5 -22.5t61 -16q42 -10 86 -23t79 -36t57.5 -59.5t22.5 -94.5q0 -57 -22.5 -96.5t-59.5 -64.5t-85 -36t-100 -11zM343 763h-100l-105 148h75l80 -85l80 85h75z
" />
    <glyph glyph-name="scaron" unicode="&#x161;" horiz-adv-x="483" 
d="M232 -10q-41 0 -72.5 6.5t-55 16t-39.5 20t-25 18.5v79q10 -10 27 -21.5t41 -21.5t54.5 -16.5t68.5 -6.5q56 0 89 18t33 61q0 23 -10.5 37t-28.5 22.5t-41.5 13.5t-49.5 10q-33 7 -65 15.5t-58 25t-42 43t-16 69.5q0 70 54.5 110t152.5 40q55 0 97.5 -11t65.5 -24v-79
q-26 17 -64.5 28.5t-95.5 11.5q-59 0 -90.5 -16t-31.5 -58q0 -21 9 -33.5t24.5 -20t35.5 -11.5t42 -9q34 -7 70 -15t64.5 -25t47 -45.5t18.5 -76.5q0 -45 -18 -75t-47.5 -47.5t-67 -25t-76.5 -7.5zM291 588h-100l-105 148h75l80 -85l80 85h75z" />
    <glyph glyph-name="Tcommaaccent" unicode="&#x162;" horiz-adv-x="597" 
d="M346 630v-630h-95v630h-221v87h537v-87h-221zM354 -114q0 -19 -5.5 -35.5t-14.5 -30.5t-19.5 -26t-20.5 -22h-62q16 15 27.5 32t25.5 42q-18 4 -29.5 17.5t-11.5 33.5q0 22 15 37t38 15t40 -15.5t17 -47.5z" />
    <glyph glyph-name="tcommaaccent" unicode="&#x163;" horiz-adv-x="371" 
d="M326 11q-16 -9 -41 -15t-53 -6q-38 0 -64.5 11t-43.5 29.5t-24.5 42t-7.5 48.5v323h-62v75h62v109h88v-109h151v-75h-151v-312q0 -33 16.5 -48t58.5 -15q39 0 71 22v-80v0zM257 -114q0 -19 -5.5 -35.5t-14.5 -30.5t-19.5 -26t-20.5 -22h-62q16 15 27.5 32t25.5 42
q-18 4 -29.5 17.5t-11.5 33.5q0 22 15 37t38 15t40 -15.5t17 -47.5z" />
    <glyph glyph-name="Tcaron" unicode="&#x164;" horiz-adv-x="597" 
d="M346 630v-630h-95v630h-221v87h537v-87h-221zM351 763h-100l-105 148h75l80 -85l80 85h75z" />
    <glyph glyph-name="tcaron" unicode="&#x165;" horiz-adv-x="371" 
d="M326 11q-16 -9 -41 -15t-53 -6q-38 0 -64.5 11t-43.5 29.5t-24.5 42t-7.5 48.5v323h-62v75h62v109h88v-109h151v-75h-151v-312q0 -33 16.5 -48t58.5 -15q39 0 71 22v-80v0zM256.447 548.671l19.334 167.763h97.6406l-58.0039 -167.763h-58.9707z" />
    <glyph glyph-name="Tbar" unicode="&#x166;" horiz-adv-x="599" 
d="M80 431h171v199h-221v87h537v-87h-221v-199h170v-75h-170v-356h-95v356h-171v75z" />
    <glyph glyph-name="tbar" unicode="&#x167;" horiz-adv-x="372" 
d="M327 11q-16 -9 -41 -15t-53 -6q-38 0 -64.5 11t-43.5 29.5t-24.5 42t-7.5 48.5v157h-62v75h62v91h-62v75h62v109h88v-109h151v-75h-151v-91h151v-75h-151v-146q0 -33 16.5 -48t58.5 -15q39 0 71 22v-80z" />
    <glyph glyph-name="Utilde" unicode="&#x168;" horiz-adv-x="692" 
d="M67 717h95v-472q0 -87 49.5 -129t135.5 -42q42 0 77.5 10.5t61.5 32t40.5 53.5t14.5 75v472h90v-469q0 -62 -22 -110t-60.5 -81t-90.5 -50t-113 -17q-59 0 -110 16t-88.5 48t-58.5 79.5t-21 110.5v473zM178 784q-4 25 0 49t16 43t32 30.5t50 11.5q26 0 46.5 -8.5
t37.5 -19t31.5 -19t29.5 -8.5q41 0 38 59h63q4 -25 0 -49t-16 -43t-32.5 -30.5t-49.5 -11.5q-26 0 -46 8.5t-37 19t-32 19t-30 8.5q-41 0 -37 -59h-64v0z" />
    <glyph glyph-name="utilde" unicode="&#x169;" horiz-adv-x="565" 
d="M405 93q-21 -44 -64.5 -73.5t-113.5 -29.5q-72 0 -116.5 40.5t-44.5 125.5v363h89v-363q0 -26 7.5 -42.5t20.5 -26.5t30.5 -14t38.5 -4q58 0 93 26t60 71v353h88v-519h-78l-8 93h-2v0zM117 598q-3 22 0.5 44t14.5 38.5t30 27t47 10.5q24 0 43 -6.5t35 -14t29.5 -14
t27.5 -6.5q37 0 34 45h63q3 -23 -0.5 -44.5t-15 -38t-30.5 -27t-46 -10.5q-24 0 -43 6.5t-35 14t-30 14t-27 6.5q-37 0 -34 -45h-63v0z" />
    <glyph glyph-name="Umacron" unicode="&#x16a;" horiz-adv-x="692" 
d="M67 717h95v-472q0 -87 49.5 -129t135.5 -42q42 0 77.5 10.5t61.5 32t40.5 53.5t14.5 75v472h90v-469q0 -62 -22 -110t-60.5 -81t-90.5 -50t-113 -17q-59 0 -110 16t-88.5 48t-58.5 79.5t-21 110.5v473zM191 878h310v-70h-310v70z" />
    <glyph glyph-name="umacron" unicode="&#x16b;" horiz-adv-x="565" 
d="M405 93q-21 -44 -64.5 -73.5t-113.5 -29.5q-72 0 -116.5 40.5t-44.5 125.5v363h89v-363q0 -26 7.5 -42.5t20.5 -26.5t30.5 -14t38.5 -4q58 0 93 26t60 71v353h88v-519h-78l-8 93h-2v0zM133 687h290v-70h-290v70z" />
    <glyph glyph-name="Ubreve" unicode="&#x16c;" horiz-adv-x="692" 
d="M67 717h95v-472q0 -87 49.5 -129t135.5 -42q42 0 77.5 10.5t61.5 32t40.5 53.5t14.5 75v472h90v-469q0 -62 -22 -110t-60.5 -81t-90.5 -50t-113 -17q-59 0 -110 16t-88.5 48t-58.5 79.5t-21 110.5v473zM346 763q-41 0 -71.5 12t-50.5 33t-30 49.5t-10 61.5h88
q0 -49 19.5 -70t54.5 -21t54 21t19 70h88q0 -33 -10 -61.5t-30 -49.5t-50 -33t-71 -12z" />
    <glyph glyph-name="ubreve" unicode="&#x16d;" horiz-adv-x="565" 
d="M405 93q-21 -44 -64.5 -73.5t-113.5 -29.5q-72 0 -116.5 40.5t-44.5 125.5v363h89v-363q0 -26 7.5 -42.5t20.5 -26.5t30.5 -14t38.5 -4q58 0 93 26t60 71v353h88v-519h-78l-8 93h-2v0zM277 588q-38 0 -66.5 11t-47.5 30t-28.5 45t-9.5 55h88q0 -42 17.5 -59.5t46.5 -17.5
q30 0 46.5 17.5t16.5 59.5h88q0 -29 -9.5 -55t-28 -45t-47 -30t-66.5 -11z" />
    <glyph glyph-name="Uring" unicode="&#x16e;" horiz-adv-x="692" 
d="M67 717h95v-472q0 -87 49.5 -129t135.5 -42q42 0 77.5 10.5t61.5 32t40.5 53.5t14.5 75v472h90v-469q0 -62 -22 -110t-60.5 -81t-90.5 -50t-113 -17q-59 0 -110 16t-88.5 48t-58.5 79.5t-21 110.5v473zM346 735q-48 0 -79.5 30.5t-31.5 78.5t31.5 78.5t79.5 30.5
t79.5 -30.5t31.5 -78.5t-31.5 -78.5t-79.5 -30.5zM346 790q23 0 38.5 15t15.5 39t-15.5 39.5t-38.5 15.5t-38 -15.5t-15 -39.5t15 -39t38 -15z" />
    <glyph glyph-name="uring" unicode="&#x16f;" horiz-adv-x="565" 
d="M405 93q-21 -44 -64.5 -73.5t-113.5 -29.5q-72 0 -116.5 40.5t-44.5 125.5v363h89v-363q0 -26 7.5 -42.5t20.5 -26.5t30.5 -14t38.5 -4q58 0 93 26t60 71v353h88v-519h-78l-8 93h-2v0zM279 571q-48 0 -79.5 30.5t-31.5 78.5t31.5 78.5t79.5 30.5t79.5 -30.5t31.5 -78.5
t-31.5 -78.5t-79.5 -30.5zM279 626q23 0 38.5 15t15.5 39t-15.5 39.5t-38.5 15.5t-38 -15.5t-15 -39.5t15 -39t38 -15z" />
    <glyph glyph-name="Uhungarumlaut" unicode="&#x170;" horiz-adv-x="692" 
d="M67 717h95v-472q0 -87 49.5 -129t135.5 -42q42 0 77.5 10.5t61.5 32t40.5 53.5t14.5 75v472h90v-469q0 -62 -22 -110t-60.5 -81t-90.5 -50t-113 -17q-59 0 -110 16t-88.5 48t-58.5 79.5t-21 110.5v473zM200 773l64 136h111l-95 -136h-80zM398 773l64 136h111l-95 -136
h-80z" />
    <glyph glyph-name="uhungarumlaut" unicode="&#x171;" horiz-adv-x="565" 
d="M405 93q-21 -44 -64.5 -73.5t-113.5 -29.5q-72 0 -116.5 40.5t-44.5 125.5v363h89v-363q0 -26 7.5 -42.5t20.5 -26.5t30.5 -14t38.5 -4q58 0 93 26t60 71v353h88v-519h-78l-8 93h-2v0zM152 588l58 158h99l-86 -158h-71zM323 588l58 158h99l-87 -158h-70z" />
    <glyph glyph-name="Uogonek" unicode="&#x172;" horiz-adv-x="692" 
d="M67 717h95v-472q0 -87 49.5 -129t135.5 -42q42 0 77.5 10.5t61.5 32t40.5 53.5t14.5 75v472h90v-469q0 -62 -22 -110t-60.5 -81t-90.5 -50t-113 -17q-59 0 -110 16t-88.5 48t-58.5 79.5t-21 110.5v473zM400 -192q-55 0 -85 24.5t-30 66.5q0 21 7 37.5t18.5 28.5t25 20.5
t27.5 14.5h68q-27 -10 -48.5 -30t-21.5 -50q0 -20 13 -34.5t43 -14.5q20 0 42 8v-60q-7 -5 -22.5 -8t-36.5 -3z" />
    <glyph glyph-name="uogonek" unicode="&#x173;" horiz-adv-x="565" 
d="M521 -181q-8 -5 -23 -8t-36 -3q-59 0 -87.5 28.5t-28.5 70.5q0 35 20.5 60t48.5 39l-8 87h-2q-21 -44 -64.5 -73.5t-113.5 -29.5q-72 0 -116.5 40.5t-44.5 125.5v363h89v-363q0 -26 7.5 -42.5t20.5 -26.5t30.5 -14t38.5 -4q58 0 93 26t60 71v353h88v-519
q-27 -10 -48.5 -30t-21.5 -50q0 -20 12.5 -34.5t42.5 -14.5q12 0 22 2t21 6v-60v0z" />
    <glyph glyph-name="Wcircumflex" unicode="&#x174;" horiz-adv-x="951" 
d="M772 0h-138l-158 554l-159 -554h-139l-158 717h98l136 -636l184 636h86l180 -624l135 624h91zM479 848l-80 -85h-75l105 148h100l105 -148h-75z" />
    <glyph glyph-name="wcircumflex" unicode="&#x175;" horiz-adv-x="785" 
d="M637 0h-135l-110 401l-113 -401h-131l-118 519h93l99 -453l126 453h99l123 -448l98 448h87zM397 673l-80 -85h-75l105 148h100l105 -148h-75z" />
    <glyph glyph-name="Ycircumflex" unicode="&#x176;" horiz-adv-x="624" 
d="M361 311v-311h-96v308l-245 409h108l188 -326l192 326h96zM317 848l-80 -85h-75l105 148h100l105 -148h-75z" />
    <glyph glyph-name="ycircumflex" unicode="&#x177;" horiz-adv-x="531" 
d="M327 6q-18 -47 -38 -82.5t-45 -60.5t-56 -37.5t-71 -12.5q-20 0 -37 2.5t-31 8.5v85q11 -8 28 -12.5t37 -4.5q37 0 61 17.5t46 55.5l-211 554h97l165 -438l164 438h85l-194 -513v0zM269 673l-80 -85h-75l105 148h100l105 -148h-75z" />
    <glyph glyph-name="Ydieresis" unicode="&#x178;" horiz-adv-x="624" 
d="M361 311v-311h-96v308l-245 409h108l188 -326l192 326h96zM211 786q-26 0 -41.5 16.5t-15.5 39.5q0 24 15.5 40.5t41.5 16.5t41 -16.5t15 -40.5q0 -23 -15 -39.5t-41 -16.5zM426 786q-26 0 -42 16.5t-16 39.5q0 24 16 40.5t42 16.5t41.5 -16.5t15.5 -40.5
q0 -23 -15.5 -39.5t-41.5 -16.5z" />
    <glyph glyph-name="Zacute" unicode="&#x179;" horiz-adv-x="614" 
d="M561 0h-518v68l400 563h-389v86h506v-69l-403 -563h404v-85zM345 909h125l-136 -136h-85z" />
    <glyph glyph-name="zacute" unicode="&#x17a;" horiz-adv-x="459" 
d="M419 0h-384v57l273 387h-265v75h375v-57l-273 -387h274v-75zM267 746h115l-131 -158h-75z" />
    <glyph glyph-name="Zdotaccent" unicode="&#x17b;" horiz-adv-x="614" 
d="M561 0h-518v68l400 563h-389v86h506v-69l-403 -563h404v-85zM304 786q-26 0 -41.5 16.5t-15.5 39.5q0 24 15.5 40.5t41.5 16.5t41.5 -16.5t15.5 -40.5q0 -23 -15.5 -39.5t-41.5 -16.5z" />
    <glyph glyph-name="zdotaccent" unicode="&#x17c;" horiz-adv-x="459" 
d="M419 0h-384v57l273 387h-265v75h375v-57l-273 -387h274v-75zM230 595q-26 0 -41.5 16.5t-15.5 39.5q0 25 15.5 41t41.5 16t41.5 -16t15.5 -41q0 -23 -15.5 -39.5t-41.5 -16.5z" />
    <glyph glyph-name="Zcaron" unicode="&#x17d;" horiz-adv-x="614" 
d="M561 0h-518v68l400 563h-389v86h506v-69l-403 -563h404v-85zM369 763h-100l-105 148h75l80 -85l80 85h75z" />
    <glyph glyph-name="zcaron" unicode="&#x17e;" horiz-adv-x="459" 
d="M419 0h-384v57l273 387h-265v75h375v-57l-273 -387h274v-75zM281 588h-100l-105 148h75l80 -85l80 85h75z" />
    <glyph glyph-name="uni0192" unicode="&#x192;" 
d="M277 16q-34 -203 -197 -203q-22 0 -40.5 3t-31.5 7v73q9 -4 29.5 -8.5t40.5 -4.5q51 0 76.5 33t37.5 106l57 341h-90l15 71h87l15 89q17 107 68.5 155t142.5 48q14 0 28.5 -1.5t28.5 -3.5v-80q-10 4 -31 7t-41 3q-25 0 -43 -6.5t-31 -21.5t-21.5 -39.5t-14.5 -60.5
l-15 -89h143l-15 -71h-140l-58 -347v0z" />
    <glyph glyph-name="uni0218" unicode="&#x218;" horiz-adv-x="586" 
d="M279 -10q-49 0 -88 6.5t-68.5 17t-50 23t-32.5 24.5v90q15 -13 39 -26.5t55.5 -24.5t68 -18t76.5 -7q78 0 124 29.5t46 89.5q0 30 -11 49.5t-32 33t-52.5 23t-73.5 20.5t-84 25t-75.5 37t-54 58t-20.5 89q0 93 65 145t199 52q39 0 69.5 -4.5t54 -11t41 -14.5t31.5 -15
v-90q-42 27 -90.5 38.5t-105.5 11.5q-48 0 -80.5 -7.5t-52.5 -21.5t-29 -34t-9 -45q0 -30 13.5 -50t36 -33.5t51.5 -22.5t61 -16q42 -10 86 -23t79 -36t57.5 -59.5t22.5 -94.5q0 -57 -22.5 -96.5t-59.5 -64.5t-85 -36t-100 -11zM354 -114q0 -19 -5.5 -35.5t-14.5 -30.5
t-19.5 -26t-20.5 -22h-62q16 15 27.5 32t25.5 42q-18 4 -29.5 17.5t-11.5 33.5q0 22 15 37t38 15t40 -15.5t17 -47.5z" />
    <glyph glyph-name="uni0219" unicode="&#x219;" horiz-adv-x="483" 
d="M238 -10q-41 0 -72.5 6.5t-55 16t-39.5 20t-25 18.5v79q10 -10 27 -21.5t41 -21.5t54.5 -16.5t68.5 -6.5q56 0 89 18t33 61q0 23 -10.5 37t-28.5 22.5t-41.5 13.5t-49.5 10q-33 7 -65 15.5t-58 25t-42 43t-16 69.5q0 70 54.5 110t152.5 40q55 0 97.5 -11t65.5 -24v-79
q-26 17 -64.5 28.5t-95.5 11.5q-59 0 -90.5 -16t-31.5 -58q0 -21 9 -33.5t24.5 -20t35.5 -11.5t42 -9q34 -7 70 -15t64.5 -25t47 -45.5t18.5 -76.5q0 -45 -18 -75t-47.5 -47.5t-67 -25t-76.5 -7.5zM304 -114q0 -19 -5.5 -35.5t-14.5 -30.5t-19.5 -26t-20.5 -22h-62
q16 15 27.5 32t25.5 42q-18 4 -29.5 17.5t-11.5 33.5q0 22 15 37t38 15t40 -15.5t17 -47.5z" />
    <glyph glyph-name="uni021A" unicode="&#x21a;" horiz-adv-x="597" 
d="M346 630v-630h-95v630h-221v87h537v-87h-221zM354 -114q0 -19 -5.5 -35.5t-14.5 -30.5t-19.5 -26t-20.5 -22h-62q16 15 27.5 32t25.5 42q-18 4 -29.5 17.5t-11.5 33.5q0 22 15 37t38 15t40 -15.5t17 -47.5z" />
    <glyph glyph-name="uni021B" unicode="&#x21b;" horiz-adv-x="371" 
d="M326 11q-16 -9 -41 -15t-53 -6q-38 0 -64.5 11t-43.5 29.5t-24.5 42t-7.5 48.5v323h-62v75h62v109h88v-109h151v-75h-151v-312q0 -33 16.5 -48t58.5 -15q39 0 71 22v-80v0zM257 -114q0 -19 -5.5 -35.5t-14.5 -30.5t-19.5 -26t-20.5 -22h-62q16 15 27.5 32t25.5 42
q-18 4 -29.5 17.5t-11.5 33.5q0 22 15 37t38 15t40 -15.5t17 -47.5z" />
    <glyph glyph-name="uni0237" unicode="&#x237;" horiz-adv-x="239" 
d="M168 -44q0 -29 -8 -55t-25.5 -45.5t-44.5 -31t-64 -11.5q-20 0 -44 4.5t-47 16.5v85q14 -11 33 -19t43 -8q38 0 53.5 18t15.5 44v565h88v-563z" />
    <glyph glyph-name="uni02BC" unicode="&#x2bc;" horiz-adv-x="251" 
d="M190 651q0 -21 -6 -41t-16 -38.5t-21.5 -34.5t-21.5 -27h-65q15 17 28.5 40.5t22.5 53.5q-21 5 -33 21t-12 37q0 26 16.5 42.5t44.5 16.5q27 0 45 -18t18 -52z" />
    <glyph glyph-name="circumflex" unicode="&#x2c6;" horiz-adv-x="451" 
d="M225 673l-80 -85h-75l105 148h100l105 -148h-75z" />
    <glyph glyph-name="caron" unicode="&#x2c7;" horiz-adv-x="451" 
d="M275 588h-100l-105 148h75l80 -85l80 85h75z" />
    <glyph glyph-name="breve" unicode="&#x2d8;" horiz-adv-x="450" 
d="M225 588q-38 0 -66.5 11t-47.5 30t-28.5 45t-9.5 55h88q0 -42 17.5 -59.5t46.5 -17.5q30 0 46.5 17.5t16.5 59.5h88q0 -29 -9.5 -55t-28 -45t-47 -30t-66.5 -11z" />
    <glyph glyph-name="dotaccent" unicode="&#x2d9;" horiz-adv-x="451" 
d="M225 595q-26 0 -41.5 16.5t-15.5 39.5q0 25 15.5 41t41.5 16t41.5 -16t15.5 -41q0 -23 -15.5 -39.5t-41.5 -16.5z" />
    <glyph glyph-name="ring" unicode="&#x2da;" horiz-adv-x="451" 
d="M225 571q-48 0 -79.5 30.5t-31.5 78.5t31.5 78.5t79.5 30.5t79.5 -30.5t31.5 -78.5t-31.5 -78.5t-79.5 -30.5zM225 626q23 0 38.5 15t15.5 39t-15.5 39.5t-38.5 15.5t-38 -15.5t-15 -39.5t15 -39t38 -15z" />
    <glyph glyph-name="ogonek" unicode="&#x2db;" horiz-adv-x="450" 
d="M246 -192q-55 0 -85 24.5t-30 66.5q0 21 7 37.5t18.5 28.5t25 20.5t27.5 14.5h68q-27 -10 -48.5 -30t-21.5 -50q0 -20 13 -34.5t43 -14.5q20 0 42 8v-60q-7 -5 -22.5 -8t-36.5 -3z" />
    <glyph glyph-name="tilde" unicode="&#x2dc;" horiz-adv-x="451" 
d="M63 598q-3 22 0.5 44t14.5 38.5t30 27t47 10.5q24 0 43 -6.5t35 -14t29.5 -14t27.5 -6.5q37 0 34 45h63q3 -23 -0.5 -44.5t-15 -38t-30.5 -27t-46 -10.5q-24 0 -43 6.5t-35 14t-30 14t-27 6.5q-37 0 -34 -45h-63v0z" />
    <glyph glyph-name="hungarumlaut" unicode="&#x2dd;" horiz-adv-x="451" 
d="M80 588l58 158h99l-86 -158h-71zM251 588l58 158h99l-87 -158h-70z" />
    <glyph glyph-name="acutecomb" unicode="&#x301;" horiz-adv-x="0" 
d="M-220 746h115l-131 -158h-75z" />
    <glyph glyph-name="uni0401" unicode="&#x401;" horiz-adv-x="598" 
d="M400 772q-25 0 -40.5 16.5t-15.5 41.5q0 24 15.5 40.5t40.5 16.5q26 0 41 -16.5t15 -40.5q0 -25 -15 -41.5t-41 -16.5zM211 772q-26 0 -41 16.5t-15 41.5q0 24 15 40.5t41 16.5t41 -16.5t15 -40.5q0 -25 -15 -41.5t-41 -16.5zM84 717h444v-86h-350v-217h297v-85h-297
v-244h355v-85h-449v717z" />
    <glyph glyph-name="uni0402" unicode="&#x402;" horiz-adv-x="800" 
d="M346 630v-214q22 13 55 23q43 13 92 13q61 0 110.5 -18.5t84 -54.5t53 -89.5t18.5 -123.5q0 -142 -71.5 -217t-194.5 -75v85q89 0 130 53.5t41 153.5q0 97 -42.5 149t-130.5 52q-47 0 -87 -11q-32 -9 -58 -27v-329h-95v630h-221v87h537v-87h-221z" />
    <glyph glyph-name="uni0403" unicode="&#x403;" horiz-adv-x="544" 
d="M317 909h125l-136 -136h-85zM84 717h418v-86h-324v-631h-94v717z" />
    <glyph glyph-name="uni0404" unicode="&#x404;" horiz-adv-x="679" 
d="M619 51q-29 -23 -84.5 -42t-132.5 -19q-81 0 -147.5 25t-113.5 72.5t-73 116t-26 154.5q0 87 23.5 155t68.5 115.5t111 72.5t152 25q73 0 129 -15.5t91 -36.5v-90q-47 29 -105.5 43t-115.5 14q-118 0 -179 -58.5t-71 -176.5h337v-84h-338q8 -125 74.5 -186t189.5 -61
q57 0 109.5 15t100.5 51v-90v0z" />
    <glyph glyph-name="uni0405" unicode="&#x405;" horiz-adv-x="578" 
d="M284 -10q-49 0 -88 6.5t-68.5 17t-50 23t-32.5 24.5v90q15 -13 39 -26.5t55.5 -24.5t68 -18t76.5 -7q78 0 124 29.5t46 89.5q0 30 -11 49.5t-32 33t-52.5 23t-73.5 20.5t-84 25t-75.5 37t-54 58t-20.5 89q0 93 65 145t199 52q39 0 69.5 -4.5t54 -11t41 -14.5t31.5 -15
v-90q-42 27 -90.5 38.5t-105.5 11.5q-48 0 -80.5 -7.5t-52.5 -21.5t-29 -34t-9 -45q0 -30 13.5 -50t36 -33.5t51.5 -22.5t61 -16q42 -10 86 -23t79 -36t57.5 -59.5t22.5 -94.5q0 -57 -22.5 -96.5t-59.5 -64.5t-85 -36t-100 -11z" />
    <glyph glyph-name="uni0406" unicode="&#x406;" horiz-adv-x="261" 
d="M178 717v-717h-94v717h94z" />
    <glyph glyph-name="uni0407" unicode="&#x407;" horiz-adv-x="261" 
d="M178 717v-717h-94v717h94zM23 786q-26 0 -41.5 16.5t-15.5 39.5q0 24 15.5 40.5t41.5 16.5t41 -16.5t15 -40.5q0 -23 -15 -39.5t-41 -16.5zM238 786q-26 0 -42 16.5t-16 39.5q0 24 16 40.5t42 16.5t41.5 -16.5t15.5 -40.5q0 -23 -15.5 -39.5t-41.5 -16.5z" />
    <glyph glyph-name="uni0408" unicode="&#x408;" horiz-adv-x="373" 
d="M293 717v-584q0 -27 -10 -53t-30.5 -46t-52 -32t-74.5 -12q-26 0 -52.5 4.5t-48.5 12.5v81q38 -13 79 -13q49 0 71.5 20.5t22.5 65.5v556h95z" />
    <glyph glyph-name="uni0409" unicode="&#x409;" horiz-adv-x="1028" 
d="M976 227q0 -62 -19 -105t-53.5 -70t-82.5 -39.5t-105 -12.5h-223v631h-249q-3 -147 -8 -253t-19 -181q-9 -40 -22 -76.5t-34.5 -64.5t-52.5 -44.5t-74 -16.5q-3 0 -6.5 0.5t-7.5 0.5v95q4 -1 12 -1q41 1 65 39t36 115.5t16 195.5t6 277h433v-278h141q121 0 184 -50
t63 -162zM588 355v-270h128q35 0 64.5 7t51 23t33.5 42.5t12 65.5q0 132 -151 132h-138z" />
    <glyph glyph-name="uni040A" unicode="&#x40a;" horiz-adv-x="1061" 
d="M1009 227q0 -62 -19 -105t-53.5 -70t-82.5 -39.5t-105 -12.5h-223v355h-348v-355h-94v717h94v-278h348v278h95v-278h141q120 0 183.5 -50t63.5 -162zM621 355v-270h128q35 0 64.5 7t51 23t33.5 42.5t12 65.5q0 66 -38.5 99t-112.5 33h-138z" />
    <glyph glyph-name="uni040B" unicode="&#x40b;" horiz-adv-x="780" 
d="M346 630v-215q21 12 53 23q41 14 103 14q50 0 91.5 -13.5t71.5 -42.5t47 -75t17 -111v-210h-96v205q0 47 -10.5 78t-28.5 50t-43 26.5t-54 7.5q-47 0 -88 -11q-35 -9 -63 -26v-330h-95v630h-221v87h537v-87h-221z" />
    <glyph glyph-name="uni040C" unicode="&#x40c;" horiz-adv-x="641" 
d="M254 307h-76v-307h-94v717h94v-325h70l256 325h106l-283 -358l294 -359h-117zM347 909h125l-136 -136h-85z" />
    <glyph glyph-name="uni040E" unicode="&#x40e;" horiz-adv-x="631" 
d="M336 756q-42 0 -73.5 11.5t-52.5 31t-31 46t-10 57.5h88q0 -44 21 -62.5t58 -18.5t57.5 18.5t20.5 62.5h88q0 -31 -10 -57.5t-31 -46t-52 -31t-73 -11.5zM389 194q-20 -47 -42 -83.5t-49 -61.5t-61.5 -37.5t-79.5 -12.5h-10t-10 1v94q5 -1 10.5 -1h10.5q53 0 83.5 24
t50.5 60l-266 540h107l207 -432l179 432h97z" />
    <glyph glyph-name="uni040F" unicode="&#x40f;" horiz-adv-x="724" 
d="M641 0h-232l-4 -170h-85l-4 170h-232v717h94v-632h368v632h95v-717z" />
    <glyph glyph-name="uni0410" unicode="&#x410;" horiz-adv-x="692" 
d="M275 717h140l257 -717h-100l-74 205h-317l-73 -205h-88zM468 290l-128 357l-128 -357h256z" />
    <glyph glyph-name="uni0411" unicode="&#x411;" horiz-adv-x="621" 
d="M84 717h437v-86h-343v-202h142q119 0 183 -49t64 -158q0 -60 -19 -102t-53.5 -69t-82.5 -39t-106 -12h-222v717zM178 344v-259h128q36 0 65.5 6.5t51 22.5t33.5 41t12 63q0 64 -39 95t-112 31h-139z" />
    <glyph glyph-name="uni0412" unicode="&#x412;" horiz-adv-x="645" 
d="M84 717h243q118 0 179.5 -40t61.5 -135q0 -39 -10.5 -67.5t-29 -49t-45 -33.5t-58.5 -20q84 -10 126.5 -48.5t42.5 -116.5q0 -56 -20.5 -95.5t-56.5 -64t-85 -36t-107 -11.5h-241v717zM178 631v-220h142q34 0 62 7.5t48 23t31.5 39t11.5 56.5q0 55 -38 74.5t-108 19.5
h-149zM178 326v-241h147q38 0 69 6t53.5 20t35 37t12.5 57q0 68 -43.5 94.5t-137.5 26.5h-136z" />
    <glyph glyph-name="uni0413" unicode="&#x413;" horiz-adv-x="544" 
d="M84 717h418v-86h-324v-631h-94v717z" />
    <glyph glyph-name="uni0414" unicode="&#x414;" horiz-adv-x="763" 
d="M631 85h92v-255h-87l-10 170h-515l-11 -170h-85v255h49q34 31 54.5 83.5t31.5 129.5t16 181t8 238h457v-632zM536 85v546h-274q-3 -114 -8.5 -201.5t-16 -153.5t-26 -112.5t-38.5 -78.5h363z" />
    <glyph glyph-name="uni0415" unicode="&#x415;" horiz-adv-x="598" 
d="M84 717h444v-86h-350v-217h297v-85h-297v-244h355v-85h-449v717z" />
    <glyph glyph-name="uni0416" unicode="&#x416;" horiz-adv-x="949" 
d="M423 315h-43l-250 -315h-112l291 365l-278 352h102l250 -323h40v323h95v-323h42l250 323h103l-280 -354l293 -363h-115l-252 315h-41v-315h-95v315z" />
    <glyph glyph-name="uni0417" unicode="&#x417;" horiz-adv-x="605" 
d="M179 328v80h101q75 0 114 32.5t39 89.5q0 61 -41 86.5t-108 25.5q-69 0 -124 -15t-97 -37v89q33 17 86.5 32t135.5 15q112 0 178 -46.5t66 -143.5q0 -63 -37.5 -104t-109.5 -58q85 -11 128.5 -51.5t43.5 -115.5q0 -57 -22 -98.5t-59.5 -67.5t-88.5 -38.5t-108 -12.5
q-81 0 -139 19.5t-85 42.5v90q93 -67 221 -67q37 0 70 6.5t58 21.5t39.5 40t14.5 62q0 68 -43.5 95.5t-129.5 27.5h-103z" />
    <glyph glyph-name="uni0418" unicode="&#x418;" horiz-adv-x="757" 
d="M178 125l394 592h102v-717h-96v589l-392 -589h-102v717h94v-592z" />
    <glyph glyph-name="uni0419" unicode="&#x419;" horiz-adv-x="757" 
d="M370 756q-42 0 -73.5 11.5t-52.5 31t-31 46t-10 57.5h88q0 -44 21 -62.5t58 -18.5t57.5 18.5t20.5 62.5h88q0 -31 -10 -57.5t-30.5 -46t-52 -31t-73.5 -11.5zM178 125l394 592h102v-717h-96v589l-392 -589h-102v717h94v-592z" />
    <glyph glyph-name="uni041A" unicode="&#x41a;" horiz-adv-x="641" 
d="M254 307h-76v-307h-94v717h94v-325h70l256 325h106l-283 -358l294 -359h-117z" />
    <glyph glyph-name="uni041B" unicode="&#x41b;" horiz-adv-x="680" 
d="M128 217q15 75 20 199t7 301h442v-717h-95v631h-258q-3 -147 -8 -253t-19 -181q-9 -40 -22 -76.5t-34.5 -64.5t-52.5 -44.5t-74 -16.5q-3 0 -6.5 0.5t-7.5 0.5v95q4 -1 12 -1q42 1 63.5 36.5t32.5 90.5z" />
    <glyph glyph-name="uni041C" unicode="&#x41c;" horiz-adv-x="876" 
d="M438 214l233 503h122v-717h-95v577l-220 -467l-47 -1h-42l1 1l-217 475v-585h-89v717h131z" />
    <glyph glyph-name="uni041D" unicode="&#x41d;" horiz-adv-x="723" 
d="M545 313h-368v-313h-94v717h94v-319h368v319h95v-717h-95v313z" />
    <glyph glyph-name="uni041E" unicode="&#x41e;" horiz-adv-x="770" 
d="M385 -10q-72 0 -135 24.5t-109 71.5t-72.5 116t-26.5 159t26.5 158.5t72.5 114t109 69t135 23.5q73 0 136 -23.5t109 -69.5t72 -114.5t26 -158.5q0 -89 -26 -158t-72 -116t-109 -71.5t-136 -24.5zM385 75q52 0 96 15.5t76.5 49t51 87.5t18.5 131t-18.5 131t-51 87.5
t-76.5 49t-96 15.5t-96 -15.5t-76.5 -49t-51 -87.5t-18.5 -131t18.5 -131t51 -87.5t76.5 -49t96 -15.5z" />
    <glyph glyph-name="uni041F" unicode="&#x41f;" horiz-adv-x="706" 
d="M84 717h539v-717h-95v631h-350v-631h-94v717z" />
    <glyph glyph-name="uni0420" unicode="&#x420;" horiz-adv-x="610" 
d="M84 717h229q122 0 189.5 -50.5t67.5 -157.5q0 -61 -19.5 -104.5t-54.5 -71.5t-83.5 -41t-107.5 -13h-127v-279h-94v717zM178 631v-267h127q38 0 69 8t53.5 25t35 44.5t12.5 66.5q0 65 -42 94t-120 29h-135z" />
    <glyph glyph-name="uni0421" unicode="&#x421;" horiz-adv-x="671" 
d="M395 -10q-80 0 -145 25t-111.5 72.5t-71.5 116t-25 154.5q0 87 23 155t68 115.5t110.5 72.5t149.5 25q73 0 128 -15.5t90 -36.5v-90q-45 29 -103.5 43t-115.5 14q-127 0 -187.5 -70.5t-60.5 -212.5q0 -143 65.5 -213t193.5 -70q55 0 107.5 15t100.5 51v-90
q-29 -23 -84.5 -42t-131.5 -19z" />
    <glyph glyph-name="uni0422" unicode="&#x422;" horiz-adv-x="597" 
d="M346 630v-630h-95v630h-221v87h537v-87h-221z" />
    <glyph glyph-name="uni0423" unicode="&#x423;" horiz-adv-x="631" 
d="M389 194q-20 -47 -42 -83.5t-49 -61.5t-61.5 -37.5t-79.5 -12.5h-10t-10 1v94q5 -1 10.5 -1h10.5q53 0 83.5 24t50.5 60l-266 540h107l207 -432l179 432h97z" />
    <glyph glyph-name="uni0424" unicode="&#x424;" horiz-adv-x="819" 
d="M141 359q0 -54 17 -91.5t46.5 -61t70 -34.5t87.5 -13v399q-47 -2 -87.5 -13.5t-70 -34.5t-46.5 -60t-17 -91zM678 357q0 54 -17 91.5t-46.5 61t-70 34.5t-87.5 13v-399q47 2 87.5 13t70 34.5t46.5 60.5t17 91zM457 725v-92q68 -2 126.5 -19.5t101.5 -51.5t67.5 -84.5
t24.5 -117.5t-24.5 -118t-67.5 -85.5t-101.5 -52.5t-126.5 -20v-94h-95v94q-68 1 -126.5 19t-101.5 51.5t-67.5 84t-24.5 117.5t24.5 118t67.5 85.5t101.5 53t126.5 20.5v92h95z" />
    <glyph glyph-name="uni0425" unicode="&#x425;" horiz-adv-x="640" 
d="M316 309l-211 -309h-100l262 377l-228 340h113l182 -274l180 274h100l-232 -339l253 -378h-112z" />
    <glyph glyph-name="uni0426" unicode="&#x426;" horiz-adv-x="756" 
d="M623 85h94v-255h-88l-11 170h-534v717h94v-632h350v632h95v-632z" />
    <glyph glyph-name="uni0427" unicode="&#x427;" horiz-adv-x="684" 
d="M601 0h-95v313q-81 -50 -178 -50q-124 0 -191 61.5t-67 192.5v200h95v-200q0 -85 41.5 -129.5t122.5 -44.5q49 0 94 11.5t83 38.5v324h95v-717z" />
    <glyph glyph-name="uni0428" unicode="&#x428;" horiz-adv-x="951" 
d="M867 0h-783v717h94v-632h248v632h97v-632h249v632h95v-717z" />
    <glyph glyph-name="uni0429" unicode="&#x429;" horiz-adv-x="999" 
d="M867 85h90v-255h-86l-11 170h-776v717h94v-632h248v632h97v-632h249v632h95v-632z" />
    <glyph glyph-name="uni042A" unicode="&#x42a;" horiz-adv-x="746" 
d="M33 717h275v-278h143q118 0 182 -50t64 -162q0 -62 -19 -105t-53.5 -70t-82.5 -39.5t-106 -12.5h-223v631h-180v86zM308 355v-270h128q36 0 65.5 7t51 23t33.5 42.5t12 65.5q0 67 -39 99.5t-113 32.5h-138z" />
    <glyph glyph-name="uni042B" unicode="&#x42b;" horiz-adv-x="841" 
d="M567 227q0 -62 -19 -105t-53.5 -70t-82.5 -39.5t-106 -12.5h-222v717h94v-278h142q119 0 183 -50t64 -162zM758 716v-716h-95v716h95zM178 355v-270h128q36 0 65.5 7t51 23t33.5 42.5t12 65.5q0 67 -39 99.5t-112 32.5h-139z" />
    <glyph glyph-name="uni042C" unicode="&#x42c;" horiz-adv-x="619" 
d="M567 227q0 -62 -19 -105t-53.5 -70t-82.5 -39.5t-106 -12.5h-222v717h94v-278h142q119 0 183 -50t64 -162zM178 355v-270h128q36 0 65.5 7t51 23t33.5 42.5t12 65.5q0 66 -39 99t-112 33h-139z" />
    <glyph glyph-name="uni042D" unicode="&#x42d;" horiz-adv-x="671" 
d="M629 358q0 -86 -26 -154.5t-73 -116t-113.5 -72.5t-147.5 -25q-77 0 -132.5 19t-84.5 42v90q49 -36 101.5 -51t108.5 -15q123 0 189.5 61t74.5 186h-337v84h336q-10 118 -70 176.5t-175 58.5q-56 0 -112.5 -14.5t-102.5 -42.5v90q35 21 89 36.5t125 15.5q84 0 149.5 -25
t110 -72.5t67.5 -115.5t23 -155z" />
    <glyph glyph-name="uni042E" unicode="&#x42e;" horiz-adv-x="970" 
d="M928 361q0 -90 -25 -159t-68.5 -116t-102.5 -71.5t-127 -24.5q-65 0 -121 20.5t-99 61t-69.5 101t-32.5 140.5h-105v-313h-94v717h94v-319h106q6 79 32.5 140.5t69 103t98.5 63t121 21.5q68 0 127 -23.5t102.5 -69t68.5 -114t25 -158.5zM605 75q48 0 88.5 15.5t70 49
t46.5 87.5t17 131t-17 131t-46.5 87.5t-70 49t-88.5 15.5t-88.5 -15.5t-70 -49t-46 -87.5t-16.5 -131t16.5 -131t46 -87.5t70 -49t88.5 -15.5z" />
    <glyph glyph-name="uni042F" unicode="&#x42f;" horiz-adv-x="646" 
d="M79 503q0 57 19 97.5t53.5 66.5t82.5 38t106 12h223v-717h-95v287h-130l-198 -287h-115l217 304q-79 17 -121 65.5t-42 133.5zM468 372v259h-128q-36 0 -65.5 -6.5t-51 -21.5t-33.5 -39.5t-12 -60.5q0 -68 39 -99.5t113 -31.5h138z" />
    <glyph glyph-name="uni0430" unicode="&#x430;" horiz-adv-x="526" 
d="M376 99q-9 -18 -23 -37.5t-35 -35.5t-49.5 -26t-66.5 -10q-70 0 -113 39.5t-43 113.5q0 85 59.5 125t169.5 40h97v43q0 54 -28 77t-96 23q-48 0 -91 -15.5t-77 -35.5v79q28 17 75.5 33.5t104.5 16.5q98 0 149 -40.5t51 -125.5v-279q0 -9 0.5 -20.5t1 -23.5t1.5 -22.5
t2 -17.5h-80q-3 14 -5.5 39.5t-2.5 44.5zM221 69q41 0 70 17t47 39.5t26 44t8 30.5v38h-88q-79 0 -114.5 -22.5t-35.5 -67.5q0 -35 21 -57t66 -22z" />
    <glyph glyph-name="uni0431" unicode="&#x431;" horiz-adv-x="578" 
d="M540 260q0 -65 -19.5 -115t-53 -84.5t-79.5 -52.5t-100 -18q-55 0 -101 18.5t-79 56.5t-51.5 96t-18.5 137q0 65 4 124t18 109.5t40.5 91t71.5 67.5q25 15 52 22.5t54.5 11.5t55.5 5t55 2q40 3 67 10t48 19v-80q-22 -14 -46.5 -19.5t-59.5 -9.5q-57 -5 -104.5 -7.5
t-86.5 -22.5q-50 -28 -70.5 -83.5t-25.5 -131.5q52 120 196 120q49 0 91.5 -17.5t74 -51.5t49.5 -83.5t18 -113.5zM288 69q35 0 64.5 11.5t51.5 35t34 59.5t12 85t-12 85t-34 59.5t-51.5 35t-64.5 11.5q-69 0 -114.5 -46t-45.5 -142q0 -50 12 -86.5t33.5 -60.5t50.5 -35.5
t64 -11.5z" />
    <glyph glyph-name="uni0432" unicode="&#x432;" horiz-adv-x="537" 
d="M72 519h194q94 0 142 -32.5t48 -101.5q0 -46 -23.5 -73.5t-66.5 -39.5q111 -18 111 -123q0 -40 -16 -68.5t-44 -46.5t-67.5 -26t-85.5 -8h-192v519zM160 444v-141h98q50 0 80.5 18t30.5 52q0 41 -27 56t-77 15h-105zM160 233v-158h103q28 0 50.5 3.5t39 12.5t25.5 24
t9 37q0 45 -31 63t-93 18h-103z" />
    <glyph glyph-name="uni0433" unicode="&#x433;" horiz-adv-x="437" 
d="M72 519h330v-75h-242v-444h-88v519z" />
    <glyph glyph-name="uni0434" unicode="&#x434;" horiz-adv-x="587" 
d="M44 75q28 17 44 53t25 91t12.5 130t6.5 170h357v-444h78v-223h-77l-11 148h-386l-9 -148h-79v223h39zM401 75v369h-190q-5 -147 -18.5 -235.5t-46.5 -133.5h255z" />
    <glyph glyph-name="uni0435" unicode="&#x435;" horiz-adv-x="538" 
d="M485 44q-11 -8 -27 -17t-39 -17.5t-52 -14t-65 -5.5q-131 0 -199 71t-68 199q0 63 18.5 113t51.5 84.5t78 53t98 18.5q56 0 100 -19t72.5 -56t39 -91.5t-0.5 -126.5h-366q5 -84 50 -125.5t134 -41.5q60 0 103 17t72 37v-79zM279 451q-57 0 -98 -35t-52 -106h279
q4 72 -33 106.5t-96 34.5z" />
    <glyph glyph-name="uni0436" unicode="&#x436;" horiz-adv-x="762" 
d="M425 519v-223h47l165 223h97l-193 -254l200 -265h-107l-166 221h-43v-221h-88v221h-44l-168 -221h-104l200 262l-193 257h101l162 -223h46v223h88z" />
    <glyph glyph-name="uni0437" unicode="&#x437;" horiz-adv-x="497" 
d="M440 151q0 -44 -17.5 -74.5t-47.5 -50t-69.5 -28t-82.5 -8.5q-57 0 -100.5 12t-68.5 29v79q31 -19 74 -30t93 -11q57 0 95.5 18.5t38.5 63.5q0 44 -32.5 62t-99.5 18h-69v71h72q55 0 84 20t29 58q0 20 -9.5 33.5t-25.5 22t-37.5 12t-45.5 3.5q-46 0 -85.5 -11t-71.5 -31
v79q26 17 67.5 29t96.5 12q95 0 143.5 -36t48.5 -104q0 -51 -27.5 -80t-77.5 -40q62 -8 93.5 -39t31.5 -79z" />
    <glyph glyph-name="uni0438" unicode="&#x438;" horiz-adv-x="598" 
d="M160 120l277 399h89v-519h-88v398l-276 -398h-90v519h88v-399z" />
    <glyph glyph-name="uni0439" unicode="&#x439;" horiz-adv-x="598" 
d="M301 588q-40 0 -69.5 10.5t-49 29t-29 43t-9.5 53.5h88q0 -38 18.5 -55t50.5 -17t50 17t18 55h88q0 -57 -38.5 -96.5t-117.5 -39.5zM160 120l277 399h89v-519h-88v398l-276 -398h-90v519h88v-399z" />
    <glyph glyph-name="uni043A" unicode="&#x43a;" horiz-adv-x="517" 
d="M206 221h-46v-221h-88v519h88v-223h50l182 223h100l-213 -256l217 -263h-107z" />
    <glyph glyph-name="uni043B" unicode="&#x43b;" horiz-adv-x="554" 
d="M112 161q14 51 18 138t4 220h349v-519h-89v444h-177q-1 -107 -6.5 -190t-23 -140t-51 -86.5t-89.5 -29.5h-8t-9 1v87q5 -1 13 -1q51 0 69 76z" />
    <glyph glyph-name="uni043C" unicode="&#x43c;" horiz-adv-x="726" 
d="M567 417l-176 -359h-70l-166 361v-419h-83v519h131l159 -348l170 348h122v-519h-87v417z" />
    <glyph glyph-name="uni043D" unicode="&#x43d;" horiz-adv-x="571" 
d="M411 230h-251v-230h-88v519h88v-214h251v214h88v-519h-88v230z" />
    <glyph glyph-name="uni043E" unicode="&#x43e;" horiz-adv-x="572" 
d="M285 -10q-53 0 -99 18t-79.5 52.5t-52.5 84.5t-19 115q0 64 19 114.5t52.5 84.5t79.5 52t99 18q54 0 100 -18t79.5 -52t53 -84.5t19.5 -114.5q0 -65 -19.5 -115t-53 -84.5t-79.5 -52.5t-100 -18zM285 69q35 0 64.5 11.5t51.5 35t34 59.5t12 85t-12 85t-34 59.5t-51.5 35
t-64.5 11.5t-64 -11.5t-50.5 -35t-33.5 -59.5t-12 -85t12 -85t33.5 -59.5t50.5 -35t64 -11.5z" />
    <glyph glyph-name="uni043F" unicode="&#x43f;" horiz-adv-x="560" 
d="M72 519h416v-519h-88v444h-240v-444h-88v519z" />
    <glyph glyph-name="uni0440" unicode="&#x440;" horiz-adv-x="600" 
d="M333 -10q-60 0 -103.5 28t-69.5 77v-272h-88v696h77l9 -101q26 51 70 81t109 30q45 0 86.5 -16.5t73 -50t50 -84t18.5 -118.5q0 -69 -19 -119.5t-51 -84t-74 -50t-88 -16.5zM320 69q69 0 111.5 47.5t42.5 143.5q0 94 -42.5 142.5t-111.5 48.5q-34 0 -63.5 -12t-51 -35.5
t-34 -59.5t-12.5 -84t12.5 -84t34 -60t51 -35.5t63.5 -11.5z" />
    <glyph glyph-name="uni0441" unicode="&#x441;" horiz-adv-x="500" 
d="M296 -10q-60 0 -108.5 18.5t-82.5 53t-52 84.5t-18 114q0 63 18.5 113t52.5 84.5t83 53t111 18.5q48 0 88 -10.5t66 -30.5v-79q-32 21 -71.5 31.5t-81.5 10.5q-91 0 -133.5 -47t-42.5 -144t41 -144t130 -47q47 0 86.5 11.5t71.5 29.5v-79q-28 -17 -67.5 -29t-90.5 -12z
" />
    <glyph glyph-name="uni0442" unicode="&#x442;" horiz-adv-x="477" 
d="M281 444v-444h-88v444h-163v75h417v-75h-166z" />
    <glyph glyph-name="uni0443" unicode="&#x443;" horiz-adv-x="536" 
d="M327 6q-18 -47 -38 -82.5t-45 -60.5t-56 -37.5t-71 -12.5q-20 0 -37 2.5t-31 8.5v85q11 -8 28 -12.5t37 -4.5q37 0 61 17.5t46 55.5l-211 554h97l165 -438l164 438h85l-194 -513v0z" />
    <glyph glyph-name="uni0444" unicode="&#x444;" horiz-adv-x="716" 
d="M680 260q0 -65 -22 -114t-59.5 -83t-88.5 -51.5t-108 -19.5v-169h-88v169q-59 2 -109.5 20t-88.5 51.5t-59.5 82.5t-21.5 114q0 64 22 113.5t60 83t88.5 51t108.5 19.5v200h88v-200q58 -2 108.5 -20t88 -51.5t59.5 -82.5t22 -113zM590 260q0 48 -14.5 83t-40 58
t-59.5 35.5t-74 14.5v-382q40 2 74.5 14.5t59.5 35.5t39.5 58t14.5 83zM125 260q0 -48 14.5 -83t40 -58.5t60 -35.5t74.5 -14v382q-41 -2 -75.5 -14.5t-59.5 -36t-39.5 -58.5t-14.5 -82z" />
    <glyph glyph-name="uni0445" unicode="&#x445;" horiz-adv-x="503" 
d="M247 206l-140 -206h-92l188 269l-166 250h102l124 -183l125 183h91l-172 -248l181 -271h-102z" />
    <glyph glyph-name="uni0446" unicode="&#x446;" horiz-adv-x="601" 
d="M495 0h-423v519h88v-444h255v444h88v-444h78v-223h-75z" />
    <glyph glyph-name="uni0447" unicode="&#x447;" horiz-adv-x="546" 
d="M474 0h-88v228q-27 -21 -62.5 -32.5t-80.5 -11.5q-88 0 -134.5 43.5t-46.5 139.5v152h89v-153q0 -61 28 -85t79 -24q35 0 68 10t60 31v221h88v-519z" />
    <glyph glyph-name="uni0448" unicode="&#x448;" horiz-adv-x="792" 
d="M720 0h-648v519h88v-444h192v444h88v-444h192v444h88v-519z" />
    <glyph glyph-name="uni0449" unicode="&#x449;" horiz-adv-x="818" 
d="M720 75h78v-223h-75l-11 148h-640v519h88v-444h192v444h88v-444h192v444h88v-444z" />
    <glyph glyph-name="uni044A" unicode="&#x44a;" horiz-adv-x="591" 
d="M30 519h221v-181h89q99 0 155 -39t56 -126q0 -45 -16 -78t-45 -54t-69 -31t-87 -10h-172v444h-132v75zM251 263v-188h83q57 0 92.5 21.5t35.5 71.5q0 51 -32 73t-90 22h-89z" />
    <glyph glyph-name="uni044B" unicode="&#x44b;" horiz-adv-x="691" 
d="M456 173q0 -45 -16 -78t-45 -54t-69 -31t-87 -10h-167v519h88v-181h85q99 0 155 -39t56 -126zM619 0h-88v519h88v-519zM160 263v-188h79q57 0 92.5 21.5t35.5 71.5q0 51 -32 73t-90 22h-85z" />
    <glyph glyph-name="uni044C" unicode="&#x44c;" horiz-adv-x="498" 
d="M458 173q0 -45 -16 -78t-45 -54t-69 -31t-87 -10h-172v519h88v-181h90q99 0 155 -39t56 -126zM157 263v-188h84q57 0 92.5 21.5t35.5 71.5q0 51 -32 73t-90 22h-90z" />
    <glyph glyph-name="uni044D" unicode="&#x44d;" horiz-adv-x="498" 
d="M463 260q0 -64 -18 -114t-52 -84.5t-82.5 -53t-108.5 -18.5q-51 0 -90.5 12t-67.5 29v79q32 -18 71.5 -29.5t86.5 -11.5q81 0 122.5 39.5t47.5 120.5h-224v75h223q-8 74 -47.5 110.5t-118.5 36.5q-42 0 -80.5 -10.5t-70.5 -31.5v79q26 20 67 30.5t89 10.5
q124 0 188.5 -70.5t64.5 -198.5z" />
    <glyph glyph-name="uni044E" unicode="&#x44e;" horiz-adv-x="762" 
d="M727 260q0 -65 -18.5 -115t-51 -84.5t-76.5 -52.5t-96 -18q-48 0 -90 16t-73.5 46.5t-51.5 75.5t-24 102h-86v-230h-88v519h88v-214h88q6 54 26 95.5t51.5 70t72 43.5t87.5 15q52 0 96 -18t76.5 -52t51 -84.5t18.5 -114.5zM485 69q33 0 60.5 11.5t47.5 35t31.5 59.5
t11.5 85t-11.5 85t-31.5 59.5t-47.5 35t-60.5 11.5q-32 0 -59.5 -11.5t-47.5 -35t-31.5 -59.5t-11.5 -85t11.5 -85t31.5 -59.5t47.5 -35t59.5 -11.5z" />
    <glyph glyph-name="uni044F" unicode="&#x44f;" horiz-adv-x="528" 
d="M72 351q0 44 16 75.5t45 52t69 30.5t87 10h167v-519h-88v188h-95l-133 -188h-105l150 210q-54 16 -83.5 49t-29.5 92zM368 263v181h-79q-56 0 -92 -21t-36 -68q0 -49 32 -70.5t91 -21.5h84z" />
    <glyph glyph-name="uni0451" unicode="&#x451;" horiz-adv-x="538" 
d="M372 621q-26 0 -41.5 16.5t-15.5 39.5q0 24 15.5 40.5t41.5 16.5t41.5 -16.5t15.5 -40.5q0 -23 -15.5 -39.5t-41.5 -16.5zM184 621q-25 0 -41 16.5t-16 39.5q0 24 16 40.5t41 16.5q26 0 41.5 -16.5t15.5 -40.5q0 -23 -15.5 -39.5t-41.5 -16.5zM485 44q-11 -8 -27 -17
t-39 -17.5t-52 -14t-65 -5.5q-131 0 -199 71t-68 199q0 63 18.5 113t51.5 84.5t78 53t98 18.5q56 0 100 -19t72.5 -56t39 -91.5t-0.5 -126.5h-366q5 -84 50 -125.5t134 -41.5q60 0 103 17t72 37v-79zM279 451q-57 0 -98 -35t-52 -106h279q4 72 -33 106.5t-96 34.5z" />
    <glyph glyph-name="uni0452" unicode="&#x452;" horiz-adv-x="575" 
d="M508 -44q0 -29 -8 -55t-25.5 -45.5t-44.5 -31t-64 -11.5q-20 0 -44 4.5t-47 16.5v85q14 -11 33 -19t43 -8q38 0 53.5 18t15.5 44v401q0 54 -27 75t-75 21q-60 0 -97.5 -27.5t-60.5 -70.5v-353h-88v576h-80v65h80v76h88v-76h150v-65h-150v-57l-2 -93h2q21 44 66 73.5
t114 29.5q77 0 122.5 -40.5t45.5 -124.5v-408v0z" />
    <glyph glyph-name="uni0453" unicode="&#x453;" horiz-adv-x="437" 
d="M72 519h330v-75h-242v-444h-88v519zM242 746h115l-131 -158h-75z" />
    <glyph glyph-name="uni0454" unicode="&#x454;" horiz-adv-x="489" 
d="M454 31q-28 -17 -67.5 -29t-90.5 -12q-60 0 -108.5 18.5t-82.5 53t-52 84.5t-18 114q0 128 64.5 198.5t188.5 70.5q48 0 89 -10.5t67 -30.5v-79q-65 42 -151 42q-79 0 -118.5 -36.5t-47.5 -110.5h224v-75h-225q6 -81 47.5 -120.5t122.5 -39.5q47 0 86.5 11.5t71.5 29.5
v-79v0z" />
    <glyph glyph-name="uni0455" unicode="&#x455;" horiz-adv-x="493" 
d="M238 -10q-41 0 -72.5 6.5t-55 16t-39.5 20t-25 18.5v79q10 -10 27 -21.5t41 -21.5t54.5 -16.5t68.5 -6.5q56 0 89 18t33 61q0 23 -10.5 37t-28.5 22.5t-41.5 13.5t-49.5 10q-33 7 -65 15.5t-58 25t-42 43t-16 69.5q0 70 54.5 110t152.5 40q55 0 97.5 -11t65.5 -24v-79
q-26 17 -64.5 28.5t-95.5 11.5q-59 0 -90.5 -16t-31.5 -58q0 -21 9 -33.5t24.5 -20t35.5 -11.5t42 -9q34 -7 70 -15t64.5 -25t47 -45.5t18.5 -76.5q0 -45 -18 -75t-47.5 -47.5t-67 -25t-76.5 -7.5z" />
    <glyph glyph-name="uni0456" unicode="&#x456;" horiz-adv-x="231" 
d="M117 595q-27 0 -43 16.5t-16 40.5t16 41t43 17q26 0 41 -17t15 -41t-15 -40.5t-41 -16.5zM160 519v-519h-88v519h88z" />
    <glyph glyph-name="uni0457" unicode="&#x457;" horiz-adv-x="232" 
d="M42 595q-26 0 -41.5 16.5t-15.5 40.5q0 26 15.5 42t41.5 16t42.5 -16t16.5 -42q0 -24 -16.5 -40.5t-42.5 -16.5zM190 595q-26 0 -42 16.5t-16 40.5q0 26 16 42t42 16t41.5 -16t15.5 -42q0 -24 -15.5 -40.5t-41.5 -16.5zM160 519v-519h-88v519h88z" />
    <glyph glyph-name="uni0458" unicode="&#x458;" horiz-adv-x="239" 
d="M124 595q-26 0 -42 16.5t-16 40.5t16 41t42 17t41.5 -17t15.5 -41t-15.5 -40.5t-41.5 -16.5zM168 -44q0 -29 -8 -55t-25.5 -45.5t-44.5 -31t-64 -11.5q-20 0 -44 4.5t-47 16.5v85q14 -11 33 -19t43 -8q38 0 53.5 18t15.5 44v565h88v-563z" />
    <glyph glyph-name="uni0459" unicode="&#x459;" horiz-adv-x="812" 
d="M773 173q0 -45 -16.5 -78t-45.5 -54t-69 -31t-86 -10h-172v444h-167q-1 -107 -6.5 -190t-23 -140t-51 -86.5t-89.5 -29.5h-8t-9 1v87q5 -1 13 -1q29 0 47 24.5t27.5 77t13 134.5t3.5 198h338v-181h90q99 0 155 -39t56 -126zM472 263v-188h84q57 0 92.5 21t35.5 72t-32 73
t-90 22h-90z" />
    <glyph glyph-name="uni045A" unicode="&#x45a;" horiz-adv-x="829" 
d="M790 168q0 -44 -16 -75.5t-45 -52t-69 -30.5t-87 -10h-172v253h-241v-253h-88v519h88v-191h241v191h88v-191h89q99 0 155.5 -38t56.5 -122zM489 253v-178h84q56 0 92 20.5t36 67.5q0 48 -32 69t-91 21h-89z" />
    <glyph glyph-name="uni045B" unicode="&#x45b;" horiz-adv-x="575" 
d="M318 451q-60 0 -97.5 -27.5t-60.5 -70.5v-353h-88v576h-80v65h80v76h88v-76h150v-65h-150v-57l-2 -93h2q21 44 66 73.5t114 29.5q77 0 122.5 -40.5t45.5 -124.5v-364h-88v355q0 54 -27 75t-75 21z" />
    <glyph glyph-name="uni045C" unicode="&#x45c;" horiz-adv-x="517" 
d="M206 221h-46v-221h-88v519h88v-223h50l182 223h100l-213 -256l217 -263h-107zM277 746h115l-131 -158h-75z" />
    <glyph glyph-name="uni045E" unicode="&#x45e;" horiz-adv-x="536" 
d="M280 588q-40 0 -69.5 10.5t-49 29t-29 43t-9.5 53.5h88q0 -38 18.5 -55t50.5 -17t50 17t18 55h88q0 -57 -38.5 -96.5t-117.5 -39.5zM327 6q-18 -47 -38 -82.5t-45 -60.5t-56 -37.5t-71 -12.5q-20 0 -37 2.5t-31 8.5v85q11 -8 28 -12.5t37 -4.5q37 0 61 17.5t46 55.5
l-211 554h97l165 -438l164 438h85l-194 -513v0z" />
    <glyph glyph-name="uni045F" unicode="&#x45f;" horiz-adv-x="575" 
d="M503 519v-519h-173l-5 -148h-74l-6 148h-173v519h88v-444h255v444h88z" />
    <glyph glyph-name="uni0490" unicode="&#x490;" horiz-adv-x="544" 
d="M84 717h322l11 168h85v-254h-324v-631h-94v717z" />
    <glyph glyph-name="uni0491" unicode="&#x491;" horiz-adv-x="437" 
d="M72 519h244l11 148h75v-223h-242v-444h-88v519z" />
    <glyph glyph-name="uni0492" unicode="&#x492;" horiz-adv-x="575" 
d="M15 398h100v319h418v-86h-324v-233h193v-74h-193v-324h-94v324h-100v74z" />
    <glyph glyph-name="uni0493" unicode="&#x493;" horiz-adv-x="465" 
d="M23 295h77v224h330v-75h-242v-149h136v-64h-136v-231h-88v231h-77v64z" />
    <glyph glyph-name="uni049A" unicode="&#x49a;" horiz-adv-x="647" 
d="M254 307h-76v-307h-94v717h94v-325h70l256 325h106l-283 -358l224 -274h86v-255h-87l-11 170h-35z" />
    <glyph glyph-name="uni049B" unicode="&#x49b;" horiz-adv-x="525" 
d="M206 221h-46v-221h-88v519h88v-223h50l182 223h100l-213 -256l155 -188h82v-223h-76l-11 148h-40z" />
    <glyph glyph-name="uni04A2" unicode="&#x4a2;" horiz-adv-x="776" 
d="M546 313h-368v-313h-94v717h94v-319h368v319h95v-632h93v-255h-88l-10 170h-90v313z" />
    <glyph glyph-name="uni04A3" unicode="&#x4a3;" horiz-adv-x="597" 
d="M411 230h-251v-230h-88v519h88v-214h251v214h88v-444h78v-223h-75l-11 148h-80v230z" />
    <glyph glyph-name="uni04AE" unicode="&#x4ae;" horiz-adv-x="624" 
d="M361 311v-311h-96v308l-245 409h108l188 -326l192 326h96z" />
    <glyph glyph-name="uni04AF" unicode="&#x4af;" horiz-adv-x="509" 
d="M299 0v-177h-88v176l-201 520h95l154 -407l152 407h89z" />
    <glyph glyph-name="uni04B0" unicode="&#x4b0;" horiz-adv-x="624" 
d="M90 326h164l-234 391h108l188 -326l192 326h96l-234 -391h166v-74h-175v-252h-96v252h-175v74z" />
    <glyph glyph-name="uni04B1" unicode="&#x4b1;" horiz-adv-x="509" 
d="M61 0h149l-200 519h95l154 -407l152 407h89l-201 -519h151v-70h-151v-107h-88v107h-150v70z" />
    <glyph glyph-name="uni04BA" unicode="&#x4ba;" horiz-adv-x="684" 
d="M83.0371 717h94.9941v-312.98q80.9951 49.9961 177.988 49.9961q123.993 0 190.989 -61.4961q66.9951 -61.4961 66.9951 -192.488v-199.987h-94.9941v199.987q0 84.9951 -41.4971 129.492t-122.492 44.4971q-48.9971 0 -93.9951 -11.499
q-44.9971 -11.499 -82.9941 -38.4971v-323.98h-94.9941v716.956z" />
    <glyph glyph-name="uni04BB" unicode="&#x4bb;" horiz-adv-x="575" 
d="M318 451q-60 0 -97.5 -27.5t-60.5 -70.5v-353h-88v717h88v-198l-2 -93h2q21 44 66 73.5t114 29.5q77 0 122.5 -40.5t45.5 -124.5v-364h-88v355q0 54 -27 75t-75 21z" />
    <glyph glyph-name="uni04D8" unicode="&#x4d8;" horiz-adv-x="721" 
d="M678 358q0 -83 -23 -151t-65.5 -116t-103 -74.5t-136.5 -26.5q-311 0 -311 361v47h536q-8 116 -66 179.5t-179 63.5q-81 0 -136 -19.5t-101 -48.5v90q14 10 34 21.5t48.5 20.5t67 15t88.5 6q87 0 152 -26.5t108.5 -74.5t65 -116t21.5 -151zM350 75q103 0 159 62t65 176
h-437q3 -64 17 -109.5t40 -74t64.5 -41.5t91.5 -13z" />
    <glyph glyph-name="uni04D9" unicode="&#x4d9;" horiz-adv-x="530" 
d="M45 475q11 8 27 17t39 17.5t52 14t65 5.5q131 0 199 -71t68 -199q0 -63 -18.5 -113t-51.5 -84.5t-78 -53t-98 -18.5q-56 0 -100 19t-72.5 56t-39 91.5t0.5 126.5h366q-5 84 -50 125.5t-134 41.5q-60 0 -103 -17t-72 -37v79zM251 68q57 0 98 35t52 106h-279
q-4 -72 33 -106.5t96 -34.5z" />
    <glyph glyph-name="uni04E8" unicode="&#x4e8;" horiz-adv-x="770" 
d="M385 -10q-72 0 -135 24.5t-109 71.5t-72.5 116t-26.5 159t26.5 158.5t72.5 114t109 69t135 23.5q73 0 136 -23.5t109 -69.5t72 -114.5t26 -158.5q0 -89 -26 -158t-72 -116t-109 -71.5t-136 -24.5zM385 641q-48 0 -89.5 -13t-74 -41.5t-53.5 -73t-27 -108.5h488
q-6 64 -27 108.5t-53.5 73t-74 41.5t-89.5 13zM385 75q48 0 90.5 13.5t75.5 43t53.5 76.5t25.5 113h-490q5 -67 25.5 -113.5t53.5 -76t75.5 -43t90.5 -13.5z" />
    <glyph glyph-name="uni04E9" unicode="&#x4e9;" horiz-adv-x="572" 
d="M285 -10q-53 0 -99 18t-79.5 52.5t-52.5 84.5t-19 115q0 64 19 114.5t52.5 84.5t79.5 52t99 18q54 0 100 -18t79.5 -52t53 -84.5t19.5 -114.5q0 -65 -19.5 -115t-53 -84.5t-79.5 -52.5t-100 -18zM285 451q-61 0 -105.5 -35.5t-55.5 -111.5h325q-6 38 -20.5 65.5
t-36.5 45.5t-49 27t-58 9zM285 69q64 0 110.5 38.5t54.5 121.5h-328q4 -41 18 -71.5t36 -50t49.5 -29t59.5 -9.5z" />
    <glyph glyph-name="Wgrave" unicode="&#x1e80;" horiz-adv-x="951" 
d="M772 0h-138l-158 554l-159 -554h-139l-158 717h98l136 -636l184 636h86l180 -624l135 624h91zM444 773l-136 136h125l96 -136h-85z" />
    <glyph glyph-name="wgrave" unicode="&#x1e81;" horiz-adv-x="785" 
d="M637 0h-135l-110 401l-113 -401h-131l-118 519h93l99 -453l126 453h99l123 -448l98 448h87zM358 588l-131 158h115l91 -158h-75z" />
    <glyph glyph-name="Wacute" unicode="&#x1e82;" horiz-adv-x="951" 
d="M772 0h-138l-158 554l-159 -554h-139l-158 717h98l136 -636l184 636h86l180 -624l135 624h91zM534 909h125l-136 -136h-85z" />
    <glyph glyph-name="wacute" unicode="&#x1e83;" horiz-adv-x="785" 
d="M637 0h-135l-110 401l-113 -401h-131l-118 519h93l99 -453l126 453h99l123 -448l98 448h87zM443 746h115l-131 -158h-75z" />
    <glyph glyph-name="Wdieresis" unicode="&#x1e84;" horiz-adv-x="951" 
d="M772 0h-138l-158 554l-159 -554h-139l-158 717h98l136 -636l184 636h86l180 -624l135 624h91zM373 786q-26 0 -41.5 16.5t-15.5 39.5q0 24 15.5 40.5t41.5 16.5t41 -16.5t15 -40.5q0 -23 -15 -39.5t-41 -16.5zM588 786q-26 0 -42 16.5t-16 39.5q0 24 16 40.5t42 16.5
t41.5 -16.5t15.5 -40.5q0 -23 -15.5 -39.5t-41.5 -16.5z" />
    <glyph glyph-name="wdieresis" unicode="&#x1e85;" horiz-adv-x="785" 
d="M637 0h-135l-110 401l-113 -401h-131l-118 519h93l99 -453l126 453h99l123 -448l98 448h87zM295 595q-25 0 -41 16.5t-16 39.5q0 25 16 41t41 16q26 0 41.5 -16t15.5 -41q0 -23 -15.5 -39.5t-41.5 -16.5zM501 595q-26 0 -41.5 16.5t-15.5 39.5q0 25 15.5 41t41.5 16
t41.5 -16t15.5 -41q0 -23 -15.5 -39.5t-41.5 -16.5z" />
    <glyph glyph-name="Ygrave" unicode="&#x1ef2;" horiz-adv-x="624" 
d="M361 311v-311h-96v308l-245 409h108l188 -326l192 326h96zM286 773l-136 136h125l96 -136h-85z" />
    <glyph glyph-name="ygrave" unicode="&#x1ef3;" horiz-adv-x="531" 
d="M327 6q-18 -47 -38 -82.5t-45 -60.5t-56 -37.5t-71 -12.5q-20 0 -37 2.5t-31 8.5v85q11 -8 28 -12.5t37 -4.5q37 0 61 17.5t46 55.5l-211 554h97l165 -438l164 438h85l-194 -513v0zM242 588l-131 158h115l91 -158h-75z" />
    <glyph glyph-name="uni2000" unicode="&#x2000;" horiz-adv-x="593" 
 />
    <glyph glyph-name="uni2001" unicode="&#x2001;" horiz-adv-x="954" 
 />
    <glyph glyph-name="uni2002" unicode="&#x2002;" horiz-adv-x="593" 
 />
    <glyph glyph-name="uni2003" unicode="&#x2003;" horiz-adv-x="954" 
 />
    <glyph glyph-name="uni2004" unicode="&#x2004;" horiz-adv-x="318" 
 />
    <glyph glyph-name="uni2005" unicode="&#x2005;" horiz-adv-x="238" 
 />
    <glyph glyph-name="uni2006" unicode="&#x2006;" horiz-adv-x="159" 
 />
    <glyph glyph-name="uni2007" unicode="&#x2007;" horiz-adv-x="573" 
 />
    <glyph glyph-name="uni2008" unicode="&#x2008;" horiz-adv-x="265" 
 />
    <glyph glyph-name="uni2009" unicode="&#x2009;" horiz-adv-x="80" 
 />
    <glyph glyph-name="uni200A" unicode="&#x200a;" horiz-adv-x="96" 
 />
    <glyph glyph-name="uni200B" unicode="&#x200b;" horiz-adv-x="0" 
 />
    <glyph glyph-name="endash" unicode="&#x2013;" horiz-adv-x="570" 
d="M60 341h450v-75h-450v75z" />
    <glyph glyph-name="emdash" unicode="&#x2014;" horiz-adv-x="900" 
d="M60 341h820v-75h-820v75z" />
    <glyph glyph-name="quoteleft" unicode="&#x2018;" horiz-adv-x="251" 
d="M184 569q0 -26 -16.5 -42.5t-44.5 -16.5q-27 0 -45 18t-18 53q0 20 6 40.5t16 38.5t21 34t22 27h65q-15 -17 -28.5 -40.5t-22.5 -53.5q21 -5 33 -21t12 -37z" />
    <glyph glyph-name="quoteright" unicode="&#x2019;" horiz-adv-x="251" 
d="M190 651q0 -21 -6 -41t-16 -38.5t-21.5 -34.5t-21.5 -27h-65q15 17 28.5 40.5t22.5 53.5q-21 5 -33 21t-12 37q0 26 16.5 42.5t44.5 16.5q27 0 45 -18t18 -52z" />
    <glyph glyph-name="quotesinglbase" unicode="&#x201a;" horiz-adv-x="251" 
d="M190 50q0 -21 -6 -41t-16 -38.5t-21.5 -34.5t-21.5 -27h-65q15 17 28.5 40.5t22.5 53.5q-21 5 -33 21t-12 37q0 26 16.5 42.5t44.5 16.5q27 0 45 -18t18 -52z" />
    <glyph glyph-name="quotedblleft" unicode="&#x201c;" horiz-adv-x="414" 
d="M348 569q0 -26 -16.5 -42.5t-44.5 -16.5q-27 0 -45 18t-18 53q0 20 6 40.5t16 38.5t21 34t22 27h65q-15 -17 -28.5 -40.5t-22.5 -53.5q21 -5 33 -21t12 -37zM184 569q0 -26 -16.5 -42.5t-44.5 -16.5q-27 0 -45 18t-18 53q0 20 6 40.5t16 38.5t21 34t22 27h65
q-15 -17 -28.5 -40.5t-22.5 -53.5q21 -5 33 -21t12 -37z" />
    <glyph glyph-name="quotedblright" unicode="&#x201d;" horiz-adv-x="414" 
d="M190 651q0 -21 -6 -41t-16 -38.5t-21.5 -34.5t-21.5 -27h-65q15 17 28.5 40.5t22.5 53.5q-21 5 -33 21t-12 37q0 26 16.5 42.5t44.5 16.5q27 0 45 -18t18 -52zM354 651q0 -21 -6 -41t-16 -38.5t-21.5 -34.5t-21.5 -27h-65q16 17 29.5 40.5t21.5 53.5q-21 5 -33 21t-12 37
q0 26 16.5 42.5t44.5 16.5q27 0 45 -18t18 -52z" />
    <glyph glyph-name="quotedblbase" unicode="&#x201e;" horiz-adv-x="414" 
d="M190 49q0 -20 -6 -40.5t-16 -38.5t-21.5 -34t-21.5 -27h-65q15 17 28.5 40.5t22.5 53.5q-21 5 -33 21t-12 37q0 26 16.5 42.5t44.5 16.5q27 0 45 -18t18 -53zM354 49q0 -20 -6 -40.5t-16 -38.5t-21.5 -34t-21.5 -27h-65q16 17 29.5 40.5t21.5 53.5q-21 5 -33 21t-12 37
q0 26 16.5 42.5t44.5 16.5q27 0 45 -18t18 -53z" />
    <glyph glyph-name="dagger" unicode="&#x2020;" horiz-adv-x="495" 
d="M290 423v-503h-85v503h-165v75h165v219h85v-219h165v-75h-165z" />
    <glyph glyph-name="daggerdbl" unicode="&#x2021;" horiz-adv-x="500" 
d="M290 138v-218h-85v218h-165v75h165v210h-165v75h165v219h85v-219h165v-75h-165v-210h165v-75h-165z" />
    <glyph glyph-name="bullet" unicode="&#x2022;" horiz-adv-x="266" 
d="M133 187q-43 0 -71 27.5t-28 69.5t28 69.5t71 27.5t71 -27.5t28 -69.5t-28 -69.5t-71 -27.5z" />
    <glyph glyph-name="ellipsis" unicode="&#x2026;" horiz-adv-x="719" 
d="M600 -6q-29 0 -47 18.5t-18 44.5q0 28 18 46t47 18q28 0 46 -18t18 -46q0 -26 -18 -44.5t-46 -18.5zM360 -6q-29 0 -47 18.5t-18 44.5q0 28 18 46t47 18q28 0 46 -18t18 -46q0 -26 -18 -44.5t-46 -18.5zM120 -6q-29 0 -47 18.5t-18 44.5q0 28 18 46t47 18q28 0 46 -18
t18 -46q0 -26 -18 -44.5t-46 -18.5z" />
    <glyph glyph-name="uni202F" unicode="&#x202f;" horiz-adv-x="67" 
 />
    <glyph glyph-name="perthousand" unicode="&#x2030;" horiz-adv-x="1000" 
d="M62 -10l461 736h79l-461 -736h-79zM284 539q0 -48 -11 -83t-30 -57.5t-44 -33.5t-53 -11t-52.5 10.5t-43 32t-29.5 56t-11 82.5t11 83t29.5 58.5t43 34.5t52.5 11t53 -10.5t44 -33t30 -57t11 -82.5zM86 537q0 -66 15 -92.5t45 -26.5q31 0 46 26.5t15 92.5t-15 93t-46 27
q-30 0 -45 -27t-15 -93zM655 179q0 -48 -11 -82.5t-30 -57.5t-44 -34t-53 -11t-52.5 10.5t-43 32t-29.5 56t-11 82.5t11 83t29.5 58.5t43 34.5t52.5 11t53 -10.5t44 -33t30 -57t11 -82.5zM991 179q0 -48 -11 -82.5t-30 -57.5t-44 -34t-53 -11t-52.5 10.5t-43 32t-29.5 56
t-11 82.5t11 83t29.5 58.5t43 34.5t52.5 11t53 -10.5t44 -33t30 -57t11 -82.5zM457 177q0 -66 15 -92.5t45 -26.5q31 0 46 26.5t15 92.5t-15 93t-46 27q-30 0 -45 -27t-15 -93zM793 177q0 -66 15 -92.5t45 -26.5q31 0 46 26.5t15 92.5t-15 93t-46 27q-30 0 -45 -27t-15 -93z
" />
    <glyph glyph-name="uni2032" unicode="&#x2032;" horiz-adv-x="250" 
d="M100 717h100l-70 -247h-70z" />
    <glyph glyph-name="uni2033" unicode="&#x2033;" horiz-adv-x="400" 
d="M100 717h100l-70 -247h-70zM251 717h100l-70 -247h-70z" />
    <glyph glyph-name="guilsinglleft" unicode="&#x2039;" horiz-adv-x="300" 
d="M138 264l127 -195h-93l-127 195l127 195h93z" />
    <glyph glyph-name="guilsinglright" unicode="&#x203a;" horiz-adv-x="300" 
d="M128 69h-93l127 195l-127 195h93l127 -195z" />
    <glyph glyph-name="fraction" unicode="&#x2044;" horiz-adv-x="460" 
d="M-90 0l560 717h80l-559 -717h-81z" />
    <glyph glyph-name="uni205F" unicode="&#x205f;" horiz-adv-x="212" 
 />
    <glyph glyph-name="zero.sup" unicode="&#x2070;" horiz-adv-x="473" 
d="M237 319q-40 0 -75.5 14.5t-62.5 44t-43 73t-16 100.5t16 100.5t43 72.5t62.5 43.5t75.5 14.5t75.5 -14.5t62.5 -43t42.5 -72t15.5 -100.5t-15.5 -100.5t-42.5 -73t-62.5 -44.5t-75.5 -15zM237 383q23 0 43.5 9t36 29t24.5 52t9 78t-9 77.5t-24.5 51.5t-36 29t-43.5 9
t-43.5 -9t-36 -29t-24.5 -51.5t-9 -77.5t9 -78t24.5 -52t36 -29t43.5 -9z" />
    <glyph glyph-name="four.sup" unicode="&#x2074;" horiz-adv-x="413" 
d="M323 425v-100h-80v100h-217v59l209 292h88v-286h65v-65h-65zM243 490v195l-138 -195h138z" />
    <glyph glyph-name="five.sup" unicode="&#x2075;" horiz-adv-x="388" 
d="M342 477q0 -39 -13 -68.5t-35.5 -49.5t-53.5 -30t-67 -10q-47 0 -77.5 8.5t-55.5 26.5v72q19 -14 47.5 -28t81.5 -14q39 0 64 23.5t25 65.5t-24 61.5t-61 19.5q-32 0 -47 -7t-23 -14h-55v243h265v-67h-194v-106q13 8 31.5 13t44.5 5q68 0 107.5 -37.5t39.5 -106.5z" />
    <glyph glyph-name="six.sup" unicode="&#x2076;" horiz-adv-x="418" 
d="M381 471q0 -35 -13 -64t-35 -49.5t-51.5 -31.5t-63.5 -11q-45 0 -78.5 14.5t-55.5 41t-33 63t-11 81.5q0 59 12.5 108t37 84t61.5 54t87 19q38 0 62.5 -6.5t42.5 -17.5v-66q-23 16 -49.5 22t-55.5 6q-56 0 -87.5 -40.5t-38.5 -100.5q21 26 48.5 38t58.5 12
q34 0 63.5 -10.5t51.5 -30.5t34.5 -49t12.5 -66zM218 381q16 0 31.5 6t27.5 17t19 28t7 39q0 45 -26 68.5t-58 23.5q-41 0 -68 -23.5t-27 -69.5q0 -40 24.5 -64.5t69.5 -24.5z" />
    <glyph glyph-name="seven.sup" unicode="&#x2077;" horiz-adv-x="365" 
d="M154 325h-86l176 384h-214v67h305v-50z" />
    <glyph glyph-name="eight.sup" unicode="&#x2078;" horiz-adv-x="394" 
d="M359 447q0 -30 -12 -54t-34 -40.5t-51.5 -25t-63.5 -8.5q-35 0 -65 8.5t-52 24.5t-34 39.5t-12 53.5q0 45 26 74.5t71 42.5q-38 11 -59.5 36.5t-21.5 66.5q0 58 42 87.5t105 29.5q31 0 58 -7.5t46.5 -21.5t30.5 -36t11 -50q0 -42 -21.5 -68t-58.5 -37q44 -12 69.5 -41
t25.5 -74zM198 592q29 0 47.5 16.5t18.5 46.5t-18.5 46.5t-47.5 16.5t-48 -16.5t-19 -46.5t19 -46.5t48 -16.5zM198 383q35 0 57 19.5t22 55.5q0 35 -22 54.5t-57 19.5t-57.5 -19.5t-22.5 -54.5q0 -36 22.5 -55.5t57.5 -19.5z" />
    <glyph glyph-name="nine.sup" unicode="&#x2079;" horiz-adv-x="418" 
d="M377 586q0 -61 -13 -111t-38.5 -85.5t-63.5 -55t-89 -19.5q-38 0 -63 6.5t-45 17.5v66q23 -16 51 -22t57 -6q60 0 91.5 39.5t39.5 99.5q-20 -26 -47.5 -37.5t-57.5 -11.5q-35 0 -64.5 10.5t-51.5 30.5t-34.5 49t-12.5 66q0 36 13 65t35 49.5t52 31.5t64 11
q45 0 78.5 -14.5t55.5 -40t32.5 -61t10.5 -78.5zM200 714q-16 0 -31.5 -6t-27.5 -17t-19.5 -28.5t-7.5 -39.5q0 -23 7 -40t19 -28.5t27.5 -17.5t31.5 -6q41 0 68 23.5t27 69.5q0 41 -24.5 65.5t-69.5 24.5z" />
    <glyph glyph-name="plus.sup" unicode="&#x207a;" horiz-adv-x="385" 
d="M229 539v-123h-73v123h-116v64h116v122h73v-122h116v-64h-116z" />
    <glyph glyph-name="minus.sup" unicode="&#x207b;" horiz-adv-x="385" 
d="M40 549v64h305v-64h-305z" />
    <glyph glyph-name="zero.sub" unicode="&#x2080;" horiz-adv-x="473" 
d="M237 -96q-40 0 -75.5 14.5t-62.5 44t-43 73t-16 100.5t16 100.5t43 72.5t62.5 43.5t75.5 14.5t75.5 -14.5t62.5 -43t42.5 -72t15.5 -100.5t-15.5 -100.5t-42.5 -73t-62.5 -44.5t-75.5 -15zM237 -32q23 0 43.5 9t36 29t24.5 52t9 78t-9 77.5t-24.5 51.5t-36 29t-43.5 9
t-43.5 -9t-36 -29t-24.5 -51.5t-9 -77.5t9 -78t24.5 -52t36 -29t43.5 -9z" />
    <glyph glyph-name="one.sub" unicode="&#x2081;" horiz-adv-x="313" 
d="M233 -90h-82v361l-100 -93v80l111 103h71v-451z" />
    <glyph glyph-name="two.sub" unicode="&#x2082;" horiz-adv-x="385" 
d="M340 -90h-305v76q59 43 100 77.5t67 63t38 53.5t12 49q0 35 -21 54t-55 19q-42 0 -73 -14.5t-56 -32.5v65q23 18 56.5 32.5t88.5 14.5q63 0 103 -35.5t40 -103.5q0 -60 -53.5 -119t-160.5 -131h219v-68z" />
    <glyph glyph-name="three.sub" unicode="&#x2083;" horiz-adv-x="376" 
d="M330 38q0 -60 -45 -97t-127 -37q-45 0 -77 11t-52 25v70q18 -14 49 -27.5t80 -13.5q87 0 87 74q0 33 -20.5 51t-64.5 18h-60v67h63q30 0 49 16t19 48q0 28 -18 44t-53 16q-38 0 -70 -11.5t-55 -28.5v70q22 14 55.5 24t75.5 10q69 0 107 -32.5t38 -86.5q0 -43 -21.5 -68
t-52.5 -31q38 -8 65.5 -35t27.5 -76z" />
    <glyph glyph-name="four.sub" unicode="&#x2084;" horiz-adv-x="413" 
d="M323 10v-100h-80v100h-217v59l209 292h88v-286h65v-65h-65zM243 75v195l-138 -195h138z" />
    <glyph glyph-name="five.sub" unicode="&#x2085;" horiz-adv-x="388" 
d="M342 62q0 -39 -13 -68.5t-35.5 -49.5t-53.5 -30t-67 -10q-47 0 -77.5 8.5t-55.5 26.5v72q19 -14 47.5 -28t81.5 -14q39 0 64 23.5t25 65.5t-24 61.5t-61 19.5q-32 0 -47 -7t-23 -14h-55v243h265v-67h-194v-106q13 8 31.5 13t44.5 5q68 0 107.5 -37.5t39.5 -106.5z" />
    <glyph glyph-name="six.sub" unicode="&#x2086;" horiz-adv-x="418" 
d="M381 56q0 -35 -13 -64t-35 -49.5t-51.5 -31.5t-63.5 -11q-45 0 -78.5 14.5t-55.5 41t-33 63t-11 81.5q0 59 12.5 108t37 84t61.5 54t87 19q38 0 62.5 -6.5t42.5 -17.5v-66q-23 16 -49.5 22t-55.5 6q-56 0 -87.5 -40.5t-38.5 -100.5q21 26 48.5 38t58.5 12
q34 0 63.5 -10.5t51.5 -30.5t34.5 -49t12.5 -66zM218 -34q16 0 31.5 6t27.5 17t19 28t7 39q0 45 -26 68.5t-58 23.5q-41 0 -68 -23.5t-27 -69.5q0 -40 24.5 -64.5t69.5 -24.5z" />
    <glyph glyph-name="seven.sub" unicode="&#x2087;" horiz-adv-x="365" 
d="M154 -90h-86l176 384h-214v67h305v-50z" />
    <glyph glyph-name="eight.sub" unicode="&#x2088;" horiz-adv-x="394" 
d="M359 32q0 -30 -12 -54t-34 -40.5t-51.5 -25t-63.5 -8.5q-35 0 -65 8.5t-52 24.5t-34 39.5t-12 53.5q0 45 26 74.5t71 42.5q-38 11 -59.5 36.5t-21.5 66.5q0 58 42 87.5t105 29.5q31 0 58 -7.5t46.5 -21.5t30.5 -36t11 -50q0 -42 -21.5 -68t-58.5 -37q44 -12 69.5 -41
t25.5 -74zM198 177q29 0 47.5 16.5t18.5 46.5t-18.5 46.5t-47.5 16.5t-48 -16.5t-19 -46.5t19 -46.5t48 -16.5zM198 -32q35 0 57 19.5t22 55.5q0 35 -22 54.5t-57 19.5t-57.5 -19.5t-22.5 -54.5q0 -36 22.5 -55.5t57.5 -19.5z" />
    <glyph glyph-name="nine.sub" unicode="&#x2089;" horiz-adv-x="418" 
d="M377 171q0 -61 -13 -111t-38.5 -85.5t-63.5 -55t-89 -19.5q-38 0 -63 6.5t-45 17.5v66q23 -16 51 -22t57 -6q60 0 91.5 39.5t39.5 99.5q-20 -26 -47.5 -37.5t-57.5 -11.5q-35 0 -64.5 10.5t-51.5 30.5t-34.5 49t-12.5 66q0 36 13 65t35 49.5t52 31.5t64 11
q45 0 78.5 -14.5t55.5 -40t32.5 -61t10.5 -78.5zM200 299q-16 0 -31.5 -6t-27.5 -17t-19.5 -28.5t-7.5 -39.5q0 -23 7 -40t19 -28.5t27.5 -17.5t31.5 -6q41 0 68 23.5t27 69.5q0 41 -24.5 65.5t-69.5 24.5z" />
    <glyph glyph-name="plus.sub" unicode="&#x208a;" horiz-adv-x="385" 
d="M229 124v-123h-73v123h-116v64h116v122h73v-122h116v-64h-116z" />
    <glyph glyph-name="minus.sub" unicode="&#x208b;" horiz-adv-x="385" 
d="M40 134v64h305v-64h-305z" />
    <glyph glyph-name="Euro" unicode="&#x20ac;" 
d="M546 25q-23 -13 -63.5 -24t-96.5 -11q-130 0 -203.5 67.5t-94.5 192.5h-82v69h74q-1 10 -1 19.5v19.5v21t1 20h-74v70h83q24 123 102 190t203 67q50 0 85 -8.5t67 -24.5v-81q-39 18 -73.5 25.5t-79.5 7.5q-93 0 -144.5 -43.5t-69.5 -132.5h199v-70h-207q-1 -10 -1 -20
v-21v-19.5t1 -19.5h207v-69h-200q15 -90 64.5 -134.5t145.5 -44.5q53 0 93 11t65 24v-81v0z" />
    <glyph glyph-name="uni20B4" unicode="&#x20b4;" 
d="M486 51q-9 -10 -26.5 -20.5t-42.5 -19.5t-57 -15t-71 -6q-42 0 -81 9t-69.5 31.5t-49 59t-18.5 92.5q0 45 15 78h-58v69h112q28 23 62.5 38t67.5 28q9 3 17.5 6.5t16.5 7.5h-276v70h352q14 28 14 62q0 53 -29.5 79.5t-92.5 26.5q-51 0 -95.5 -11t-70.5 -29v79
q18 11 57.5 25.5t105.5 14.5q104 0 157.5 -46t53.5 -127q0 -40 -13 -74h57v-70h-105q-27 -25 -61 -42t-69 -30l-19 -8h254v-69h-347q-21 -32 -21 -74q0 -63 36.5 -90t96.5 -27q33 0 63.5 6t56.5 15t46 20t31 20v-79v0z" />
    <glyph glyph-name="uni20B8" unicode="&#x20b8;" 
d="M38 717h476v-71h-476v71zM324 479v-479h-96v479h-190v87h476v-87h-190z" />
    <glyph glyph-name="uni20BD" unicode="&#x20bd;" 
d="M113 395v322h169q112 0 174.5 -49t62.5 -148q0 -51 -17.5 -88t-50 -60.5t-77.5 -35t-100 -11.5h-67v-85h209v-70h-209v-170h-94v170h-82v70h82v85h-82v70h82zM207 636v-241h67q73 0 111.5 30.5t38.5 94.5q0 59 -33.5 87.5t-108.5 28.5h-75z" />
    <glyph glyph-name="uni2116" unicode="&#x2116;" horiz-adv-x="1095" 
d="M1057 543q0 -39 -14 -72.5t-38.5 -58t-58 -38t-72.5 -13.5t-72 13.5t-57.5 38t-38 58t-13.5 72.5q0 40 13.5 73.5t38 57.5t57.5 37.5t72 13.5t72.5 -13.5t58 -37.5t38.5 -57.5t14 -73.5zM613 0h-121l-319 589v-589h-89v717h121l319 -589v589h89v-717zM770 543
q0 -51 28 -84t76 -33t76.5 33t28.5 84t-28.5 84t-76.5 33t-76 -33t-28 -84z" />
    <glyph glyph-name="trademark" unicode="&#x2122;" horiz-adv-x="909" 
d="M787 639l-114 -256h-79l-113 259v-320h-69v395h118l108 -256l113 256h108v-395h-72v317zM222 651v-329h-71v329h-131v66h332v-66h-130z" />
    <glyph glyph-name="onethird" unicode="&#x2153;" horiz-adv-x="990" 
d="M134 0l560 717h80l-559 -717h-81zM924 128q0 -60 -45 -97t-127 -37q-45 0 -77 11t-52 25v70q18 -14 49 -27.5t80 -13.5q87 0 87 74q0 33 -20.5 51t-64.5 18h-60v67h63q30 0 49 16t19 48q0 28 -18 44t-53 16q-38 0 -70 -11.5t-55 -28.5v70q22 14 55.5 24t75.5 10
q69 0 107 -32.5t38 -86.5q0 -43 -21.5 -68t-52.5 -31q38 -8 65.5 -35t27.5 -76zM243 265h-82v361l-100 -93v80l111 103h71v-451z" />
    <glyph glyph-name="twothirds" unicode="&#x2154;" horiz-adv-x="1077" 
d="M350 265h-305v76q59 43 100 77.5t67 63t38 53.5t12 49q0 35 -21 54t-55 19q-42 0 -73 -14.5t-56 -32.5v65q23 18 56.5 32.5t88.5 14.5q63 0 103 -35.5t40 -103.5q0 -60 -53.5 -119t-160.5 -131h219v-68zM221 0l560 717h80l-559 -717h-81zM1011 129q0 -60 -45 -97
t-127 -37q-45 0 -77 11t-52 25v70q18 -14 49 -27.5t80 -13.5q87 0 87 74q0 33 -20.5 51t-64.5 18h-60v67h63q30 0 49 16t19 48q0 28 -18 44t-53 16q-38 0 -70 -11.5t-55 -28.5v70q22 14 55.5 24t75.5 10q69 0 107 -32.5t38 -86.5q0 -43 -21.5 -68t-52.5 -31q38 -8 65.5 -35
t27.5 -76z" />
    <glyph glyph-name="oneeighth" unicode="&#x215b;" horiz-adv-x="977" 
d="M134 0l560 717h80l-559 -717h-81zM932 122q0 -30 -12 -54t-34 -40.5t-51.5 -25t-63.5 -8.5q-35 0 -65 8.5t-52 24.5t-34 39.5t-12 53.5q0 45 26 74.5t71 42.5q-38 11 -59.5 36.5t-21.5 66.5q0 58 42 87.5t105 29.5q31 0 58 -7.5t46.5 -21.5t30.5 -36t11 -50
q0 -42 -21.5 -68t-58.5 -37q44 -12 69.5 -41t25.5 -74zM771 267q29 0 47.5 16.5t18.5 46.5t-18.5 46.5t-47.5 16.5t-48 -16.5t-19 -46.5t19 -46.5t48 -16.5zM771 58q35 0 57 19.5t22 55.5q0 35 -22 54.5t-57 19.5t-57.5 -19.5t-22.5 -54.5q0 -36 22.5 -55.5t57.5 -19.5z
M243 265h-82v361l-100 -93v80l111 103h71v-451z" />
    <glyph glyph-name="threeeighths" unicode="&#x215c;" horiz-adv-x="1031" 
d="M187 0l560 717h80l-559 -717h-81zM986 122q0 -30 -12 -54t-34 -40.5t-51.5 -25t-63.5 -8.5q-35 0 -65 8.5t-52 24.5t-34 39.5t-12 53.5q0 45 26 74.5t71 42.5q-38 11 -59.5 36.5t-21.5 66.5q0 58 42 87.5t105 29.5q31 0 58 -7.5t46.5 -21.5t30.5 -36t11 -50
q0 -42 -21.5 -68t-58.5 -37q44 -12 69.5 -41t25.5 -74zM825 267q29 0 47.5 16.5t18.5 46.5t-18.5 46.5t-47.5 16.5t-48 -16.5t-19 -46.5t19 -46.5t48 -16.5zM825 58q35 0 57 19.5t22 55.5q0 35 -22 54.5t-57 19.5t-57.5 -19.5t-22.5 -54.5q0 -36 22.5 -55.5t57.5 -19.5z
M340 393q0 -60 -45 -97t-127 -37q-45 0 -77 11t-52 25v70q18 -14 49 -27.5t80 -13.5q87 0 87 74q0 33 -20.5 51t-64.5 18h-60v67h63q30 0 49 16t19 48q0 28 -18 44t-53 16q-38 0 -70 -11.5t-55 -28.5v70q22 14 55.5 24t75.5 10q69 0 107 -32.5t38 -86.5q0 -43 -21.5 -68
t-52.5 -31q38 -8 65.5 -35t27.5 -76z" />
    <glyph glyph-name="fiveeighths" unicode="&#x215d;" horiz-adv-x="1028" 
d="M352 417q0 -39 -13 -68.5t-35.5 -49.5t-53.5 -30t-67 -10q-47 0 -77.5 8.5t-55.5 26.5v72q19 -14 47.5 -28t81.5 -14q39 0 64 23.5t25 65.5t-24 61.5t-61 19.5q-32 0 -47 -7t-23 -14h-55v243h265v-67h-194v-106q13 8 31.5 13t44.5 5q68 0 107.5 -37.5t39.5 -106.5zM184 0
l560 717h80l-559 -717h-81zM983 122q0 -30 -12 -54t-34 -40.5t-51.5 -25t-63.5 -8.5q-35 0 -65 8.5t-52 24.5t-34 39.5t-12 53.5q0 45 26 74.5t71 42.5q-38 11 -59.5 36.5t-21.5 66.5q0 58 42 87.5t105 29.5q31 0 58 -7.5t46.5 -21.5t30.5 -36t11 -50q0 -42 -21.5 -68
t-58.5 -37q44 -12 69.5 -41t25.5 -74zM822 267q29 0 47.5 16.5t18.5 46.5t-18.5 46.5t-47.5 16.5t-48 -16.5t-19 -46.5t19 -46.5t48 -16.5zM822 58q35 0 57 19.5t22 55.5q0 35 -22 54.5t-57 19.5t-57.5 -19.5t-22.5 -54.5q0 -36 22.5 -55.5t57.5 -19.5z" />
    <glyph glyph-name="seveneighths" unicode="&#x215e;" horiz-adv-x="922" 
d="M164 265h-86l176 384h-214v67h305v-50zM78 0l560 717h80l-559 -717h-81zM877 122q0 -30 -12 -54t-34 -40.5t-51.5 -25t-63.5 -8.5q-35 0 -65 8.5t-52 24.5t-34 39.5t-12 53.5q0 45 26 74.5t71 42.5q-38 11 -59.5 36.5t-21.5 66.5q0 58 42 87.5t105 29.5q31 0 58 -7.5
t46.5 -21.5t30.5 -36t11 -50q0 -42 -21.5 -68t-58.5 -37q44 -12 69.5 -41t25.5 -74zM716 267q29 0 47.5 16.5t18.5 46.5t-18.5 46.5t-47.5 16.5t-48 -16.5t-19 -46.5t19 -46.5t48 -16.5zM716 58q35 0 57 19.5t22 55.5q0 35 -22 54.5t-57 19.5t-57.5 -19.5t-22.5 -54.5
q0 -36 22.5 -55.5t57.5 -19.5z" />
    <glyph glyph-name="minus" unicode="&#x2212;" 
d="M34 302v70h482v-70h-482z" />
    <glyph glyph-name="approxequal" unicode="&#x2248;" 
d="M12 354q1 31 10.5 61.5t28.5 54t48.5 38t71.5 14.5q41 0 70 -13.5t51.5 -30t42 -30t42.5 -13.5q34 0 54 22t31 71h74q-1 -32 -10.5 -62t-29 -53.5t-49 -38t-70.5 -14.5t-70 13.5t-51.5 30t-42.5 30t-42 13.5q-33 0 -53.5 -22t-31.5 -71h-74zM12 144q1 31 10.5 61.5
t28.5 54t48.5 38t71.5 14.5q41 0 70 -13.5t51.5 -30t42 -30t42.5 -13.5q34 0 54 22t31 71h74q-1 -32 -10.5 -62t-29 -53t-49 -37.5t-70.5 -14.5t-70 13.5t-51.5 29.5t-42.5 29.5t-42 13.5q-33 0 -53.5 -22t-31.5 -71h-74z" />
    <glyph glyph-name="notequal" unicode="&#x2260;" 
d="M262 207l-56 -135h-83l56 135h-146v70h175l50 120h-225v70h254l56 135h83l-56 -135h146v-70h-175l-50 -120h225v-70h-254z" />
    <glyph glyph-name="lessequal" unicode="&#x2264;" 
d="M69 302v90l413 180v-80l-333 -145l333 -145v-80zM69 0v70h413v-70h-413z" />
    <glyph glyph-name="greaterequal" unicode="&#x2265;" 
d="M69 202l333 145l-333 145v80l413 -180v-90l-413 -180v80zM69 70h413v-70h-413v70z" />
    <glyph glyph-name="uni24C5" unicode="&#x24c5;" horiz-adv-x="902" 
d="M451 -96q-87 0 -162 30.5t-130.5 85.5t-87 131t-31.5 166q0 89 31.5 164t87 129.5t130.5 85t162 30.5t162.5 -30.5t130.5 -85t86.5 -129.5t31.5 -164q0 -90 -31.5 -166t-86.5 -131t-130.5 -85.5t-162.5 -30.5zM451 -34q76 0 139.5 26t109 73t70.5 111t25 141
q0 75 -25 139t-70.5 110.5t-109 72.5t-139.5 26t-139.5 -26t-109 -72.5t-70.5 -110.5t-25 -139q0 -77 25 -141t70.5 -111t109 -73t139.5 -26zM318 524h145q79 0 121.5 -32t42.5 -97q0 -30 -9 -56.5t-29 -45.5t-51 -30t-76 -11h-66v-145h-78v417zM396 454v-132h65
q39 0 61.5 16t22.5 53q0 34 -21 48.5t-61 14.5h-67z" />
    <glyph glyph-name="zero.den" unicode="&#xe402;" horiz-adv-x="473" 
d="M237 -6q-40 0 -75.5 14.5t-62.5 44t-43 73t-16 100.5t16 100.5t43 72.5t62.5 43.5t75.5 14.5t75.5 -14.5t62.5 -43t42.5 -72t15.5 -100.5t-15.5 -100.5t-42.5 -73t-62.5 -44.5t-75.5 -15zM237 58q23 0 43.5 9t36 29t24.5 52t9 78t-9 77.5t-24.5 51.5t-36 29t-43.5 9
t-43.5 -9t-36 -29t-24.5 -51.5t-9 -77.5t9 -78t24.5 -52t36 -29t43.5 -9z" />
    <glyph glyph-name="one.den" unicode="&#xe403;" horiz-adv-x="313" 
d="M233 0h-82v361l-100 -93v80l111 103h71v-451z" />
    <glyph glyph-name="two.den" unicode="&#xe404;" horiz-adv-x="385" 
d="M340 0h-305v76q59 43 100 77.5t67 63t38 53.5t12 49q0 35 -21 54t-55 19q-42 0 -73 -14.5t-56 -32.5v65q23 18 56.5 32.5t88.5 14.5q63 0 103 -35.5t40 -103.5q0 -60 -53.5 -119t-160.5 -131h219v-68z" />
    <glyph glyph-name="three.den" unicode="&#xe405;" horiz-adv-x="376" 
d="M330 128q0 -60 -45 -97t-127 -37q-45 0 -77 11t-52 25v70q18 -14 49 -27.5t80 -13.5q87 0 87 74q0 33 -20.5 51t-64.5 18h-60v67h63q30 0 49 16t19 48q0 28 -18 44t-53 16q-38 0 -70 -11.5t-55 -28.5v70q22 14 55.5 24t75.5 10q69 0 107 -32.5t38 -86.5q0 -43 -21.5 -68
t-52.5 -31q38 -8 65.5 -35t27.5 -76z" />
    <glyph glyph-name="four.den" unicode="&#xe406;" horiz-adv-x="423" 
d="M323 100v-100h-80v100h-217v59l209 292h88v-286h65v-65h-65zM243 165v195l-138 -195h138z" />
    <glyph glyph-name="five.den" unicode="&#xe407;" horiz-adv-x="388" 
d="M342 152q0 -39 -13 -68.5t-35.5 -49.5t-53.5 -30t-67 -10q-47 0 -77.5 8.5t-55.5 26.5v72q19 -14 47.5 -28t81.5 -14q39 0 64 23.5t25 65.5t-24 61.5t-61 19.5q-32 0 -47 -7t-23 -14h-55v243h265v-67h-194v-106q13 8 31.5 13t44.5 5q68 0 107.5 -37.5t39.5 -106.5z" />
    <glyph glyph-name="six.den" unicode="&#xe408;" horiz-adv-x="418" 
d="M381 146q0 -35 -13 -64t-35 -49.5t-51.5 -31.5t-63.5 -11q-45 0 -78.5 14.5t-55.5 41t-33 63t-11 81.5q0 59 12.5 108t37 84t61.5 54t87 19q38 0 62.5 -6.5t42.5 -17.5v-66q-23 16 -49.5 22t-55.5 6q-56 0 -87.5 -40.5t-38.5 -100.5q21 26 48.5 38t58.5 12
q34 0 63.5 -10.5t51.5 -30.5t34.5 -49t12.5 -66zM218 56q16 0 31.5 6t27.5 17t19 28t7 39q0 45 -26 68.5t-58 23.5q-41 0 -68 -23.5t-27 -69.5q0 -40 24.5 -64.5t69.5 -24.5z" />
    <glyph glyph-name="seven.den" unicode="&#xe409;" horiz-adv-x="365" 
d="M154 0h-86l176 384h-214v67h305v-50z" />
    <glyph glyph-name="eight.den" unicode="&#xe40a;" horiz-adv-x="394" 
d="M359 122q0 -30 -12 -54t-34 -40.5t-51.5 -25t-63.5 -8.5q-35 0 -65 8.5t-52 24.5t-34 39.5t-12 53.5q0 45 26 74.5t71 42.5q-38 11 -59.5 36.5t-21.5 66.5q0 58 42 87.5t105 29.5q31 0 58 -7.5t46.5 -21.5t30.5 -36t11 -50q0 -42 -21.5 -68t-58.5 -37q44 -12 69.5 -41
t25.5 -74zM198 267q29 0 47.5 16.5t18.5 46.5t-18.5 46.5t-47.5 16.5t-48 -16.5t-19 -46.5t19 -46.5t48 -16.5zM198 58q35 0 57 19.5t22 55.5q0 35 -22 54.5t-57 19.5t-57.5 -19.5t-22.5 -54.5q0 -36 22.5 -55.5t57.5 -19.5z" />
    <glyph glyph-name="nine.den" unicode="&#xe40b;" horiz-adv-x="418" 
d="M377 261q0 -61 -13 -111t-38.5 -85.5t-63.5 -55t-89 -19.5q-38 0 -63 6.5t-45 17.5v66q23 -16 51 -22t57 -6q60 0 91.5 39.5t39.5 99.5q-20 -26 -47.5 -37.5t-57.5 -11.5q-35 0 -64.5 10.5t-51.5 30.5t-34.5 49t-12.5 66q0 36 13 65t35 49.5t52 31.5t64 11
q45 0 78.5 -14.5t55.5 -40t32.5 -61t10.5 -78.5zM200 389q-16 0 -31.5 -6t-27.5 -17t-19.5 -28.5t-7.5 -39.5q0 -23 7 -40t19 -28.5t27.5 -17.5t31.5 -6q41 0 68 23.5t27 69.5q0 41 -24.5 65.5t-69.5 24.5z" />
    <glyph glyph-name="zero.num" unicode="&#xe416;" horiz-adv-x="473" 
d="M237 259q-40 0 -75.5 14.5t-62.5 44t-43 73t-16 100.5t16 100.5t43 72.5t62.5 43.5t75.5 14.5t75.5 -14.5t62.5 -43t42.5 -72t15.5 -100.5t-15.5 -100.5t-42.5 -73t-62.5 -44.5t-75.5 -15zM237 323q23 0 43.5 9t36 29t24.5 52t9 78t-9 77.5t-24.5 51.5t-36 29t-43.5 9
t-43.5 -9t-36 -29t-24.5 -51.5t-9 -77.5t9 -78t24.5 -52t36 -29t43.5 -9z" />
    <glyph glyph-name="one.num" unicode="&#xe417;" horiz-adv-x="313" 
d="M233 265h-82v361l-100 -93v80l111 103h71v-451z" />
    <glyph glyph-name="two.num" unicode="&#xe418;" horiz-adv-x="385" 
d="M340 265h-305v76q59 43 100 77.5t67 63t38 53.5t12 49q0 35 -21 54t-55 19q-42 0 -73 -14.5t-56 -32.5v65q23 18 56.5 32.5t88.5 14.5q63 0 103 -35.5t40 -103.5q0 -60 -53.5 -119t-160.5 -131h219v-68z" />
    <glyph glyph-name="three.num" unicode="&#xe419;" horiz-adv-x="376" 
d="M330 393q0 -60 -45 -97t-127 -37q-45 0 -77 11t-52 25v70q18 -14 49 -27.5t80 -13.5q87 0 87 74q0 33 -20.5 51t-64.5 18h-60v67h63q30 0 49 16t19 48q0 28 -18 44t-53 16q-38 0 -70 -11.5t-55 -28.5v70q22 14 55.5 24t75.5 10q69 0 107 -32.5t38 -86.5q0 -43 -21.5 -68
t-52.5 -31q38 -8 65.5 -35t27.5 -76z" />
    <glyph glyph-name="four.num" unicode="&#xe41a;" horiz-adv-x="413" 
d="M323 365v-100h-80v100h-217v59l209 292h88v-286h65v-65h-65zM243 430v195l-138 -195h138z" />
    <glyph glyph-name="five.num" unicode="&#xe41b;" horiz-adv-x="388" 
d="M342 417q0 -39 -13 -68.5t-35.5 -49.5t-53.5 -30t-67 -10q-47 0 -77.5 8.5t-55.5 26.5v72q19 -14 47.5 -28t81.5 -14q39 0 64 23.5t25 65.5t-24 61.5t-61 19.5q-32 0 -47 -7t-23 -14h-55v243h265v-67h-194v-106q13 8 31.5 13t44.5 5q68 0 107.5 -37.5t39.5 -106.5z" />
    <glyph glyph-name="six.num" unicode="&#xe41c;" horiz-adv-x="418" 
d="M381 411q0 -35 -13 -64t-35 -49.5t-51.5 -31.5t-63.5 -11q-45 0 -78.5 14.5t-55.5 41t-33 63t-11 81.5q0 59 12.5 108t37 84t61.5 54t87 19q38 0 62.5 -6.5t42.5 -17.5v-66q-23 16 -49.5 22t-55.5 6q-56 0 -87.5 -40.5t-38.5 -100.5q21 26 48.5 38t58.5 12
q34 0 63.5 -10.5t51.5 -30.5t34.5 -49t12.5 -66zM218 321q16 0 31.5 6t27.5 17t19 28t7 39q0 45 -26 68.5t-58 23.5q-41 0 -68 -23.5t-27 -69.5q0 -40 24.5 -64.5t69.5 -24.5z" />
    <glyph glyph-name="seven.num" unicode="&#xe41d;" horiz-adv-x="365" 
d="M154 265h-86l176 384h-214v67h305v-50z" />
    <glyph glyph-name="eight.num" unicode="&#xe41e;" horiz-adv-x="394" 
d="M359 387q0 -30 -12 -54t-34 -40.5t-51.5 -25t-63.5 -8.5q-35 0 -65 8.5t-52 24.5t-34 39.5t-12 53.5q0 45 26 74.5t71 42.5q-38 11 -59.5 36.5t-21.5 66.5q0 58 42 87.5t105 29.5q31 0 58 -7.5t46.5 -21.5t30.5 -36t11 -50q0 -42 -21.5 -68t-58.5 -37q44 -12 69.5 -41
t25.5 -74zM198 532q29 0 47.5 16.5t18.5 46.5t-18.5 46.5t-47.5 16.5t-48 -16.5t-19 -46.5t19 -46.5t48 -16.5zM198 323q35 0 57 19.5t22 55.5q0 35 -22 54.5t-57 19.5t-57.5 -19.5t-22.5 -54.5q0 -36 22.5 -55.5t57.5 -19.5z" />
    <glyph glyph-name="nine.num" unicode="&#xe41f;" horiz-adv-x="418" 
d="M377 526q0 -61 -13 -111t-38.5 -85.5t-63.5 -55t-89 -19.5q-38 0 -63 6.5t-45 17.5v66q23 -16 51 -22t57 -6q60 0 91.5 39.5t39.5 99.5q-20 -26 -47.5 -37.5t-57.5 -11.5q-35 0 -64.5 10.5t-51.5 30.5t-34.5 49t-12.5 66q0 36 13 65t35 49.5t52 31.5t64 11
q45 0 78.5 -14.5t55.5 -40t32.5 -61t10.5 -78.5zM200 654q-16 0 -31.5 -6t-27.5 -17t-19.5 -28.5t-7.5 -39.5q0 -23 7 -40t19 -28.5t27.5 -17.5t31.5 -6q41 0 68 23.5t27 69.5q0 41 -24.5 65.5t-69.5 24.5z" />
    <glyph glyph-name="commaaccent" unicode="&#xf6c3;" horiz-adv-x="451" 
d="M286 -114q0 -19 -5.5 -35.5t-14.5 -30.5t-19.5 -26t-20.5 -22h-62q16 15 27.5 32t25.5 42q-18 4 -29.5 17.5t-11.5 33.5q0 22 15 37t38 15t40 -15.5t17 -47.5z" />
    <glyph glyph-name="f_f" unicode="&#xfb00;" horiz-adv-x="703" 
d="M522 444v-444h-88v444h-243v-444h-88v444h-63v75h63v13q0 92 49 139t134 47q19 0 35.5 -2.5t30.5 -7.5v-79q-9 4 -26 7t-36 3q-46 0 -72.5 -24t-26.5 -83v-13h243v13q0 92 49 143t134 51q37 0 66 -9v-80q-9 4 -26 7t-36 3q-46 0 -72.5 -28t-26.5 -87v-13h150v-75h-150z
" />
    <glyph glyph-name="fi" unicode="&#xfb01;" horiz-adv-x="593" 
d="M191 444v-444h-88v444h-63v75h63v13q0 92 49 143t134 51q37 0 66 -9v-80q-9 4 -26 7t-36 3q-46 0 -72.5 -28t-26.5 -87v-13h150v-75h-150zM479 595q-27 0 -43 16.5t-16 40.5t16 41t43 17q26 0 41 -17t15 -41t-15 -40.5t-41 -16.5zM522 519v-519h-88v519h88z" />
    <glyph glyph-name="fl" unicode="&#xfb02;" horiz-adv-x="593" 
d="M191 444v-444h-88v444h-63v75h63v13q0 92 49 143t134 51q37 0 66 -9v-80q-9 4 -26 7t-36 3q-46 0 -72.5 -28t-26.5 -87v-13h150v-75h-150zM522 717v-717h-88v717h88z" />
    <glyph glyph-name="uniFEFF" unicode="&#xfeff;" horiz-adv-x="0" 
 />
    <glyph glyph-name="idotaccent" horiz-adv-x="231" 
d="M117 595q-27 0 -43 16.5t-16 40.5t16 41t43 17q26 0 41 -17t15 -41t-15 -40.5t-41 -16.5zM160 519v-519h-88v519h88z" />
    <glyph glyph-name="space_uni0326" horiz-adv-x="451" 
d="M286 -114q0 -19 -5.5 -35.5t-14.5 -30.5t-19.5 -26t-20.5 -22h-62q16 15 27.5 32t25.5 42q-18 4 -29.5 17.5t-11.5 33.5q0 22 15 37t38 15t40 -15.5t17 -47.5z" />
    <glyph glyph-name="one.sup" horiz-adv-x="313" 
d="M233 325h-82v361l-100 -93v80l111 103h71v-451z" />
    <glyph glyph-name="two.sup" horiz-adv-x="385" 
d="M340 325h-305v76q59 43 100 77.5t67 63t38 53.5t12 49q0 35 -21 54t-55 19q-42 0 -73 -14.5t-56 -32.5v65q23 18 56.5 32.5t88.5 14.5q63 0 103 -35.5t40 -103.5q0 -60 -53.5 -119t-160.5 -131h219v-68z" />
    <glyph glyph-name="three.sup" horiz-adv-x="376" 
d="M330 453q0 -60 -45 -97t-127 -37q-45 0 -77 11t-52 25v70q18 -14 49 -27.5t80 -13.5q87 0 87 74q0 33 -20.5 51t-64.5 18h-60v67h63q30 0 49 16t19 48q0 28 -18 44t-53 16q-38 0 -70 -11.5t-55 -28.5v70q22 14 55.5 24t75.5 10q69 0 107 -32.5t38 -86.5q0 -43 -21.5 -68
t-52.5 -31q38 -8 65.5 -35t27.5 -76z" />
    <glyph glyph-name="I.alt" horiz-adv-x="412" 
d="M62 717h289v-85h-97v-547h97v-85h-289v85h97v547h-97v85z" />
    <glyph glyph-name="i.alt" horiz-adv-x="244" 
d="M129 595q-26 0 -42 16.5t-16 40.5t16 41t42 17t41.5 -17t15.5 -41t-15.5 -40.5t-41.5 -16.5zM-3 519h176v-519h-88v460h-88v59z" />
    <glyph glyph-name="j.alt" horiz-adv-x="250" 
d="M134 595q-26 0 -42 16.5t-16 40.5t16 41t42 17t41.5 -17t15.5 -41t-15.5 -40.5t-41.5 -16.5zM2 519h176v-575q0 -25 -8 -48.5t-24.5 -42t-43.5 -29.5t-64 -11q-20 0 -45 4.5t-48 16.5v85q14 -11 33 -19t43 -8q38 0 53.5 18t15.5 44v506h-88v59z" />
    <glyph glyph-name="l.alt" horiz-adv-x="231" 
d="M-16 717h176v-717h-88v657h-88v60z" />
    <glyph glyph-name="dotlessi.alt" horiz-adv-x="244" 
d="M-3 519h176v-519h-88v460h-88v59z" />
    <glyph glyph-name="dotlessj.alt" horiz-adv-x="250" 
d="M2 519h176v-575q0 -25 -8 -48.5t-24.5 -42t-43.5 -29.5t-64 -11q-20 0 -45 4.5t-48 16.5v85q14 -11 33 -19t43 -8q38 0 53.5 18t15.5 44v506h-88v59z" />
    <glyph glyph-name="Iacute.alt" horiz-adv-x="412" 
d="M62 717h289v-85h-97v-547h97v-85h-289v85h97v547h-97v85zM243 909h125l-136 -136h-85z" />
    <glyph glyph-name="Ibreve.alt" horiz-adv-x="412" 
d="M62 717h289v-85h-97v-547h97v-85h-289v85h97v547h-97v85zM206 763q-41 0 -71.5 12t-50.5 33t-30 49.5t-10 61.5h88q0 -49 19.5 -70t54.5 -21t54 21t19 70h88q0 -33 -10 -61.5t-30 -49.5t-50 -33t-71 -12z" />
    <glyph glyph-name="Icircumflex.alt" horiz-adv-x="412" 
d="M62 717h289v-85h-97v-547h97v-85h-289v85h97v547h-97v85zM206 848l-80 -85h-75l105 148h100l105 -148h-75z" />
    <glyph glyph-name="Idieresis.alt" horiz-adv-x="412" 
d="M62 717h289v-85h-97v-547h97v-85h-289v85h97v547h-97v85zM98 786q-26 0 -41.5 16.5t-15.5 39.5q0 24 15.5 40.5t41.5 16.5t41 -16.5t15 -40.5q0 -23 -15 -39.5t-41 -16.5zM313 786q-26 0 -42 16.5t-16 39.5q0 24 16 40.5t42 16.5t41.5 -16.5t15.5 -40.5
q0 -23 -15.5 -39.5t-41.5 -16.5z" />
    <glyph glyph-name="Idotaccent.alt" horiz-adv-x="412" 
d="M62 717h289v-85h-97v-547h97v-85h-289v85h97v547h-97v85zM204 786q-26 0 -41.5 16.5t-15.5 39.5q0 24 15.5 40.5t41.5 16.5t41.5 -16.5t15.5 -40.5q0 -23 -15.5 -39.5t-41.5 -16.5z" />
    <glyph glyph-name="Igrave.alt" horiz-adv-x="412" 
d="M62 717h289v-85h-97v-547h97v-85h-289v85h97v547h-97v85zM170 773l-136 136h125l96 -136h-85z" />
    <glyph glyph-name="Imacron.alt" horiz-adv-x="412" 
d="M62 717h289v-85h-97v-547h97v-85h-289v85h97v547h-97v85zM50 878h310v-70h-310v70z" />
    <glyph glyph-name="Iogonek.alt" horiz-adv-x="412" 
d="M62 717h289v-85h-97v-547h97v-85h-289v85h97v547h-97v85zM240 -192q-55 0 -85 24.5t-30 66.5q0 21 7 37.5t18.5 28.5t25 20.5t27.5 14.5h68q-27 -10 -48.5 -30t-21.5 -50q0 -20 13 -34.5t43 -14.5q20 0 42 8v-60q-7 -5 -22.5 -8t-36.5 -3z" />
    <glyph glyph-name="Itilde.alt" horiz-adv-x="412" 
d="M62 717h289v-85h-97v-547h97v-85h-289v85h97v547h-97v85zM32 784q-4 25 0 49t16 43t32 30.5t50 11.5q26 0 46.5 -8.5t37.5 -19t31.5 -19t29.5 -8.5q41 0 38 59h63q4 -25 0 -49t-16 -43t-32.5 -30.5t-49.5 -11.5q-26 0 -46 8.5t-37 19t-32 19t-30 8.5q-41 0 -37 -59h-64v0
z" />
    <glyph glyph-name="iacute.alt" horiz-adv-x="244" 
d="M-3 519h176v-519h-88v460h-88v59zM162 746h115l-131 -158h-75z" />
    <glyph glyph-name="ibreve.alt" horiz-adv-x="244" 
d="M-3 519h176v-519h-88v460h-88v59zM122 588q-38 0 -66.5 11t-47.5 30t-28.5 45t-9.5 55h88q0 -42 17.5 -59.5t46.5 -17.5q30 0 46.5 17.5t16.5 59.5h88q0 -29 -9.5 -55t-28 -45t-47 -30t-66.5 -11z" />
    <glyph glyph-name="icircumflex.alt" horiz-adv-x="244" 
d="M-3 519h176v-519h-88v460h-88v59zM117 673l-80 -85h-75l105 148h100l105 -148h-75z" />
    <glyph glyph-name="idieresis.alt" horiz-adv-x="244" 
d="M-3 519h176v-519h-88v460h-88v59zM23 595q-25 0 -41 16.5t-16 39.5q0 25 16 41t41 16q26 0 41.5 -16t15.5 -41q0 -23 -15.5 -39.5t-41.5 -16.5zM229 595q-26 0 -41.5 16.5t-15.5 39.5q0 25 15.5 41t41.5 16t41.5 -16t15.5 -41q0 -23 -15.5 -39.5t-41.5 -16.5z" />
    <glyph glyph-name="igrave.alt" horiz-adv-x="244" 
d="M-3 519h176v-519h-88v460h-88v59zM86 588l-131 158h115l91 -158h-75z" />
    <glyph glyph-name="imacron.alt" horiz-adv-x="244" 
d="M-3 519h176v-519h-88v460h-88v59zM-31 687h290v-70h-290v70z" />
    <glyph glyph-name="iogonek.alt" horiz-adv-x="244" 
d="M142 -192q-55 0 -85 26t-30 74q0 41 24.5 68t51.5 38l70 -14q-27 -10 -48.5 -30t-21.5 -50q0 -20 13 -34.5t43 -14.5q20 0 42 8v-60q-7 -5 -22.5 -8t-36.5 -3zM129 595q-26 0 -42 16.5t-16 40.5t16 41t42 17t41.5 -17t15.5 -41t-15.5 -40.5t-41.5 -16.5zM-3 519h176v-519
h-88v460h-88v59z" />
    <glyph glyph-name="itilde.alt" horiz-adv-x="244" 
d="M-3 519h176v-519h-88v460h-88v59zM-50 598q-3 22 0.5 44t14.5 38.5t30 27t47 10.5q24 0 43 -6.5t35 -14t29.5 -14t27.5 -6.5q37 0 34 45h63q3 -23 -0.5 -44.5t-15 -38t-30.5 -27t-46 -10.5q-24 0 -43 6.5t-35 14t-30 14t-27 6.5q-37 0 -34 -45h-63v0z" />
    <glyph glyph-name="jcircumflex.alt" horiz-adv-x="250" 
d="M2 519h176v-575q0 -25 -8 -48.5t-24.5 -42t-43.5 -29.5t-64 -11q-20 0 -45 4.5t-48 16.5v85q14 -11 33 -19t43 -8q38 0 53.5 18t15.5 44v506h-88v59zM113 673l-80 -85h-75l105 148h100l105 -148h-75z" />
    <glyph glyph-name="lacute.alt" horiz-adv-x="231" 
d="M-16 717h176v-717h-88v657h-88v60zM163 909h125l-136 -136h-85z" />
    <glyph glyph-name="lcaron.alt" horiz-adv-x="231" 
d="M221 528l20 189h101l-60 -189h-61zM-16 717h176v-717h-88v657h-88v60z" />
    <glyph glyph-name="lcommaaccent.alt" horiz-adv-x="231" 
d="M-16 717h176v-717h-88v657h-88v60zM171 -114q0 -19 -5.5 -35.5t-14.5 -30.5t-19.5 -26t-20.5 -22h-62q16 15 27.5 32t25.5 42q-18 4 -29.5 17.5t-11.5 33.5q0 22 15 37t38 15t40 -15.5t17 -47.5z" />
    <glyph glyph-name="space_uni0326.alt" horiz-adv-x="451" 
d="M274 648q0 -22 -15 -37.5t-38 -15.5t-40 16t-17 48q0 19 5.5 35.5t14.5 30.5t19.5 26t20.5 22h62q-16 -14 -27.5 -31.5t-25.5 -42.5q18 -4 29.5 -17.5t11.5 -33.5z" />
    <glyph glyph-name="one.alt" 
d="M491 0h-411v71h167v534l-167 -141v99l182 154h76v-646h153v-71z" />
    <glyph glyph-name="registered.alt" horiz-adv-x="634" 
d="M317 172q-59 0 -109.5 20.5t-88 57.5t-58.5 88t-21 113q0 60 21 110.5t58.5 87t88 57t109.5 20.5t110 -20.5t88 -57t58 -87t21 -110.5q0 -62 -21 -113t-58 -88t-88 -57.5t-110 -20.5zM317 222q50 0 91 17t70 47.5t45 72.5t16 92q0 49 -16 90t-45 71t-70 47t-91 17
q-49 0 -90 -17t-70 -47t-45.5 -71t-16.5 -90q0 -50 16.5 -92t45.5 -72.5t70 -47.5t90 -17zM221 585h96q52 0 81 -20t29 -62q0 -31 -15.5 -50t-39.5 -28l65 -111h-60l-58 100h-42v-100h-56v271zM277 538v-78h35q26 0 42 9.5t16 32.5q0 20 -13.5 28t-39.5 8h-40z" />
    <glyph glyph-name="caron.alt" horiz-adv-x="500" 
d="M197 528l20 189h101l-60 -189h-61z" />
    <glyph glyph-name="questiondown.uc" horiz-adv-x="470" 
d="M44.0273 197.031q0 53.9971 17.998 89.9951q17.999 35.998 44.498 60.4961q26.498 24.499 57.4961 41.4971q30.998 16.999 57.4961 33.498q26.499 16.499 44.498 36.498q17.998 19.999 17.998 48.9971v17.999h74.9961v-16.999q0 -47.9971 -16.499 -77.9951
t-41.998 -50.4971q-25.498 -20.499 -54.4961 -35.998t-54.4971 -34.498q-25.498 -18.998 -41.9971 -45.4971q-16.499 -26.498 -16.499 -68.4951q0 -23.999 5.5 -46.4971q5.49902 -22.499 21.498 -39.998t45.4971 -28.498q29.499 -11 76.4961 -11q58.9961 0 93.9941 13
q34.998 12.999 52.9961 24.998v-78.9951q-23.998 -12.999 -59.9961 -25.498q-35.998 -12.5 -95.9941 -12.5t-103.493 15.999q-43.498 15.999 -70.9961 43.998q-27.498 27.998 -40.9971 65.4961q-13.499 37.4971 -13.499 80.4941zM318.01 723q26.999 0 44.498 -17.499
q17.498 -17.499 17.498 -43.498q0 -25.998 -17.498 -43.9971q-17.499 -17.999 -44.498 -17.999q-26.998 0 -44.4971 17.999t-17.499 43.9971q0 25.999 17.499 43.498t44.4971 17.499z" />
    <glyph glyph-name="exclamdown.uc" horiz-adv-x="274" 
d="M182 0.0439453l-9 525.968h-71l-8 -525.968h88zM137 723q-27 0 -44.5 -17.499t-17.5 -43.498q0 -25.998 17.5 -43.9971t44.5 -17.999t44.5 17.999t17.5 43.9971q0 25.999 -17.5 43.498t-44.5 17.499z" />
    <glyph glyph-name="hyphen.uc" horiz-adv-x="360" 
d="M60 396h240v-80h-240v80z" />
    <glyph glyph-name="endash.uc" horiz-adv-x="570" 
d="M60 392h450v-75h-450v75z" />
    <glyph glyph-name="emdash.uc" horiz-adv-x="900" 
d="M60 392h820v-75h-820v75z" />
    <glyph glyph-name="guilsinglleft.uc" horiz-adv-x="300" 
d="M139 324l126 -195h-93l-127 195l127 195h93z" />
    <glyph glyph-name="guilsinglright.uc" horiz-adv-x="300" 
d="M128 129h-93l126 195l-126 195h93l127 -195z" />
    <glyph glyph-name="guillemotleft.uc" horiz-adv-x="510" 
d="M349 324l126 -195h-92l-128 195l128 195h92zM139 324l126 -195h-93l-127 195l127 195h93z" />
    <glyph glyph-name="guillemotright.uc" horiz-adv-x="510" 
d="M338 129h-93l126 195l-126 195h93l127 -195zM128 129h-93l126 195l-126 195h93l127 -195z" />
    <glyph glyph-name="parenleft.uc" horiz-adv-x="354" 
d="M234 -79q-78 83 -116 190.5t-38 225.5q0 59 9.5 118t29 113t48 102t67.5 86h87q-41 -37 -70 -84.5t-48.5 -101.5t-28.5 -112.5t-9 -117.5q0 -118 37.5 -226t118.5 -193h-87z" />
    <glyph glyph-name="parenright.uc" horiz-adv-x="354" 
d="M120.015 -79q77.9951 83 115.992 190.5q37.998 107.5 37.998 225.5q0 59 -9.49902 118q-9.5 59 -28.999 113q-19.498 54 -47.9971 102q-28.498 48 -67.4951 86h-86.9951q40.998 -37 69.9961 -84.5t48.4971 -101.5q19.498 -54 28.498 -112.5q8.99902 -58.5 8.99902 -117.5
q0 -118 -37.4971 -226q-37.498 -108 -118.493 -193h86.9951z" />
    <glyph glyph-name="bracketleft.uc" horiz-adv-x="408" 
d="M100 756h278v-75h-193v-685h193v-75h-278v835z" />
    <glyph glyph-name="bracketright.uc" horiz-adv-x="408" 
d="M308.006 756h-277.982v-75h192.988v-685h-192.988v-75h277.982v835z" />
    <glyph glyph-name="braceleft.uc" horiz-adv-x="429" 
d="M369 -75q-16 -3 -30.5 -4t-27.5 -1q-40 0 -68 10.5t-46 29.5t-26.5 45t-8.5 58t6.5 56.5t6.5 54.5q0 27 -3.5 48.5t-15 38t-32 27t-54.5 13.5v75q34 3 54.5 13.5t32 27t15 38.5t3.5 48q0 30 -6.5 54.5t-6.5 56.5q0 31 8.5 57.5t26.5 45.5t46 29.5t68 10.5q13 0 27.5 -1.5
t30.5 -3.5v-71q-28 5 -44 5q-44 0 -59 -22t-15 -55q0 -17 1 -31.5t2.5 -28t2.5 -27.5t1 -31q0 -21 -4 -42t-15.5 -41t-31.5 -38t-52 -32q32 -14 52 -31.5t31.5 -37t15.5 -41t4 -42.5q0 -17 -1 -31t-2.5 -27.5t-2.5 -28t-1 -31.5q0 -32 14.5 -55t57.5 -23q19 0 46 6v-71z" />
    <glyph glyph-name="braceright.uc" horiz-adv-x="429" 
d="M60.0225 -75q15.999 -3 30.498 -4t27.498 -1q39.998 0 67.9961 10.5t45.9971 29.5t26.499 45q8.49902 26 8.49902 58t-6.49902 56.5q-6.5 24.5 -6.5 54.5q0 27 3.5 48.5q3.49902 21.5 14.999 38q11.499 16.5 31.998 27q20.498 10.5 54.4961 13.5v75
q-33.998 3 -54.4961 13.5q-20.499 10.5 -31.998 27q-11.5 16.5 -14.999 38.5q-3.5 22 -3.5 48q0 30 6.5 54.5q6.49902 24.5 6.49902 56.5q0 31 -8.49902 57.5q-8.5 26.5 -26.499 45.5t-45.9971 29.5t-67.9961 10.5q-12.999 0 -27.498 -1.5t-30.498 -3.5v-71
q27.998 5 43.9971 5q43.998 0 58.9971 -22t14.999 -55q0 -17 -1 -31.5t-2.5 -28t-2.5 -27.5t-1 -31q0 -21 4 -42t15.499 -41t31.498 -38t51.9971 -32q-31.998 -14 -51.9971 -31.5t-31.498 -37t-15.499 -41t-4 -42.5q0 -17 1 -31t2.5 -27.5t2.5 -28t1 -31.5
q0 -32 -14.499 -55t-57.4971 -23q-18.999 0 -45.9971 6v-71z" />
    <glyph glyph-name="slash.uc" horiz-adv-x="368" 
d="M0 -40l288 796h80l-288 -796h-80z" />
    <glyph glyph-name="backslash.uc" horiz-adv-x="368" 
d="M0 756h80l288 -796h-80z" />
    <glyph glyph-name="bar.uc" horiz-adv-x="285" 
d="M185 756v-796h-85v796h85z" />
    <glyph glyph-name="at.uc" horiz-adv-x="964" 
d="M693 -51q-14 -6 -36 -12t-50 -11t-61 -8.5t-68 -3.5q-92 0 -171.5 25t-138 74.5t-92.5 122.5t-34 169q0 98 34.5 179.5t96 139.5t146 90t184.5 32q87 0 163.5 -24t133 -69.5t89.5 -110t33 -145.5q0 -56 -15.5 -105.5t-44.5 -86.5t-70.5 -58.5t-93.5 -21.5q-59 0 -88.5 26
t-39.5 64q-24 -45 -62.5 -67.5t-83.5 -22.5q-29 0 -57 10t-49.5 31.5t-35 55.5t-13.5 82q0 45 14.5 87t41 74.5t62.5 51.5t79 19q44 0 76 -22t47 -70l33 67h56l-39 -215q-3 -17 -2.5 -35t7.5 -33t21.5 -25t40.5 -10q27 0 52 12.5t43.5 37t30 60.5t11.5 82q0 68 -26.5 122
t-73 92t-109.5 58t-136 20q-80 0 -149 -25t-119.5 -72t-79 -114.5t-28.5 -151.5q0 -82 27 -143.5t75.5 -103t115 -62.5t144.5 -21q75 0 129.5 13t79.5 25v-73zM352 297q0 -31 7.5 -51.5t20.5 -32.5t29 -17t33 -5q31 0 54.5 13.5t39.5 36.5t24 53t8 63t-8 54t-20.5 34t-29 18
t-34.5 5q-30 0 -53.5 -14t-39 -38t-23.5 -55t-8 -64z" />
    <glyph glyph-name="grave.uc" horiz-adv-x="451" 
d="M214 773l-136 136h125l96 -136h-85z" />
    <glyph glyph-name="dieresis.uc" horiz-adv-x="451" 
d="M118 786q-26 0 -41.5 16.5t-15.5 39.5q0 24 15.5 40.5t41.5 16.5t41 -16.5t15 -40.5q0 -23 -15 -39.5t-41 -16.5zM333 786q-26 0 -42 16.5t-16 39.5q0 24 16 40.5t42 16.5t41.5 -16.5t15.5 -40.5q0 -23 -15.5 -39.5t-41.5 -16.5z" />
    <glyph glyph-name="macron.uc" horiz-adv-x="451" 
d="M70 878h310v-70h-310v70z" />
    <glyph glyph-name="acute.uc" horiz-adv-x="451" 
d="M247 909h125l-136 -136h-85z" />
    <glyph glyph-name="circumflex.uc" horiz-adv-x="451" 
d="M225 848l-80 -85h-75l105 148h100l105 -148h-75z" />
    <glyph glyph-name="caron.uc" horiz-adv-x="451" 
d="M275 763h-100l-105 148h75l80 -85l80 85h75z" />
    <glyph glyph-name="breve.uc" horiz-adv-x="450" 
d="M225 763q-41 0 -71.5 12t-50.5 33t-30 49.5t-10 61.5h88q0 -49 19.5 -70t54.5 -21t54 21t19 70h88q0 -33 -10 -61.5t-30 -49.5t-50 -33t-71 -12z" />
    <glyph glyph-name="dotaccent.uc" horiz-adv-x="451" 
d="M225 786q-26 0 -41.5 16.5t-15.5 39.5q0 24 15.5 40.5t41.5 16.5t41.5 -16.5t15.5 -40.5q0 -23 -15.5 -39.5t-41.5 -16.5z" />
    <glyph glyph-name="ring.uc" horiz-adv-x="451" 
d="M225 756q-48 0 -79.5 30.5t-31.5 78.5t31.5 78.5t79.5 30.5t79.5 -30.5t31.5 -78.5t-31.5 -78.5t-79.5 -30.5zM225 811q23 0 38.5 15t15.5 39t-15.5 39.5t-38.5 15.5t-38 -15.5t-15 -39.5t15 -39t38 -15z" />
    <glyph glyph-name="tilde.uc" horiz-adv-x="451" 
d="M53 784q-4 25 0 49t16 43t32 30.5t50 11.5q26 0 46.5 -8.5t37.5 -19t31.5 -19t29.5 -8.5q41 0 38 59h63q4 -25 0 -49t-16 -43t-32.5 -30.5t-49.5 -11.5q-26 0 -46 8.5t-37 19t-32 19t-30 8.5q-41 0 -37 -59h-64v0z" />
    <glyph glyph-name="hungarumlaut.uc" horiz-adv-x="450" 
d="M61 773l64 136h111l-95 -136h-80zM259 773l64 136h111l-95 -136h-80z" />
    <glyph glyph-name="Cacute.pl" horiz-adv-x="671" 
d="M395 -10q-80 0 -145 25t-111.5 72.5t-71.5 116t-25 154.5q0 87 23 155t68 115.5t110.5 72.5t149.5 25q73 0 128 -15.5t90 -36.5v-90q-45 29 -103.5 43t-115.5 14q-127 0 -187.5 -70.5t-60.5 -212.5q0 -143 65.5 -213t193.5 -70q55 0 107.5 15t100.5 51v-90
q-29 -23 -84.5 -42t-131.5 -19zM320 773l41 136h120l-86 -136h-75z" />
    <glyph glyph-name="Euro.prop" horiz-adv-x="647" 
d="M583 25q-23 -13 -62.5 -24t-96.5 -11q-133 0 -209.5 68t-98.5 192h-81v69h73q-1 10 -1 19.5v19.5v21t1 20h-73v70h83q25 123 106 190t212 67q48 0 82 -8.5t65 -24.5v-79q-38 18 -71.5 25.5t-77.5 7.5q-98 0 -152.5 -44t-72.5 -134h197v-70h-206q-1 -10 -1 -20v-21v-20.5
t1 -18.5h206v-69h-199q16 -91 67.5 -136t151.5 -45q54 0 93.5 11t63.5 24v-79v0z" />
    <glyph glyph-name="Nacute.pl" horiz-adv-x="743" 
d="M661 0h-128l-360 602v-602h-89v717h127l360 -602v602h90v-717zM328 773l41 136h120l-86 -136h-75z" />
    <glyph glyph-name="Oacute.pl" horiz-adv-x="770" 
d="M385 -10q-72 0 -135 24.5t-109 71.5t-72.5 116t-26.5 159t26.5 158.5t72.5 114t109 69t135 23.5q73 0 136 -23.5t109 -69.5t72 -114.5t26 -158.5q0 -89 -26 -158t-72 -116t-109 -71.5t-136 -24.5zM385 75q52 0 96 15.5t76.5 49t51 87.5t18.5 131t-18.5 131t-51 87.5
t-76.5 49t-96 15.5t-96 -15.5t-76.5 -49t-51 -87.5t-18.5 -131t18.5 -131t51 -87.5t76.5 -49t96 -15.5zM346 773l41 136h120l-86 -136h-75z" />
    <glyph glyph-name="Sacute.pl" horiz-adv-x="586" 
d="M284 -10q-49 0 -88 6.5t-68.5 17t-50 23t-32.5 24.5v90q15 -13 39 -26.5t55.5 -24.5t68 -18t76.5 -7q78 0 124 29.5t46 89.5q0 30 -11 49.5t-32 33t-52.5 23t-73.5 20.5t-84 25t-75.5 37t-54 58t-20.5 89q0 93 65 145t199 52q39 0 69.5 -4.5t54 -11t41 -14.5t31.5 -15
v-90q-42 27 -90.5 38.5t-105.5 11.5q-48 0 -80.5 -7.5t-52.5 -21.5t-29 -34t-9 -45q0 -30 13.5 -50t36 -33.5t51.5 -22.5t61 -16q42 -10 86 -23t79 -36t57.5 -59.5t22.5 -94.5q0 -57 -22.5 -96.5t-59.5 -64.5t-85 -36t-100 -11zM249 773l41 136h120l-86 -136h-75z" />
    <glyph glyph-name="Zacute.pl" horiz-adv-x="614" 
d="M561 0h-518v68l400 563h-389v86h506v-69l-403 -563h404v-85zM263 773l41 136h120l-86 -136h-75z" />
    <glyph glyph-name="acute.pl" horiz-adv-x="451" 
d="M175 588l36 158h106l-80 -158h-62z" />
    <glyph glyph-name="acute.ucpl" horiz-adv-x="451" 
d="M181 773l41 136h120l-86 -136h-75z" />
    <glyph glyph-name="approxequal.prop" horiz-adv-x="634" 
d="M55 354q1 31 10.5 61.5t28.5 54t48.5 38t71.5 14.5q41 0 70 -13.5t51.5 -30t42 -30t42.5 -13.5q34 0 54 22t31 71h74q-1 -32 -10.5 -62t-29 -53.5t-49 -38t-70.5 -14.5t-70 13.5t-51.5 30t-42.5 30t-42 13.5q-33 0 -53.5 -22t-31.5 -71h-74zM55 144q1 31 10.5 61.5
t28.5 54t48.5 38t71.5 14.5q41 0 70 -13.5t51.5 -30t42 -30t42.5 -13.5q34 0 54 22t31 71h74q-1 -32 -10.5 -62t-29 -53t-49 -37.5t-70.5 -14.5t-70 13.5t-51.5 29.5t-42.5 29.5t-42 13.5q-33 0 -53.5 -22t-31.5 -71h-74z" />
    <glyph glyph-name="cacute.pl" horiz-adv-x="489" 
d="M296 -10q-60 0 -108.5 18.5t-82.5 53t-52 84.5t-18 114q0 63 18.5 113t52.5 84.5t83 53t111 18.5q48 0 88 -10.5t66 -30.5v-79q-32 21 -71.5 31.5t-81.5 10.5q-91 0 -133.5 -47t-42.5 -144t41 -144t130 -47q47 0 86.5 11.5t71.5 29.5v-79q-28 -17 -67.5 -29t-90.5 -12z
M234 588l36 158h106l-80 -158h-62z" />
    <glyph glyph-name="cent.prop" horiz-adv-x="509" 
d="M459 31q-25 -15 -58.5 -26.5t-76.5 -13.5v-131h-84v135q-94 17 -147 85.5t-53 179.5q0 109 53 177.5t147 85.5v127h84v-121q42 -2 77 -13t58 -28v-79q-32 21 -71.5 31.5t-81.5 10.5q-176 0 -176 -191q0 -97 41.5 -144t129.5 -47q47 0 86.5 11.5t71.5 29.5v-79v0z" />
    <glyph glyph-name="divide.prop" horiz-adv-x="584" 
d="M292 481q-28 0 -46.5 18.5t-18.5 44.5q0 28 18.5 46t46.5 18t46 -18t18 -46q0 -26 -18 -44.5t-46 -18.5zM51 302v70h482v-70h-482zM292 65q-28 0 -46.5 18.5t-18.5 44.5q0 28 18.5 46t46.5 18t46 -18t18 -46q0 -26 -18 -44.5t-46 -18.5z" />
    <glyph glyph-name="dollar.prop" horiz-adv-x="586" 
d="M528 194q0 -50 -15 -86t-41.5 -60t-61.5 -37t-75 -18v-133h-84v131q-74 4 -121.5 23t-66.5 37v79q12 -9 34 -20t50.5 -20t62 -15t69.5 -6q76 0 117.5 31t41.5 94q0 31 -10 51t-29.5 33.5t-48 23.5t-66.5 21q-39 11 -77.5 24.5t-69 36.5t-49.5 57.5t-19 87.5q0 80 46 130
t136 63v124h84v-121q62 -2 99 -15t55 -24v-79q-28 17 -76 28.5t-105 11.5q-78 0 -114 -30.5t-36 -83.5q0 -31 12 -51.5t32 -34.5t46.5 -23t55.5 -16q39 -11 78.5 -23.5t72 -35t53 -59.5t20.5 -96z" />
    <glyph glyph-name="eight.prop" horiz-adv-x="598" 
d="M553 196q0 -48 -19.5 -86.5t-53 -65t-80 -40.5t-100.5 -14q-56 0 -102.5 13.5t-80.5 40t-53 64t-19 85.5q0 69 38.5 117t103.5 71q-54 20 -85 60.5t-31 101.5q0 44 17 78t48 57.5t72.5 35.5t91.5 12q48 0 90 -11.5t73 -34.5t48.5 -56.5t17.5 -78.5q0 -61 -32 -102.5
t-85 -61.5q64 -22 102.5 -68.5t38.5 -116.5zM300 417q60 0 99.5 30.5t39.5 84.5t-39.5 84.5t-99.5 30.5q-30 0 -55 -8t-44 -22.5t-29.5 -36t-10.5 -48.5t10.5 -48.5t29.5 -36t44 -22.5t55 -8zM300 69q34 0 63.5 9.5t51.5 27t34 43.5t12 59t-12 59t-34 43.5t-51.5 27
t-63.5 9.5q-36 0 -65.5 -9.5t-51.5 -27t-34 -43.5t-12 -59t12 -59t34 -43.5t51.5 -27t65.5 -9.5z" />
    <glyph glyph-name="equal.prop" horiz-adv-x="593" 
d="M55 397v70h483v-70h-483zM55 207v70h483v-70h-483z" />
    <glyph glyph-name="five.prop" 
d="M501 237q0 -56 -18 -101.5t-51.5 -78t-81.5 -50t-107 -17.5q-66 0 -114.5 13t-83.5 38v98q18 -14 37.5 -26.5t43.5 -21.5t53 -14t64 -5q77 0 120 45t43 118q0 78 -42 114t-106 36q-48 0 -77 -14t-43 -31h-72v377h395v-86h-314v-206q21 16 52 27.5t74 11.5
q48 0 89.5 -14.5t72.5 -43t48.5 -71t17.5 -98.5z" />
    <glyph glyph-name="florin.prop" horiz-adv-x="538" 
d="M225 16q-34 -203 -197 -203q-22 0 -40 3t-31 7v73q8 -4 28.5 -8.5t40.5 -4.5q51 0 76.5 33t37.5 106l57 341h-89l15 71h86l15 89q18 107 70 155t141 48q29 0 57 -5v-80q-8 4 -29.5 7t-41.5 3q-50 0 -74 -28t-36 -100l-15 -89h142l-15 -71h-139l-59 -347v0z" />
    <glyph glyph-name="four.prop" horiz-adv-x="606" 
d="M471 170v-170h-87v170h-346v66l315 481h118v-466h97v-81h-97zM384 251v377l-247 -377h247z" />
    <glyph glyph-name="greater.prop" horiz-adv-x="513" 
d="M51 182l336 155l-336 155v80l412 -189v-91l-412 -190v80z" />
    <glyph glyph-name="greaterequal.prop" horiz-adv-x="523" 
d="M55 202l333 145l-333 145v80l413 -180v-90l-413 -180v80zM55 70h413v-70h-413v70z" />
    <glyph glyph-name="less.prop" horiz-adv-x="513" 
d="M51 292v91l412 189v-80l-336 -155l336 -155v-80z" />
    <glyph glyph-name="lessequal.prop" horiz-adv-x="523" 
d="M55 302v90l413 180v-80l-333 -145l333 -145v-80zM55 0v70h413v-70h-413z" />
    <glyph glyph-name="minus.prop" horiz-adv-x="584" 
d="M51 302v70h482v-70h-482z" />
    <glyph glyph-name="multiply.prop" horiz-adv-x="551" 
d="M452 111l-177 177l-177 -177l-53 53l177 177l-173 173l53 53l173 -173l173 173l53 -53l-173 -173l177 -177z" />
    <glyph glyph-name="nacute.pl" horiz-adv-x="575" 
d="M318 451q-60 0 -97.5 -27.5t-60.5 -70.5v-353h-88v519h83l3 -93h2q21 45 66 74t114 29q77 0 122.5 -40.5t45.5 -124.5v-364h-88v355q0 54 -27 75t-75 21zM248 588l36 158h106l-80 -158h-62z" />
    <glyph glyph-name="nine.prop" horiz-adv-x="623" 
d="M566 412q0 -94 -18 -171.5t-55 -133t-94 -86.5t-136 -31q-56 0 -97 10t-70 27v88q35 -23 77.5 -33.5t89.5 -10.5q50 0 88 20t64.5 54.5t41.5 82t19 101.5q-35 -46 -82.5 -67.5t-102.5 -21.5q-51 0 -96 16t-78 46.5t-52 75.5t-19 103q0 55 19.5 100.5t54 78t81 50
t100.5 17.5q71 0 121.5 -23t82.5 -64.5t46.5 -99.5t14.5 -128zM301 646q-31 0 -60 -10t-51 -30.5t-35.5 -51t-13.5 -70.5q0 -41 13 -72t34.5 -51.5t48.5 -31t56 -10.5q36 0 67 10.5t54 31.5t36 52.5t13 72.5q0 36 -11.5 65.5t-32.5 50.5t-51 32.5t-67 11.5z" />
    <glyph glyph-name="notequal.prop" horiz-adv-x="593" 
d="M284 207l-56 -135h-83l56 135h-146v70h175l50 120h-225v70h254l56 135h83l-56 -135h146v-70h-175l-50 -120h225v-70h-254z" />
    <glyph glyph-name="oacute.pl" horiz-adv-x="572" 
d="M285 -10q-53 0 -99 18t-79.5 52.5t-52.5 84.5t-19 115q0 64 19 114.5t52.5 84.5t79.5 52t99 18q54 0 100 -18t79.5 -52t53 -84.5t19.5 -114.5q0 -65 -19.5 -115t-53 -84.5t-79.5 -52.5t-100 -18zM285 69q35 0 64.5 11.5t51.5 35t34 59.5t12 85t-12 85t-34 59.5t-51.5 35
t-64.5 11.5t-64 -11.5t-50.5 -35t-33.5 -59.5t-12 -85t12 -85t33.5 -59.5t50.5 -35t64 -11.5zM236 588l36 158h106l-80 -158h-62z" />
    <glyph glyph-name="one.denalt" horiz-adv-x="347" 
d="M327 0h-267v62h93v288l-93 -83v81l115 103h59v-389h93v-62z" />
    <glyph glyph-name="one.numalt" horiz-adv-x="347" 
d="M327 265h-267v62h93v288l-93 -83v81l115 103h59v-389h93v-62z" />
    <glyph glyph-name="one.prop" horiz-adv-x="395" 
d="M292 0h-92v600l-152 -148v101l169 164h75v-717z" />
    <glyph glyph-name="one.propalt" horiz-adv-x="473" 
d="M465 0h-402v75h157v525l-157 -148v101l173 164h72v-642h157v-75z" />
    <glyph glyph-name="one.subalt" horiz-adv-x="347" 
d="M327 -90h-267v62h93v288l-93 -83v81l115 103h59v-389h93v-62z" />
    <glyph glyph-name="one.supalt" horiz-adv-x="347" 
d="M327 325h-267v62h93v288l-93 -83v81l115 103h59v-389h93v-62z" />
    <glyph glyph-name="percent.prop" horiz-adv-x="778" 
d="M140 -10l419 736h78l-419 -736h-78zM334 525q0 -47 -12 -83.5t-33.5 -61t-50 -37.5t-61.5 -13q-34 0 -62.5 12.5t-49.5 36.5t-33 59.5t-12 82.5t12 83.5t33 61.5t49.5 38t62.5 13q33 0 61.5 -12.5t50 -36.5t33.5 -60t12 -83zM96 523q0 -71 21.5 -100t59.5 -29q37 0 59 29
t22 100t-22 100t-59 29q-38 0 -59.5 -29t-21.5 -100zM758 195q0 -47 -12 -83.5t-33 -61.5t-50 -37.5t-62 -12.5q-34 0 -62.5 12.5t-49.5 36.5t-32.5 59.5t-11.5 82.5t11.5 83.5t32.5 61t49.5 37.5t62.5 13q33 0 62 -12.5t50 -36.5t33 -59.5t12 -82.5zM601 322
q-37 0 -58.5 -29t-21.5 -100t21.5 -100t58.5 -29t60 29t23 100t-23 100t-60 29z" />
    <glyph glyph-name="perthousand.prop" horiz-adv-x="1151" 
d="M140 -10l419 736h78l-419 -736h-78zM334 525q0 -47 -12 -83.5t-33.5 -61t-50 -37.5t-61.5 -13q-34 0 -62.5 12.5t-49.5 36.5t-33 59.5t-12 82.5t12 83.5t33 61.5t49.5 38t62.5 13q33 0 61.5 -12.5t50 -36.5t33.5 -60t12 -83zM96 523q0 -71 21.5 -100t59.5 -29q37 0 59 29
t22 100t-22 100t-59 29q-38 0 -59.5 -29t-21.5 -100zM1130 195q0 -47 -12 -83.5t-33 -61.5t-50 -37.5t-62 -12.5t-61.5 12.5t-49.5 36.5t-33 59.5t-12 82.5t12 83.5t33 61t49.5 37.5t61.5 13t62 -12.5t50 -36.5t33 -59.5t12 -82.5zM758 195q0 -47 -12 -83.5t-33 -61.5
t-50 -37.5t-62 -12.5q-34 0 -62.5 12.5t-49.5 36.5t-32.5 59.5t-11.5 82.5t11.5 83.5t32.5 61t49.5 37.5t62.5 13q33 0 62 -12.5t50 -36.5t33 -59.5t12 -82.5zM973 322q-37 0 -58.5 -29t-21.5 -100t21.5 -100t58.5 -29t59.5 29t22.5 100t-22.5 100t-59.5 29zM601 322
q-37 0 -58.5 -29t-21.5 -100t21.5 -100t58.5 -29t60 29t23 100t-23 100t-60 29z" />
    <glyph glyph-name="plus.prop" horiz-adv-x="584" 
d="M333 302v-210h-82v210h-200v70h200v211h82v-211h200v-70h-200z" />
    <glyph glyph-name="plusminus.prop" horiz-adv-x="593" 
d="M338 302v-172h-83v172h-200v70h200v211h83v-211h200v-70h-200zM55 0v70h483v-70h-483z" />
    <glyph glyph-name="sacute.pl" horiz-adv-x="483" 
d="M238 -10q-41 0 -72.5 6.5t-55 16t-39.5 20t-25 18.5v79q10 -10 27 -21.5t41 -21.5t54.5 -16.5t68.5 -6.5q56 0 89 18t33 61q0 23 -10.5 37t-28.5 22.5t-41.5 13.5t-49.5 10q-33 7 -65 15.5t-58 25t-42 43t-16 69.5q0 70 54.5 110t152.5 40q55 0 97.5 -11t65.5 -24v-79
q-26 17 -64.5 28.5t-95.5 11.5q-59 0 -90.5 -16t-31.5 -58q0 -21 9 -33.5t24.5 -20t35.5 -11.5t42 -9q34 -7 70 -15t64.5 -25t47 -45.5t18.5 -76.5q0 -45 -18 -75t-47.5 -47.5t-67 -25t-76.5 -7.5zM202 588l36 158h106l-80 -158h-62z" />
    <glyph glyph-name="seven.prop" horiz-adv-x="552" 
d="M210 0h-98l306 631h-366v86h462v-81z" />
    <glyph glyph-name="six.prop" horiz-adv-x="628" 
d="M576 235q0 -55 -19.5 -100t-53.5 -77.5t-80.5 -50t-99.5 -17.5q-72 0 -122.5 23t-82.5 64.5t-46.5 99.5t-14.5 127q0 94 17.5 172t54.5 133.5t94.5 86.5t136.5 31q60 0 99 -10.5t68 -26.5v-89q-36 24 -78 34t-89 10q-50 0 -88.5 -20t-65 -55t-41.5 -82.5t-19 -102.5
q35 47 82.5 69t103.5 22q51 0 95.5 -15.5t77.5 -46.5t52 -76t19 -103zM320 70q32 0 61.5 10.5t51.5 30.5t35 50.5t13 71.5q0 40 -13 71t-34 52t-48.5 31.5t-55.5 10.5q-36 0 -67 -11t-54 -32t-36 -52t-13 -72q0 -36 11 -65.5t32 -51t50.5 -33t66.5 -11.5z" />
    <glyph glyph-name="space.prop" horiz-adv-x="211" 
 />
    <glyph glyph-name="sterling.prop" horiz-adv-x="581" 
d="M536 0h-469v51q28 21 47.5 40.5t30.5 40t16 43t5 48.5q0 29 -6 56h-100v74h78q-14 38 -27 76.5t-13 86.5t15.5 86.5t47 66t78 42.5t108.5 15q58 0 95 -11.5t61 -27.5v-81q-27 17 -69 28t-90 11q-43 0 -72.5 -10t-47.5 -28t-25.5 -43.5t-7.5 -56.5q1 -47 14.5 -82
t27.5 -72h170v-74h-152q1 -7 1 -13.5v-14.5q0 -47 -13.5 -87.5t-55.5 -83.5h353v-80z" />
    <glyph glyph-name="three.prop" horiz-adv-x="568" 
d="M527 207q0 -50 -19.5 -90t-54 -68.5t-83.5 -43.5t-107 -15q-74 0 -128 16.5t-87 44.5v100q34 -32 89 -55.5t127 -23.5q77 0 121.5 35t44.5 98q0 60 -39.5 93.5t-124.5 33.5h-92v85h96q60 0 97 30t37 87q0 51 -35.5 80.5t-103.5 29.5q-69 0 -119 -23t-88 -57v98
q36 30 88.5 47.5t119.5 17.5q54 0 97 -13.5t72.5 -38.5t45.5 -59.5t16 -76.5q0 -34 -10 -61t-27.5 -47t-40.5 -33.5t-49 -19.5q32 -5 60.5 -19t50 -35.5t34 -51t12.5 -65.5z" />
    <glyph glyph-name="two.prop" horiz-adv-x="561" 
d="M519 0h-467v95q92 74 159.5 131t112 105t66 91t21.5 90q0 59 -36 95.5t-105 36.5q-59 0 -109 -27.5t-90 -71.5v101q38 38 87 59.5t115 21.5q56 0 100 -15t74 -42t45.5 -65t15.5 -84q0 -58 -23.5 -109t-68.5 -101.5t-110.5 -105t-149.5 -119.5h363v-86z" />
    <glyph glyph-name="uni20B4.prop" horiz-adv-x="629" 
d="M550 51q-10 -10 -29.5 -20.5t-48 -19.5t-64.5 -15t-79 -6q-47 0 -91 8.5t-78 30t-54.5 59t-20.5 94.5q0 44 17 78h-66v69h125q32 23 70.5 38t76.5 28q11 3 21 6.5t20 7.5h-313v70h405q14 26 14 62q0 53 -35 79.5t-110 26.5q-57 0 -107 -11t-79 -29v79q20 11 64 25.5
t119 14.5q117 0 176.5 -46.5t59.5 -137.5q0 -35 -12 -63h62v-70h-117q-31 -24 -69.5 -41t-77.5 -31l-23 -8h287v-69h-400q-19 -28 -19 -74q0 -62 42 -89.5t113 -27.5q37 0 71.5 6t63.5 15t51.5 20t34.5 20v-79v0z" />
    <glyph glyph-name="uni20B8.prop" horiz-adv-x="558" 
d="M30 717h496v-71h-496v71zM326 479v-479h-96v479h-200v87h496v-87h-200z" />
    <glyph glyph-name="uni20BD.prop" horiz-adv-x="621" 
d="M135 395v322h205q112 0 174.5 -49t62.5 -148q0 -51 -17.5 -88t-50 -60.5t-77.5 -35t-100 -11.5h-102v-85h234v-70h-234v-170h-95v170h-95v70h95v85h-95v70h95zM230 636v-241h102q73 0 112 30.5t39 94.5q0 59 -34 87.5t-109 28.5h-110z" />
    <glyph glyph-name="yen.prop" horiz-adv-x="636" 
d="M363 149v-149h-88v149h-160v70h160v80h-160v70h136l-209 348h99l181 -307l181 307h91l-209 -348h138v-70h-160v-80h160v-70h-160z" />
    <glyph glyph-name="zacute.pl" horiz-adv-x="459" 
d="M419 0h-384v57l273 387h-265v75h375v-57l-273 -387h274v-75zM198 588l36 158h106l-80 -158h-62z" />
    <glyph glyph-name="zero.prop" horiz-adv-x="683" 
d="M342 -10q-60 0 -113 23t-92.5 69t-62.5 115.5t-23 161.5t23 161t62.5 114.5t92.5 68.5t113 23t113 -22.5t92.5 -68t62 -114t22.5 -160.5t-22.5 -161t-62 -116t-92.5 -70.5t-113 -23.5zM341 69q41 0 77 15t62.5 49.5t42 89.5t15.5 135t-15.5 135t-42 89.5t-62 49.5
t-76.5 15t-77 -15t-63 -49.5t-42.5 -89.5t-15.5 -135t15.5 -135t42 -89.5t62.5 -49.5t77 -15z" />
    <glyph glyph-name="idotless" horiz-adv-x="232" 
d="M160 519v-519h-88v519h88z" />
    <glyph glyph-name="colon.tabuc" horiz-adv-x="300" 
d="M151 75q-29 0 -47 18.5t-18 44.5q0 28 18 46t47 18q28 0 46 -18t18 -46q0 -26 -18 -44.5t-46 -18.5zM151 458q-29 0 -47 18.5t-18 44.5q0 28 18 46t47 18q28 0 46 -18t18 -46q0 -26 -18 -44.5t-46 -18.5z" />
    <glyph glyph-name="colon.uc" horiz-adv-x="239" 
d="M120 75q-29 0 -47 18.5t-18 44.5q0 28 18 46t47 18q28 0 46 -18t18 -46q0 -26 -18 -44.5t-46 -18.5zM120 458q-29 0 -47 18.5t-18 44.5q0 28 18 46t47 18q28 0 46 -18t18 -46q0 -26 -18 -44.5t-46 -18.5z" />
    <glyph glyph-name="dollar.alt" 
d="M503 194q0 -51 -15 -87t-41 -60t-61.5 -37t-75.5 -17v-133h-75v131q-75 3 -122.5 22.5t-65.5 37.5v79q11 -9 30 -18.5t43 -18t53.5 -15t61.5 -8.5v261q-35 10 -68 24.5t-58.5 37t-40.5 55.5t-15 81q0 81 45 131.5t137 62.5v123h75v-120q64 -2 100 -16t54 -24v-79
q-25 16 -65 26.5t-89 12.5v-245q36 -10 70.5 -23.5t62 -36t44 -58t16.5 -89.5zM141 533q0 -48 26 -72.5t68 -38.5v220q-50 -10 -72 -38t-22 -71zM414 194q0 26 -6.5 44t-19.5 31t-32.5 22t-45.5 18v-236q104 20 104 121z" />
    <glyph glyph-name="cent.alt" 
d="M482 31q-24 -15 -56 -26t-73 -14v-131h-73v133q-102 13 -159.5 82t-57.5 185q0 115 57.5 183.5t159.5 82.5v124h73v-122q40 -2 73.5 -12.5t55.5 -27.5v-79q-55 36 -129 41v-380q38 4 70.5 14.5t58.5 25.5v-79zM153 260q0 -84 30.5 -130.5t96.5 -57.5v375
q-127 -24 -127 -187z" />
    <glyph glyph-name="cent.propalt" horiz-adv-x="509" 
d="M459 31q-24 -15 -56 -26t-73 -14v-131h-73v133q-102 13 -159.5 82t-57.5 185q0 115 57.5 183.5t159.5 82.5v124h73v-122q40 -2 73.5 -12.5t55.5 -27.5v-79q-55 36 -129 41v-380q38 4 70.5 14.5t58.5 25.5v-79zM130 260q0 -84 30.5 -130.5t96.5 -57.5v375
q-127 -24 -127 -187z" />
    <glyph glyph-name="two.alt" horiz-adv-x="561" 
d="M511 0h-465v93q94 75 162.5 132t113.5 105t67 91t22 90q0 61 -38.5 97.5t-122.5 36.5q-45 0 -93.5 -12.5t-87.5 -41.5v83q33 25 82 38.5t107 13.5q61 0 107 -15t77 -42t47 -65t16 -84q0 -60 -25.5 -113t-72 -104.5t-113.5 -104.5t-149 -113h366v-85z" />
    <glyph glyph-name="three.alt" horiz-adv-x="545" 
d="M496 199q0 -46 -19 -84.5t-53.5 -66t-83 -43t-108.5 -15.5q-61 0 -112 14.5t-82 40.5v81q30 -23 78 -39t114 -16q88 0 130 34t42 95q0 63 -38 97.5t-121 34.5h-100v82h104q58 0 94 31t36 88q0 52 -35 82t-120 30q-38 0 -82.5 -9.5t-87.5 -39.5v81q45 30 90.5 39.5
t91.5 9.5q112 0 172.5 -52t60.5 -136q0 -33 -9.5 -59.5t-26 -46.5t-38.5 -32.5t-47 -18.5q30 -6 57.5 -20.5t48 -37.5t32.5 -54t12 -70z" />
    <glyph glyph-name="five.alt" 
d="M501 231q0 -54 -18.5 -98.5t-53.5 -76t-85.5 -49t-115.5 -17.5q-54 0 -104 12t-79 32v80q25 -17 70 -30t102 -13q97 0 143 43.5t46 114.5q0 75 -42 109t-106 34q-29 0 -50 -4.5t-35 -11t-22.5 -14.5t-12.5 -14h-72v389h395v-86h-314v-220q17 17 47.5 29t78.5 12t89.5 -14
t72.5 -42t48.5 -69.5t17.5 -95.5z" />
    <glyph glyph-name="six.alt" horiz-adv-x="607" 
d="M311 -10q-57 0 -105 18.5t-82.5 54t-53.5 87t-19 116.5q0 92 33 165.5t81 129.5t102 95t96 61h136v-10q-66 -34 -123.5 -71t-102 -78t-74.5 -86t-43 -95q29 42 74.5 63.5t104.5 21.5q45 0 86 -14t72 -43t49.5 -73t18.5 -103q0 -53 -19 -97t-53 -75.5t-79.5 -49
t-98.5 -17.5zM308 68q32 0 61 9.5t50.5 29.5t34.5 49.5t13 70.5q0 40 -11.5 70t-31.5 50t-47.5 29.5t-59.5 9.5q-63 0 -103.5 -28.5t-69.5 -71.5v-20q0 -55 13.5 -92.5t36 -61t52.5 -34t62 -10.5z" />
    <glyph glyph-name="nine.alt" horiz-adv-x="607" 
d="M129 9q126 69 211.5 149.5t111.5 180.5q-61 -84 -180 -84q-45 0 -86 14t-72 43t-49.5 73t-18.5 103q0 53 19.5 97t53 75.5t79 49t98.5 17.5q57 0 105 -18.5t82.5 -54t54 -87t19.5 -116.5q0 -61 -14.5 -114.5t-38.5 -98.5t-55 -82.5t-63 -67t-64 -51.5t-57 -37h-136v9z
M299 648q-32 0 -61 -9.5t-51 -29t-34.5 -49.5t-12.5 -70q0 -41 11.5 -71t31.5 -49.5t48 -29t60 -9.5q62 0 102.5 28t69.5 72v20q0 55 -13.5 92.5t-36 60.5t-52 33.5t-62.5 10.5z" />
    <glyph glyph-name="dollar.propalt" horiz-adv-x="586" 
d="M528 194q0 -51 -15.5 -87t-42.5 -60t-63 -37t-77 -17v-133h-74v130q-75 4 -124.5 23.5t-68.5 37.5v79q11 -9 30.5 -18.5t45 -18t55.5 -15t62 -8.5v261q-36 10 -69.5 24.5t-60 37t-42 55.5t-15.5 81q0 81 47.5 131.5t139.5 62.5v123h74v-120q64 -2 102.5 -15.5t56.5 -24.5
v-79q-25 16 -67 27t-92 13v-246q36 -10 71.5 -23.5t63.5 -36t45.5 -58t17.5 -89.5zM158 533q0 -24 7.5 -42t20.5 -31t31 -22t39 -16v221q-51 -10 -74.5 -38.5t-23.5 -71.5zM438 194q0 26 -7 44t-20.5 31t-33.5 22.5t-47 17.5v-236q52 10 80 40t28 81z" />
    <glyph glyph-name="space.tab" horiz-adv-x="300" 
 />
    <glyph glyph-name="parenleft.tab" horiz-adv-x="300" 
d="M216 -139q-92 89 -133 198.5t-41 247.5t41 253t133 196h87q-48 -39 -81.5 -88t-54.5 -105.5t-30 -120t-9 -132.5q0 -137 39 -248t136 -201h-87z" />
    <glyph glyph-name="parenright.tab" horiz-adv-x="300" 
d="M89.0137 -139q91.9941 89 132.991 198.5q40.998 109.5 40.998 247.5t-40.998 253q-40.9971 115 -132.991 196h-86.9951q47.9971 -39 81.4951 -88t54.4961 -105.5q20.999 -56.5 29.999 -120q8.99902 -63.5 8.99902 -132.5q0 -137 -38.998 -248
q-38.9971 -111 -135.991 -201h86.9951z" />
    <glyph glyph-name="bracketleft.tab" horiz-adv-x="300" 
d="M42 756h267v-75h-181v-745h181v-75h-267v895z" />
    <glyph glyph-name="bracketright.tab" horiz-adv-x="300" 
d="M263.003 756h-266.984v-75h180.989v-745h-180.989v-75h266.984v895z" />
    <glyph glyph-name="braceleft.tab" horiz-adv-x="300" 
d="M319 -135q-17 -3 -31.5 -4t-28.5 -1q-41 0 -70.5 10.5t-48.5 29t-28 44t-9 56.5q0 22 5 40t10.5 34.5t10.5 33.5t5 37q0 26 -4 47.5t-17 38t-37.5 27t-64.5 13.5v75q40 3 64.5 13.5t37.5 27t17 38t4 47.5q0 20 -5 37t-10.5 33.5t-10.5 34.5t-5 40q0 30 9 56t28 44.5
t48.5 29t70.5 10.5q14 0 28.5 -1.5t31.5 -3.5v-71q-15 3 -27.5 4t-23.5 1q-45 0 -61 -21t-16 -58q0 -19 4 -36t9.5 -34.5t9.5 -36t4 -39.5t-4.5 -42t-17.5 -41t-36 -38t-60 -32q37 -14 60 -31.5t36 -37.5t17.5 -41t4.5 -42t-4 -39.5t-9.5 -35.5t-9.5 -33.5t-4 -35.5
q0 -36 16 -59t60 -23q22 0 52 6v-71z" />
    <glyph glyph-name="braceright.tab" horiz-adv-x="300" 
d="M-13.9805 -135q16.999 -3 31.498 -4t28.498 -1q40.998 0 70.4961 10.5t48.4971 29t27.998 44t8.99902 56.5q0 22 -4.99902 40q-5 18 -10.5 34.5q-5.49902 16.5 -10.499 33.5t-5 37q0 26 4 47.5t16.999 38t37.498 27q24.498 10.5 64.4961 13.5v75q-39.998 3 -64.4961 13.5
q-24.499 10.5 -37.498 27t-16.999 38t-4 47.5q0 20 5 37t10.499 33.5q5.5 16.5 10.5 34.5q4.99902 18 4.99902 40q0 30 -8.99902 56t-27.998 44.5t-48.4971 29t-70.4961 10.5q-13.999 0 -28.498 -1.5t-31.498 -3.5v-71q14.999 3 27.498 4t23.499 1q44.9971 0 60.9961 -21
t15.999 -58q0 -19 -4 -36t-9.49902 -34.5q-5.5 -17.5 -9.5 -36q-3.99902 -18.5 -3.99902 -39.5t4.49902 -42q4.5 -21 17.499 -41t35.998 -38t59.9961 -32q-36.9971 -14 -59.9961 -31.5t-35.998 -37.5t-17.499 -41q-4.49902 -21 -4.49902 -42t3.99902 -39.5
q4 -18.5 9.5 -35.5q5.49902 -17 9.49902 -33.5t4 -35.5q0 -36 -15.999 -59t-59.9961 -23q-21.999 0 -51.9971 6v-71z" />
    <glyph glyph-name="period.tab" horiz-adv-x="300" 
d="M152 -6q-29 0 -47 18.5t-18 44.5q0 28 18 46t47 18q28 0 46 -18t18 -46q0 -26 -18 -44.5t-46 -18.5z" />
    <glyph glyph-name="comma.tab" horiz-adv-x="300" 
d="M86 -107q9 10 18 24t16.5 28.5t12 28t6.5 23.5q-21 5 -34 21t-13 38q0 26 16.5 43.5t44.5 17.5t45.5 -19t17.5 -51q0 -21 -6 -43.5t-15 -43.5t-20.5 -38.5t-22.5 -28.5h-66z" />
    </font>
</defs>
</svg>
